Warnes-Regular.otf.ufo
<glyph name="quotedbl" format="1">
  <advance width="370"/>
  <unicode hex="0022"/>
  <outline>
    <contour>
      <point x="165" y="797" type="line" name="hr00"/>
      <point x="141" y="797" type="line" smooth="yes"/>
      <point x="111" y="797" smooth="yes"/>
      <point x="80" y="787" smooth="yes"/>
      <point x="80" y="737" type="curve" smooth="yes"/>
      <point x="80" y="507" type="line"/>
      <point x="111" y="507" type="line" smooth="yes"/>
      <point x="138" y="507" smooth="yes"/>
      <point x="165" y="516" smooth="yes"/>
      <point x="165" y="561" type="curve" smooth="yes"/>
    </contour>
    <contour>
      <point x="340" y="797" type="line"/>
      <point x="316" y="797" type="line" smooth="yes"/>
      <point x="286" y="797" smooth="yes"/>
      <point x="255" y="787" smooth="yes"/>
      <point x="255" y="737" type="curve" smooth="yes"/>
      <point x="255" y="507" type="line"/>
      <point x="286" y="507" type="line" smooth="yes"/>
      <point x="313" y="507" smooth="yes"/>
      <point x="340" y="516" smooth="yes"/>
      <point x="340" y="561" type="curve" smooth="yes"/>
    </contour>
  </outline>
</glyph>
<glyph name="percent" format="1">
  <advance width="1028"/>
  <unicode hex="0025"/>
  <outline>
    <contour>
      <point x="745" y="710" type="line"/>
      <point x="736" y="710" type="line" smooth="yes"/>
      <point x="693" y="710" smooth="yes"/>
      <point x="678" y="704" smooth="yes"/>
      <point x="659" y="650" type="curve" smooth="yes"/>
      <point x="432" y="0" type="line"/>
      <point x="441" y="0" type="line" smooth="yes"/>
      <point x="490" y="0" smooth="yes"/>
      <point x="501" y="12" smooth="yes"/>
      <point x="518" y="60" type="curve" smooth="yes"/>
    </contour>
    <contour>
      <point x="446" y="726" type="curve" smooth="yes" name="hr01"/>
      <point x="249" y="726" smooth="yes"/>
      <point x="200" y="646" smooth="yes"/>
      <point x="200" y="461" type="curve" smooth="yes"/>
      <point x="200" y="345" type="line" smooth="yes"/>
      <point x="200" y="313" smooth="yes"/>
      <point x="208" y="287" smooth="yes"/>
      <point x="255" y="287" type="curve" smooth="yes"/>
      <point x="451" y="287" smooth="yes"/>
      <point x="501" y="367" smooth="yes"/>
      <point x="501" y="552" type="curve" smooth="yes"/>
      <point x="501" y="668" type="line" smooth="yes"/>
      <point x="501" y="700" smooth="yes"/>
      <point x="491" y="726" smooth="yes"/>
    </contour>
    <contour>
      <point x="431" y="552" type="line" smooth="yes"/>
      <point x="431" y="411"/>
      <point x="409" y="353"/>
      <point x="270" y="351" type="curve"/>
      <point x="270" y="461" type="line" smooth="yes"/>
      <point x="270" y="602"/>
      <point x="291" y="660"/>
      <point x="431" y="662" type="curve"/>
    </contour>
    <contour>
      <point x="923" y="439" type="curve" smooth="yes"/>
      <point x="726" y="439" smooth="yes"/>
      <point x="677" y="359" smooth="yes"/>
      <point x="677" y="174" type="curve" smooth="yes"/>
      <point x="677" y="58" type="line" smooth="yes"/>
      <point x="677" y="26" smooth="yes"/>
      <point x="685" y="0" smooth="yes"/>
      <point x="732" y="0" type="curve" smooth="yes"/>
      <point x="928" y="0" smooth="yes"/>
      <point x="978" y="80" smooth="yes"/>
      <point x="978" y="265" type="curve" smooth="yes"/>
      <point x="978" y="381" type="line" smooth="yes"/>
      <point x="978" y="413" smooth="yes"/>
      <point x="968" y="439" smooth="yes"/>
    </contour>
    <contour>
      <point x="908" y="265" type="line" smooth="yes"/>
      <point x="908" y="124"/>
      <point x="886" y="66"/>
      <point x="747" y="64" type="curve"/>
      <point x="747" y="174" type="line" smooth="yes"/>
      <point x="747" y="315"/>
      <point x="768" y="373"/>
      <point x="908" y="375" type="curve"/>
    </contour>
  </outline>
</glyph>
<glyph name="quotesingle" format="1">
  <advance width="195"/>
  <unicode hex="0027"/>
  <outline>
    <contour>
      <point x="165" y="797" type="line" name="hr00"/>
      <point x="141" y="797" type="line" smooth="yes"/>
      <point x="111" y="797" smooth="yes"/>
      <point x="80" y="787" smooth="yes"/>
      <point x="80" y="737" type="curve" smooth="yes"/>
      <point x="80" y="507" type="line"/>
      <point x="111" y="507" type="line" smooth="yes"/>
      <point x="138" y="507" smooth="yes"/>
      <point x="165" y="516" smooth="yes"/>
      <point x="165" y="561" type="curve" smooth="yes"/>
    </contour>
  </outline>
</glyph>
<glyph name="parenleft" format="1">
  <advance width="241"/>
  <unicode hex="0028"/>
  <outline>
    <contour>
      <point x="20" y="355" type="curve" smooth="yes" name="hr00"/>
      <point x="20" y="69" smooth="yes"/>
      <point x="175" y="-55" smooth="yes"/>
      <point x="175" y="-55" type="curve" smooth="yes"/>
      <point x="179" y="-58" smooth="yes"/>
      <point x="184" y="-60" smooth="yes"/>
      <point x="189" y="-60" type="curve" smooth="yes"/>
      <point x="193" y="-60" smooth="yes"/>
      <point x="197" y="-58" smooth="yes"/>
      <point x="200" y="-56" type="curve" smooth="yes"/>
      <point x="225" y="-29" type="line" smooth="yes"/>
      <point x="228" y="-26" smooth="yes"/>
      <point x="231" y="-20" smooth="yes"/>
      <point x="231" y="-16" type="curve" smooth="yes"/>
      <point x="231" y="-10" smooth="yes"/>
      <point x="229" y="-7" smooth="yes"/>
      <point x="226" y="-3" type="curve" smooth="yes"/>
      <point x="226" y="-3" smooth="yes"/>
      <point x="110" y="99" smooth="yes"/>
      <point x="110" y="355" type="curve" smooth="yes"/>
      <point x="110" y="611" smooth="yes"/>
      <point x="226" y="713" smooth="yes"/>
      <point x="226" y="713" type="curve" smooth="yes"/>
      <point x="229" y="717" smooth="yes"/>
      <point x="231" y="720" smooth="yes"/>
      <point x="231" y="726" type="curve" smooth="yes"/>
      <point x="231" y="730" smooth="yes"/>
      <point x="228" y="736" smooth="yes"/>
      <point x="225" y="739" type="curve" smooth="yes"/>
      <point x="200" y="764" type="line" smooth="yes"/>
      <point x="197" y="768" smooth="yes"/>
      <point x="193" y="770" smooth="yes"/>
      <point x="189" y="770" type="curve" smooth="yes"/>
      <point x="184" y="770" smooth="yes"/>
      <point x="179" y="768" smooth="yes"/>
      <point x="175" y="764" type="curve" smooth="yes"/>
      <point x="175" y="764" smooth="yes"/>
      <point x="20" y="641" smooth="yes"/>
    </contour>
  </outline>
</glyph>
<glyph name="slash" format="1">
  <advance width="360"/>
  <unicode hex="002F"/>
  <outline>
    <contour>
      <point x="400" y="760" type="line" name="hr00"/>
      <point x="371" y="760" type="line" smooth="yes"/>
      <point x="328" y="760" smooth="yes"/>
      <point x="309" y="755" smooth="yes"/>
      <point x="294" y="700" type="curve" smooth="yes"/>
      <point x="107" y="0" type="line"/>
      <point x="136" y="0" type="line" smooth="yes"/>
      <point x="185" y="0" smooth="yes"/>
      <point x="200" y="12" smooth="yes"/>
      <point x="213" y="60" type="curve" smooth="yes"/>
    </contour>
  </outline>
</glyph>
<glyph name="three" format="1">
  <advance width="600"/>
  <unicode hex="0033"/>
  <outline>
    <contour>
      <point x="196" y="710" type="line"/>
      <point x="196" y="690" type="line" smooth="yes"/>
      <point x="196" y="640" smooth="yes"/>
      <point x="222" y="630" smooth="yes"/>
      <point x="245" y="630" type="curve" smooth="yes"/>
      <point x="411" y="630" type="line" smooth="yes"/>
      <point x="488" y="630" smooth="yes"/>
      <point x="513" y="622" smooth="yes"/>
      <point x="513" y="581" type="curve" smooth="yes"/>
      <point x="513" y="513" smooth="yes"/>
      <point x="446" y="410" smooth="yes"/>
      <point x="349" y="410" type="curve" smooth="yes"/>
      <point x="266" y="410" type="line"/>
      <point x="266" y="387" type="line" smooth="yes"/>
      <point x="266" y="348" smooth="yes"/>
      <point x="297" y="340" smooth="yes"/>
      <point x="327" y="340" type="curve" smooth="yes"/>
      <point x="534" y="340" type="line" name="hr01"/>
      <point x="534" y="124" smooth="yes"/>
      <point x="465" y="80" smooth="yes"/>
      <point x="266" y="80" type="curve" smooth="yes"/>
      <point x="176" y="80" type="line"/>
      <point x="176" y="44" smooth="yes"/>
      <point x="191" y="0" smooth="yes"/>
      <point x="266" y="0" type="curve" smooth="yes"/>
      <point x="522" y="0" smooth="yes"/>
      <point x="624" y="99" smooth="yes"/>
      <point x="624" y="320" type="curve" smooth="yes"/>
      <point x="624" y="330" type="line" smooth="yes"/>
      <point x="624" y="380" smooth="yes"/>
      <point x="608" y="410" smooth="yes"/>
      <point x="534" y="410" type="curve" smooth="yes"/>
      <point x="507" y="410" type="line"/>
      <point x="574" y="459" smooth="yes"/>
      <point x="603" y="537" smooth="yes"/>
      <point x="603" y="581" type="curve" smooth="yes" name="hr02"/>
      <point x="603" y="689" smooth="yes"/>
      <point x="556" y="710" smooth="yes"/>
      <point x="411" y="710" type="curve" smooth="yes"/>
    </contour>
  </outline>
</glyph>
<glyph name="four" format="1">
  <advance width="600"/>
  <unicode hex="0034"/>
  <outline>
    <contour>
      <point x="147" y="255" type="line" name="hr00"/>
      <point x="147" y="200" smooth="yes"/>
      <point x="178" y="175" smooth="yes"/>
      <point x="215" y="175" type="curve" smooth="yes"/>
      <point x="479" y="175" type="line"/>
      <point x="479" y="60" type="line" smooth="yes"/>
      <point x="479" y="10" smooth="yes"/>
      <point x="510" y="0" smooth="yes"/>
      <point x="540" y="0" type="curve" smooth="yes"/>
      <point x="569" y="0" type="line"/>
      <point x="569" y="175" type="line"/>
      <point x="641" y="175" type="line" smooth="yes"/>
      <point x="649" y="175" smooth="yes"/>
      <point x="656" y="183" smooth="yes"/>
      <point x="656" y="191" type="curve" smooth="yes"/>
      <point x="656" y="240" type="line" smooth="yes"/>
      <point x="656" y="248" smooth="yes"/>
      <point x="649" y="255" smooth="yes"/>
      <point x="641" y="255" type="curve" smooth="yes"/>
      <point x="569" y="255" type="line"/>
      <point x="569" y="520" type="line" smooth="yes"/>
      <point x="569" y="531" smooth="yes"/>
      <point x="559" y="540" smooth="yes"/>
      <point x="548" y="540" type="curve" smooth="yes"/>
      <point x="499" y="540" type="line" smooth="yes"/>
      <point x="488" y="540" smooth="yes"/>
      <point x="479" y="531" smooth="yes"/>
      <point x="479" y="520" type="curve" smooth="yes"/>
      <point x="479" y="255" type="line"/>
      <point x="229" y="255" type="line"/>
      <point x="275" y="425" smooth="yes"/>
      <point x="302" y="531" smooth="yes"/>
      <point x="331" y="660" type="curve" smooth="yes"/>
      <point x="333" y="669" smooth="yes"/>
      <point x="334" y="677" smooth="yes"/>
      <point x="334" y="683" type="curve" smooth="yes"/>
      <point x="334" y="715"/>
      <point x="311" y="720"/>
      <point x="256" y="720" type="curve"/>
    </contour>
  </outline>
</glyph>
<glyph name="five" format="1">
  <advance width="600"/>
  <unicode hex="0035"/>
  <outline>
    <contour>
      <point x="385" y="710" type="line" smooth="yes" name="hr00"/>
      <point x="225" y="710" smooth="yes"/>
      <point x="166" y="641" smooth="yes"/>
      <point x="166" y="491" type="curve" smooth="yes"/>
      <point x="166" y="387" type="line" smooth="yes"/>
      <point x="166" y="348" smooth="yes"/>
      <point x="197" y="340" smooth="yes"/>
      <point x="227" y="340" type="curve" smooth="yes"/>
      <point x="524" y="340" type="line"/>
      <point x="524" y="124" smooth="yes"/>
      <point x="455" y="80" smooth="yes"/>
      <point x="256" y="80" type="curve" smooth="yes"/>
      <point x="166" y="80" type="line"/>
      <point x="166" y="44" smooth="yes"/>
      <point x="181" y="0" smooth="yes"/>
      <point x="256" y="0" type="curve" smooth="yes"/>
      <point x="512" y="0" smooth="yes"/>
      <point x="614" y="99" smooth="yes"/>
      <point x="614" y="320" type="curve" smooth="yes"/>
      <point x="614" y="330" type="line" smooth="yes"/>
      <point x="614" y="380" smooth="yes"/>
      <point x="598" y="420" smooth="yes"/>
      <point x="524" y="420" type="curve" smooth="yes"/>
      <point x="256" y="420" type="line"/>
      <point x="256" y="491" type="line" smooth="yes"/>
      <point x="256" y="606" smooth="yes"/>
      <point x="297" y="630" smooth="yes"/>
      <point x="388" y="630" type="curve" smooth="yes"/>
      <point x="590" y="630" type="line"/>
      <point x="590" y="640" type="line" smooth="yes"/>
      <point x="590" y="690" smooth="yes"/>
      <point x="568" y="710" smooth="yes"/>
      <point x="531" y="710" type="curve" smooth="yes"/>
    </contour>
  </outline>
</glyph>
<glyph name="nine" format="1">
  <advance width="600"/>
  <unicode hex="0039"/>
  <outline>
    <contour>
      <point x="392" y="710" type="line" smooth="yes" name="hr00"/>
      <point x="232" y="710" smooth="yes"/>
      <point x="173" y="641" smooth="yes"/>
      <point x="173" y="491" type="curve" smooth="yes"/>
      <point x="173" y="370" type="line" smooth="yes"/>
      <point x="173" y="320" smooth="yes"/>
      <point x="187" y="280" smooth="yes"/>
      <point x="260" y="280" type="curve" smooth="yes"/>
      <point x="396" y="280"/>
      <point x="482" y="313"/>
      <point x="536" y="380" type="curve"/>
      <point x="533" y="147" smooth="yes"/>
      <point x="498" y="80" smooth="yes"/>
      <point x="241" y="80" type="curve" smooth="yes"/>
      <point x="182" y="80" type="line"/>
      <point x="182" y="70" type="line" smooth="yes"/>
      <point x="182" y="20" smooth="yes"/>
      <point x="204" y="0" smooth="yes"/>
      <point x="241" y="0" type="curve" smooth="yes"/>
      <point x="556" y="0" smooth="yes"/>
      <point x="626" y="105" smooth="yes"/>
      <point x="626" y="408" type="curve" smooth="yes"/>
      <point x="626" y="620" type="line" smooth="yes"/>
      <point x="626" y="670" smooth="yes"/>
      <point x="610" y="710" smooth="yes"/>
      <point x="537" y="710" type="curve" smooth="yes"/>
    </contour>
    <contour>
      <point x="541" y="630" type="line"/>
      <point x="541" y="413"/>
      <point x="455" y="360"/>
      <point x="263" y="360" type="curve"/>
      <point x="263" y="491" type="line" smooth="yes"/>
      <point x="263" y="606" smooth="yes"/>
      <point x="304" y="630" smooth="yes"/>
      <point x="395" y="630" type="curve" smooth="yes"/>
    </contour>
  </outline>
</glyph>
<glyph name="semicolon" format="1">
  <advance width="343"/>
  <unicode hex="003B"/>
  <outline>
    <contour>
      <point x="231" y="-188" type="line" name="hr00"/>
      <point x="285" y="-136" smooth="yes"/>
      <point x="348" y="-40" smooth="yes"/>
      <point x="348" y="41" type="curve" smooth="yes"/>
      <point x="348" y="98" smooth="yes"/>
      <point x="325" y="123" smooth="yes"/>
      <point x="275" y="123" type="curve" smooth="yes"/>
      <point x="244" y="123" type="line"/>
      <point x="244" y="68" type="line" smooth="yes"/>
      <point x="244" y="-62"/>
      <point x="219" y="-109"/>
      <point x="194" y="-157" type="curve"/>
    </contour>
    <contour>
      <point x="218" y="481" type="curve" smooth="yes"/>
      <point x="218" y="443" smooth="yes"/>
      <point x="231" y="414" smooth="yes"/>
      <point x="285" y="414" type="curve" smooth="yes"/>
      <point x="337" y="414" smooth="yes"/>
      <point x="353" y="443" smooth="yes"/>
      <point x="353" y="481" type="curve" smooth="yes"/>
      <point x="353" y="518" smooth="yes"/>
      <point x="337" y="549" smooth="yes"/>
      <point x="285" y="549" type="curve" smooth="yes"/>
      <point x="231" y="549" smooth="yes"/>
      <point x="218" y="518" smooth="yes"/>
    </contour>
  </outline>
</glyph>
<glyph name="at" format="1">
  <advance width="963"/>
  <unicode hex="0040"/>
  <outline>
    <contour>
      <point x="713" y="424" type="line"/>
      <point x="722" y="445" smooth="yes"/>
      <point x="728" y="472" smooth="yes"/>
      <point x="728" y="496" type="curve" smooth="yes" name="hr01"/>
      <point x="728" y="547" smooth="yes"/>
      <point x="707" y="573" smooth="yes"/>
      <point x="664" y="573" type="curve" smooth="yes"/>
      <point x="633" y="573" type="line"/>
      <point x="633" y="483" type="line" smooth="yes"/>
      <point x="633" y="303"/>
      <point x="514" y="233"/>
      <point x="446" y="223" type="curve"/>
      <point x="446" y="413" type="line" smooth="yes"/>
      <point x="446" y="486" smooth="yes"/>
      <point x="473" y="501" smooth="yes"/>
      <point x="533" y="501" type="curve" smooth="yes"/>
      <point x="585" y="501" type="line"/>
      <point x="585" y="518" type="line" smooth="yes"/>
      <point x="585" y="562" smooth="yes"/>
      <point x="574" y="580" smooth="yes"/>
      <point x="538" y="580" type="curve" smooth="yes"/>
      <point x="412" y="580" smooth="yes"/>
      <point x="366" y="527" smooth="yes"/>
      <point x="366" y="413" type="curve" smooth="yes"/>
      <point x="366" y="223" type="line" smooth="yes"/>
      <point x="366" y="181" smooth="yes"/>
      <point x="382" y="148" smooth="yes"/>
      <point x="441" y="148" type="curve" smooth="yes"/>
      <point x="503" y="148"/>
      <point x="580" y="195"/>
      <point x="633" y="274" type="curve"/>
      <point x="633" y="206" type="line" smooth="yes"/>
      <point x="633" y="160" smooth="yes"/>
      <point x="659" y="152" smooth="yes"/>
      <point x="686" y="152" type="curve" smooth="yes"/>
      <point x="713" y="152" type="line" smooth="yes" name="hr02"/>
      <point x="807" y="152" smooth="yes"/>
      <point x="909" y="199" smooth="yes"/>
      <point x="909" y="361" type="curve" smooth="yes"/>
      <point x="909" y="674" type="line" smooth="yes"/>
      <point x="909" y="729" smooth="yes"/>
      <point x="883" y="749" smooth="yes"/>
      <point x="834" y="749" type="curve" smooth="yes"/>
      <point x="318" y="749" smooth="yes"/>
      <point x="190" y="699" smooth="yes"/>
      <point x="190" y="328" type="curve" smooth="yes"/>
      <point x="190" y="75" type="line" smooth="yes"/>
      <point x="190" y="20" smooth="yes"/>
      <point x="216" y="0" smooth="yes"/>
      <point x="265" y="0" type="curve" smooth="yes"/>
      <point x="1120" y="0" type="line" smooth="yes"/>
      <point x="1155" y="0"/>
      <point x="1190" y="12"/>
      <point x="1190" y="70" type="curve"/>
      <point x="280" y="70" type="line"/>
      <point x="280" y="328" type="line" smooth="yes"/>
      <point x="280" y="648"/>
      <point x="360" y="674"/>
      <point x="819" y="674" type="curve"/>
      <point x="819" y="361" type="line" smooth="yes"/>
      <point x="819" y="227"/>
      <point x="760" y="223"/>
      <point x="713" y="223" type="curve"/>
    </contour>
  </outline>
</glyph>
<glyph name="A" format="1">
  <advance width="779"/>
  <unicode hex="0041"/>
  <outline>
    <contour>
      <point x="616" y="70" type="line" name="hr00"/>
      <point x="616" y="640" type="line"/>
      <point x="670" y="640" type="line"/>
      <point x="670" y="666" type="line" smooth="yes"/>
      <point x="670" y="693" smooth="yes"/>
      <point x="661" y="720" smooth="yes"/>
      <point x="616" y="720" type="curve" smooth="yes"/>
      <point x="395" y="720" smooth="yes"/>
      <point x="104" y="580" smooth="yes"/>
      <point x="104" y="60" type="curve" smooth="yes"/>
      <point x="104" y="0" type="line"/>
      <point x="139" y="0" type="line" smooth="yes"/>
      <point x="169" y="0" smooth="yes"/>
      <point x="194" y="10" smooth="yes"/>
      <point x="194" y="60" type="curve" smooth="yes"/>
      <point x="194" y="151"/>
      <point x="204" y="230"/>
      <point x="222" y="299" type="curve"/>
      <point x="526" y="299" type="line"/>
      <point x="526" y="60" type="line" smooth="yes"/>
      <point x="526" y="10" smooth="yes"/>
      <point x="556" y="0" smooth="yes"/>
      <point x="586" y="0" type="curve" smooth="yes"/>
      <point x="899" y="0" type="line" smooth="yes"/>
      <point x="934" y="0"/>
      <point x="969" y="12"/>
      <point x="969" y="70" type="curve"/>
    </contour>
    <contour>
      <point x="526" y="630" type="curve"/>
      <point x="526" y="374" type="line"/>
      <point x="247" y="374" type="line"/>
      <point x="306" y="521"/>
      <point x="409" y="603"/>
    </contour>
  </outline>
</glyph>
<glyph name="C" format="1">
  <advance width="555"/>
  <unicode hex="0043"/>
  <outline>
    <contour>
      <point x="175" y="70" type="line" name="hr00"/>
      <point x="175" y="430" smooth="yes"/>
      <point x="303" y="640" smooth="yes"/>
      <point x="532" y="640" type="curve" smooth="yes"/>
      <point x="586" y="640" type="line"/>
      <point x="586" y="666" type="line" smooth="yes"/>
      <point x="586" y="693" smooth="yes"/>
      <point x="577" y="720" smooth="yes"/>
      <point x="532" y="720" type="curve" smooth="yes"/>
      <point x="311" y="720" smooth="yes"/>
      <point x="85" y="553" smooth="yes"/>
      <point x="85" y="80" type="curve" smooth="yes"/>
      <point x="85" y="10" smooth="yes"/>
      <point x="125" y="0" smooth="yes"/>
      <point x="175" y="0" type="curve" smooth="yes"/>
      <point x="675" y="0" type="line" smooth="yes"/>
      <point x="710" y="0"/>
      <point x="745" y="12"/>
      <point x="745" y="70" type="curve"/>
    </contour>
  </outline>
</glyph>
<glyph name="D" format="1">
  <advance width="713"/>
  <unicode hex="0044"/>
  <outline>
    <contour>
      <point x="671" y="219" type="curve" smooth="yes" name="hr00"/>
      <point x="671" y="508" smooth="yes"/>
      <point x="425" y="720" smooth="yes"/>
      <point x="166" y="720" type="curve" smooth="yes"/>
      <point x="136" y="720" smooth="yes"/>
      <point x="106" y="710" smooth="yes"/>
      <point x="106" y="660" type="curve" smooth="yes"/>
      <point x="106" y="640" type="line"/>
      <point x="124" y="640"/>
      <point x="142" y="639"/>
      <point x="160" y="638" type="curve"/>
      <point x="160" y="120" type="line"/>
      <point x="189" y="120" type="line" smooth="yes"/>
      <point x="219" y="120" smooth="yes"/>
      <point x="250" y="130" smooth="yes"/>
      <point x="250" y="180" type="curve" smooth="yes"/>
      <point x="250" y="625" type="line"/>
      <point x="496" y="570" smooth="yes"/>
      <point x="581" y="374" smooth="yes"/>
      <point x="581" y="219" type="curve" smooth="yes"/>
      <point x="581" y="156" smooth="yes"/>
      <point x="541" y="70" smooth="yes"/>
      <point x="419" y="70" type="curve" smooth="yes"/>
      <point x="90" y="70" type="line"/>
      <point x="90" y="60" type="line" smooth="yes"/>
      <point x="90" y="10" smooth="yes"/>
      <point x="120" y="0" smooth="yes"/>
      <point x="150" y="0" type="curve" smooth="yes"/>
      <point x="833" y="0" type="line" smooth="yes"/>
      <point x="868" y="0"/>
      <point x="903" y="12"/>
      <point x="903" y="70" type="curve"/>
      <point x="594" y="70" type="line"/>
      <point x="654" y="106" smooth="yes"/>
      <point x="671" y="163" smooth="yes"/>
    </contour>
  </outline>
</glyph>
<glyph name="G" format="1">
  <advance width="715"/>
  <unicode hex="0047"/>
  <outline>
    <contour>
      <point x="175" y="70" type="line" name="hr00"/>
      <point x="175" y="430" smooth="yes"/>
      <point x="303" y="640" smooth="yes"/>
      <point x="532" y="640" type="curve" smooth="yes"/>
      <point x="586" y="640" type="line"/>
      <point x="586" y="666" type="line" smooth="yes"/>
      <point x="586" y="693" smooth="yes"/>
      <point x="577" y="720" smooth="yes"/>
      <point x="532" y="720" type="curve" smooth="yes"/>
      <point x="311" y="720" smooth="yes"/>
      <point x="85" y="553" smooth="yes"/>
      <point x="85" y="80" type="curve" smooth="yes"/>
      <point x="85" y="10" smooth="yes"/>
      <point x="125" y="0" smooth="yes"/>
      <point x="175" y="0" type="curve" smooth="yes"/>
      <point x="494" y="0" type="line"/>
      <point x="490" y="-208" smooth="yes"/>
      <point x="437" y="-230" smooth="yes"/>
      <point x="318" y="-230" type="curve" smooth="yes"/>
      <point x="262" y="-230" type="line"/>
      <point x="262" y="-241" type="line" smooth="yes"/>
      <point x="262" y="-290" smooth="yes"/>
      <point x="276" y="-310" smooth="yes"/>
      <point x="318" y="-310" type="curve" smooth="yes"/>
      <point x="500" y="-310"/>
      <point x="578" y="-246"/>
      <point x="584" y="0" type="curve"/>
      <point x="835" y="0" type="line" smooth="yes"/>
      <point x="870" y="0"/>
      <point x="905" y="12"/>
      <point x="905" y="70" type="curve"/>
      <point x="585" y="70" type="line"/>
      <point x="585" y="320" type="line"/>
      <point x="584" y="331" smooth="yes"/>
      <point x="575" y="340" smooth="yes"/>
      <point x="564" y="340" type="curve" smooth="yes"/>
      <point x="515" y="340" type="line" smooth="yes"/>
      <point x="504" y="340" smooth="yes"/>
      <point x="495" y="331" smooth="yes"/>
      <point x="495" y="320" type="curve" smooth="yes"/>
      <point x="495" y="70" type="line"/>
    </contour>
  </outline>
</glyph>
<glyph name="K" format="1">
  <advance width="640"/>
  <unicode hex="004B"/>
  <outline>
    <contour>
      <point x="250" y="0" type="line"/>
      <point x="250" y="98"/>
      <point x="272" y="212"/>
      <point x="309" y="317" type="curve"/>
      <point x="356" y="245" type="line" smooth="yes"/>
      <point x="437" y="119" smooth="yes"/>
      <point x="509" y="0" smooth="yes"/>
      <point x="682" y="0" type="curve" smooth="yes"/>
      <point x="753" y="0" type="line" smooth="yes"/>
      <point x="788" y="0"/>
      <point x="830" y="12"/>
      <point x="830" y="70" type="curve"/>
      <point x="687" y="70" type="line" smooth="yes"/>
      <point x="568" y="70" smooth="yes"/>
      <point x="514" y="149" smooth="yes"/>
      <point x="409" y="307" type="curve" smooth="yes"/>
      <point x="345" y="404" type="line"/>
      <point x="409" y="538" smooth="yes"/>
      <point x="500" y="640" smooth="yes"/>
      <point x="603" y="640" type="curve" smooth="yes"/>
      <point x="657" y="640" type="line"/>
      <point x="657" y="666" type="line" smooth="yes"/>
      <point x="657" y="693" smooth="yes"/>
      <point x="648" y="720" smooth="yes"/>
      <point x="603" y="720" type="curve" smooth="yes"/>
      <point x="447" y="720"/>
      <point x="315" y="559"/>
      <point x="250" y="343" type="curve"/>
      <point x="250" y="690" type="line" smooth="yes" name="hr01"/>
      <point x="250" y="701" smooth="yes"/>
      <point x="241" y="710" smooth="yes"/>
      <point x="230" y="710" type="curve" smooth="yes"/>
      <point x="180" y="710" type="line" smooth="yes"/>
      <point x="169" y="710" smooth="yes"/>
      <point x="160" y="701" smooth="yes"/>
      <point x="160" y="690" type="curve" smooth="yes"/>
      <point x="160" y="191" type="line"/>
      <point x="147" y="160" smooth="yes"/>
      <point x="139" y="127" smooth="yes"/>
      <point x="139" y="91" type="curve" smooth="yes"/>
      <point x="139" y="28" smooth="yes"/>
      <point x="165" y="0" smooth="yes"/>
      <point x="220" y="0" type="curve" smooth="yes"/>
    </contour>
  </outline>
</glyph>
<glyph name="O" format="1">
  <advance width="761"/>
  <unicode hex="004F"/>
  <outline>
    <contour>
      <point x="670" y="636" type="line" smooth="yes" name="hr00"/>
      <point x="670" y="682" smooth="yes"/>
      <point x="657" y="720" smooth="yes"/>
      <point x="591" y="720" type="curve" smooth="yes"/>
      <point x="267" y="720" smooth="yes"/>
      <point x="115" y="589" smooth="yes"/>
      <point x="115" y="282" type="curve" smooth="yes"/>
      <point x="115" y="84" type="line" smooth="yes"/>
      <point x="115" y="38" smooth="yes"/>
      <point x="128" y="0" smooth="yes"/>
      <point x="194" y="0" type="curve" smooth="yes"/>
      <point x="881" y="0" type="line" smooth="yes"/>
      <point x="916" y="0"/>
      <point x="951" y="12"/>
      <point x="951" y="70" type="curve"/>
      <point x="495" y="70" type="line"/>
      <point x="613" y="133" smooth="yes"/>
      <point x="670" y="249" smooth="yes"/>
      <point x="670" y="437" type="curve" smooth="yes"/>
    </contour>
    <contour>
      <point x="205" y="282" type="line" smooth="yes"/>
      <point x="205" y="538"/>
      <point x="313" y="640"/>
      <point x="580" y="640" type="curve"/>
      <point x="580" y="437" type="line" smooth="yes"/>
      <point x="580" y="181"/>
      <point x="472" y="70"/>
      <point x="205" y="70" type="curve"/>
    </contour>
  </outline>
</glyph>
<glyph name="P" format="1">
  <advance width="617"/>
  <unicode hex="0050"/>
  <outline>
    <contour>
      <point x="170" y="200" type="line" name="hr00"/>
      <point x="170" y="60" type="line" smooth="yes"/>
      <point x="170" y="10" smooth="yes"/>
      <point x="201" y="0" smooth="yes"/>
      <point x="231" y="0" type="curve" smooth="yes"/>
      <point x="737" y="0" type="line" smooth="yes"/>
      <point x="772" y="0"/>
      <point x="807" y="12"/>
      <point x="807" y="70" type="curve"/>
      <point x="260" y="70" type="line"/>
      <point x="260" y="212" type="line"/>
      <point x="429" y="253" smooth="yes"/>
      <point x="601" y="389" smooth="yes"/>
      <point x="601" y="532" type="curve" smooth="yes"/>
      <point x="601" y="585" smooth="yes"/>
      <point x="573" y="710" smooth="yes"/>
      <point x="349" y="710" type="curve" smooth="yes"/>
      <point x="149" y="710" type="line" smooth="yes"/>
      <point x="126" y="710" smooth="yes"/>
      <point x="100" y="700" smooth="yes"/>
      <point x="100" y="650" type="curve" smooth="yes"/>
      <point x="100" y="630" type="line"/>
      <point x="349" y="630" type="line" smooth="yes"/>
      <point x="471" y="630" smooth="yes"/>
      <point x="511" y="589" smooth="yes"/>
      <point x="511" y="532" type="curve" smooth="yes"/>
      <point x="511" y="456"/>
      <point x="435" y="338"/>
      <point x="260" y="296" type="curve"/>
      <point x="260" y="520" type="line" smooth="yes"/>
      <point x="260" y="570" smooth="yes"/>
      <point x="229" y="580" smooth="yes"/>
      <point x="199" y="580" type="curve" smooth="yes"/>
      <point x="170" y="580" type="line"/>
      <point x="170" y="282" type="line"/>
      <point x="152" y="280"/>
      <point x="134" y="280"/>
      <point x="116" y="280" type="curve"/>
      <point x="116" y="260" type="line" smooth="yes"/>
      <point x="116" y="210" smooth="yes"/>
      <point x="138" y="200" smooth="yes"/>
      <point x="161" y="200" type="curve" smooth="yes"/>
    </contour>
  </outline>
</glyph>
<glyph name="R" format="1">
  <advance width="647"/>
  <unicode hex="0052"/>
  <outline>
    <contour>
      <point x="714" y="0" type="curve" smooth="yes" name="hr00"/>
      <point x="796" y="0"/>
      <point x="837" y="2"/>
      <point x="837" y="70" type="curve"/>
      <point x="730" y="70" type="line" smooth="yes"/>
      <point x="531" y="70"/>
      <point x="456" y="199"/>
      <point x="448" y="298" type="curve"/>
      <point x="537" y="360" smooth="yes"/>
      <point x="601" y="444" smooth="yes"/>
      <point x="601" y="532" type="curve" smooth="yes"/>
      <point x="601" y="585" smooth="yes"/>
      <point x="573" y="710" smooth="yes"/>
      <point x="349" y="710" type="curve" smooth="yes"/>
      <point x="149" y="710" type="line" smooth="yes"/>
      <point x="126" y="710" smooth="yes"/>
      <point x="100" y="700" smooth="yes"/>
      <point x="100" y="650" type="curve" smooth="yes"/>
      <point x="100" y="630" type="line"/>
      <point x="349" y="630" type="line" smooth="yes"/>
      <point x="471" y="630" smooth="yes"/>
      <point x="511" y="589" smooth="yes"/>
      <point x="511" y="532" type="curve" smooth="yes"/>
      <point x="511" y="456"/>
      <point x="435" y="338"/>
      <point x="260" y="296" type="curve"/>
      <point x="260" y="520" type="line" smooth="yes"/>
      <point x="260" y="570" smooth="yes"/>
      <point x="229" y="580" smooth="yes"/>
      <point x="199" y="580" type="curve" smooth="yes"/>
      <point x="170" y="580" type="line"/>
      <point x="170" y="282" type="line"/>
      <point x="152" y="280"/>
      <point x="134" y="280"/>
      <point x="116" y="280" type="curve"/>
      <point x="116" y="260" type="line" smooth="yes"/>
      <point x="116" y="210" smooth="yes"/>
      <point x="138" y="200" smooth="yes"/>
      <point x="161" y="200" type="curve" smooth="yes"/>
      <point x="170" y="200" type="line"/>
      <point x="170" y="20" type="line" smooth="yes"/>
      <point x="170" y="9" smooth="yes"/>
      <point x="179" y="0" smooth="yes"/>
      <point x="190" y="0" type="curve" smooth="yes"/>
      <point x="240" y="0" type="line" smooth="yes"/>
      <point x="251" y="0" smooth="yes"/>
      <point x="260" y="9" smooth="yes"/>
      <point x="260" y="20" type="curve" smooth="yes"/>
      <point x="260" y="212" type="line"/>
      <point x="298" y="221"/>
      <point x="336" y="235"/>
      <point x="372" y="253" type="curve"/>
      <point x="406" y="120" smooth="yes"/>
      <point x="492" y="0" smooth="yes"/>
    </contour>
  </outline>
</glyph>
<glyph name="S" format="1">
  <advance width="707"/>
  <unicode hex="0053"/>
  <outline>
    <contour>
      <point x="180" y="374" type="line" name="hr00"/>
      <point x="180" y="462" smooth="yes"/>
      <point x="199" y="640" smooth="yes"/>
      <point x="522" y="640" type="curve" smooth="yes"/>
      <point x="595" y="640" type="line"/>
      <point x="595" y="660" type="line" smooth="yes"/>
      <point x="595" y="710" smooth="yes"/>
      <point x="565" y="720" smooth="yes"/>
      <point x="535" y="720" type="curve" smooth="yes"/>
      <point x="175" y="720" smooth="yes"/>
      <point x="90" y="530" smooth="yes"/>
      <point x="90" y="384" type="curve" smooth="yes"/>
      <point x="90" y="314" smooth="yes"/>
      <point x="130" y="299" smooth="yes"/>
      <point x="180" y="299" type="curve" smooth="yes"/>
      <point x="535" y="299" type="line"/>
      <point x="535" y="211" smooth="yes"/>
      <point x="486" y="70" smooth="yes"/>
      <point x="153" y="70" type="curve" smooth="yes"/>
      <point x="90" y="70" type="line"/>
      <point x="90" y="60" type="line" smooth="yes"/>
      <point x="90" y="10" smooth="yes"/>
      <point x="120" y="0" smooth="yes"/>
      <point x="150" y="0" type="curve" smooth="yes"/>
      <point x="827" y="0" type="line" smooth="yes"/>
      <point x="862" y="0"/>
      <point x="897" y="12"/>
      <point x="897" y="70" type="curve"/>
      <point x="488" y="70" type="line"/>
      <point x="587" y="126" smooth="yes"/>
      <point x="625" y="211" smooth="yes"/>
      <point x="625" y="294" type="curve" smooth="yes"/>
      <point x="625" y="364" smooth="yes"/>
      <point x="585" y="374" smooth="yes"/>
      <point x="535" y="374" type="curve" smooth="yes"/>
    </contour>
  </outline>
</glyph>
<glyph name="T" format="1">
  <advance width="770"/>
  <unicode hex="0054"/>
  <outline>
    <contour>
      <point x="238" y="70" type="curve"/>
      <point x="238" y="379" smooth="yes"/>
      <point x="376" y="630" smooth="yes"/>
      <point x="605" y="630" type="curve" smooth="yes"/>
      <point x="686" y="630" type="line"/>
      <point x="686" y="704" smooth="yes"/>
      <point x="639" y="726" smooth="yes"/>
      <point x="597" y="726" type="curve" smooth="yes" name="hr01"/>
      <point x="563" y="726"/>
      <point x="531" y="720"/>
      <point x="502" y="710" type="curve" name="hr02"/>
      <point x="111" y="710" type="line"/>
      <point x="111" y="684" type="line" smooth="yes"/>
      <point x="111" y="657" smooth="yes"/>
      <point x="120" y="630" smooth="yes"/>
      <point x="165" y="630" type="curve" smooth="yes"/>
      <point x="383" y="630" type="line"/>
      <point x="249" y="525" smooth="yes"/>
      <point x="148" y="327" smooth="yes"/>
      <point x="148" y="84" type="curve" smooth="yes"/>
      <point x="148" y="38" smooth="yes"/>
      <point x="161" y="0" smooth="yes"/>
      <point x="227" y="0" type="curve" smooth="yes"/>
      <point x="890" y="0" type="line" smooth="yes"/>
      <point x="925" y="0"/>
      <point x="960" y="12"/>
      <point x="960" y="70" type="curve"/>
      <point x="532" y="70" type="line"/>
      <point x="626" y="126" smooth="yes"/>
      <point x="663" y="215" smooth="yes"/>
      <point x="663" y="358" type="curve" smooth="yes"/>
      <point x="663" y="418" type="line"/>
      <point x="634" y="418" type="line" smooth="yes"/>
      <point x="604" y="418" smooth="yes"/>
      <point x="573" y="408" smooth="yes"/>
      <point x="573" y="358" type="curve" smooth="yes"/>
      <point x="573" y="162"/>
      <point x="505" y="70"/>
    </contour>
  </outline>
</glyph>
<glyph name="U" format="1">
  <advance width="817"/>
  <unicode hex="0055"/>
  <outline>
    <contour>
      <point x="587" y="347" type="curve"/>
      <point x="587" y="60" type="line" smooth="yes"/>
      <point x="587" y="10" smooth="yes"/>
      <point x="618" y="0" smooth="yes"/>
      <point x="648" y="0" type="curve" smooth="yes"/>
      <point x="937" y="0" type="line" smooth="yes"/>
      <point x="972" y="0"/>
      <point x="1007" y="12"/>
      <point x="1007" y="70" type="curve"/>
      <point x="677" y="70" type="line"/>
      <point x="677" y="519" type="line"/>
      <point x="689" y="549" smooth="yes"/>
      <point x="698" y="583" smooth="yes"/>
      <point x="698" y="619" type="curve" smooth="yes"/>
      <point x="698" y="679" smooth="yes"/>
      <point x="674" y="710" smooth="yes"/>
      <point x="623" y="710" type="curve" smooth="yes"/>
      <point x="587" y="710" type="line"/>
      <point x="587" y="647" type="line" smooth="yes"/>
      <point x="587" y="368"/>
      <point x="335" y="70"/>
      <point x="250" y="70" type="curve"/>
      <point x="250" y="690" type="line" smooth="yes"/>
      <point x="250" y="701" smooth="yes"/>
      <point x="241" y="710" smooth="yes"/>
      <point x="230" y="710" type="curve" smooth="yes"/>
      <point x="180" y="710" type="line" smooth="yes"/>
      <point x="169" y="710" smooth="yes"/>
      <point x="160" y="701" smooth="yes"/>
      <point x="160" y="690" type="curve" smooth="yes"/>
      <point x="160" y="80" type="line" smooth="yes"/>
      <point x="160" y="30" smooth="yes"/>
      <point x="180" y="-10" smooth="yes"/>
      <point x="250" y="-10" type="curve" smooth="yes" name="hr01"/>
      <point x="358" y="-10"/>
      <point x="501" y="156"/>
    </contour>
  </outline>
</glyph>
<glyph name="V" format="1">
  <advance width="737"/>
  <unicode hex="0056"/>
  <outline>
    <contour>
      <point x="671" y="647" type="line" smooth="yes" name="hr00"/>
      <point x="671" y="701" smooth="yes"/>
      <point x="650" y="710" smooth="yes"/>
      <point x="584" y="710" type="curve" smooth="yes"/>
      <point x="557" y="710" type="line"/>
      <point x="557" y="400" type="line"/>
      <point x="503" y="158"/>
      <point x="380" y="80"/>
      <point x="250" y="80" type="curve"/>
      <point x="250" y="690" type="line" smooth="yes"/>
      <point x="250" y="701" smooth="yes"/>
      <point x="241" y="710" smooth="yes"/>
      <point x="230" y="710" type="curve" smooth="yes"/>
      <point x="180" y="710" type="line" smooth="yes"/>
      <point x="169" y="710" smooth="yes"/>
      <point x="160" y="701" smooth="yes"/>
      <point x="160" y="690" type="curve" smooth="yes"/>
      <point x="160" y="90" type="line" smooth="yes"/>
      <point x="160" y="40" smooth="yes"/>
      <point x="180" y="0" smooth="yes"/>
      <point x="250" y="0" type="curve" smooth="yes"/>
      <point x="857" y="0" type="line" smooth="yes"/>
      <point x="892" y="0"/>
      <point x="927" y="12"/>
      <point x="927" y="70" type="curve"/>
      <point x="458" y="70" type="line"/>
      <point x="572" y="150" smooth="yes"/>
      <point x="668" y="318" smooth="yes"/>
      <point x="671" y="638" type="curve" smooth="yes"/>
    </contour>
  </outline>
</glyph>
<glyph name="W" format="1">
  <advance width="1138"/>
  <unicode hex="0057"/>
  <outline>
    <contour>
      <point x="1072" y="647" type="line" smooth="yes"/>
      <point x="1072" y="701" smooth="yes"/>
      <point x="1051" y="710" smooth="yes"/>
      <point x="985" y="710" type="curve" smooth="yes"/>
      <point x="958" y="710" type="line"/>
      <point x="958" y="387" type="line"/>
      <point x="904" y="155"/>
      <point x="786" y="80"/>
      <point x="661" y="80" type="curve"/>
      <point x="661" y="519" type="line"/>
      <point x="673" y="549" smooth="yes"/>
      <point x="682" y="583" smooth="yes"/>
      <point x="682" y="619" type="curve" smooth="yes"/>
      <point x="682" y="682" smooth="yes"/>
      <point x="656" y="710" smooth="yes"/>
      <point x="601" y="710" type="curve" smooth="yes"/>
      <point x="571" y="710" type="line"/>
      <point x="571" y="647" type="line" smooth="yes"/>
      <point x="571" y="368"/>
      <point x="335" y="70"/>
      <point x="250" y="70" type="curve"/>
      <point x="250" y="690" type="line" smooth="yes"/>
      <point x="250" y="701" smooth="yes"/>
      <point x="241" y="710" smooth="yes"/>
      <point x="230" y="710" type="curve" smooth="yes"/>
      <point x="180" y="710" type="line" smooth="yes"/>
      <point x="169" y="710" smooth="yes"/>
      <point x="160" y="701" smooth="yes"/>
      <point x="160" y="690" type="curve" smooth="yes"/>
      <point x="160" y="80" type="line" smooth="yes"/>
      <point x="160" y="30" smooth="yes"/>
      <point x="180" y="-10" smooth="yes"/>
      <point x="250" y="-10" type="curve" smooth="yes" name="hr01"/>
      <point x="356" y="-10"/>
      <point x="489" y="150"/>
      <point x="571" y="337" type="curve"/>
      <point x="571" y="90" type="line" smooth="yes"/>
      <point x="571" y="40" smooth="yes"/>
      <point x="591" y="0" smooth="yes"/>
      <point x="661" y="0" type="curve" smooth="yes" name="hr02"/>
      <point x="1258" y="0" type="line" smooth="yes"/>
      <point x="1293" y="0"/>
      <point x="1328" y="12"/>
      <point x="1328" y="70" type="curve"/>
      <point x="865" y="70" type="line"/>
      <point x="977" y="150" smooth="yes"/>
      <point x="1071" y="318" smooth="yes"/>
      <point x="1072" y="640" type="curve" smooth="yes"/>
    </contour>
  </outline>
</glyph>
<glyph name="Y" format="1">
  <advance width="817"/>
  <unicode hex="0059"/>
  <outline>
    <contour>
      <point x="587" y="347" type="curve"/>
      <point x="587" y="30" type="line" smooth="yes"/>
      <point x="587" y="-206" smooth="yes"/>
      <point x="535" y="-230" smooth="yes"/>
      <point x="410" y="-230" type="curve" smooth="yes"/>
      <point x="354" y="-230" type="line"/>
      <point x="354" y="-241" type="line" smooth="yes"/>
      <point x="354" y="-290" smooth="yes"/>
      <point x="368" y="-310" smooth="yes"/>
      <point x="410" y="-310" type="curve" smooth="yes"/>
      <point x="592" y="-310"/>
      <point x="670" y="-246"/>
      <point x="676" y="0" type="curve"/>
      <point x="937" y="0" type="line" smooth="yes"/>
      <point x="972" y="0"/>
      <point x="1007" y="12"/>
      <point x="1007" y="70" type="curve"/>
      <point x="677" y="70" type="line"/>
      <point x="677" y="519" type="line"/>
      <point x="689" y="549" smooth="yes"/>
      <point x="698" y="583" smooth="yes"/>
      <point x="698" y="619" type="curve" smooth="yes"/>
      <point x="698" y="679" smooth="yes"/>
      <point x="674" y="710" smooth="yes"/>
      <point x="623" y="710" type="curve" smooth="yes"/>
      <point x="587" y="710" type="line"/>
      <point x="587" y="647" type="line" smooth="yes"/>
      <point x="587" y="368"/>
      <point x="335" y="70"/>
      <point x="250" y="70" type="curve"/>
      <point x="250" y="690" type="line" smooth="yes"/>
      <point x="250" y="701" smooth="yes"/>
      <point x="241" y="710" smooth="yes"/>
      <point x="230" y="710" type="curve" smooth="yes"/>
      <point x="180" y="710" type="line" smooth="yes"/>
      <point x="169" y="710" smooth="yes"/>
      <point x="160" y="701" smooth="yes"/>
      <point x="160" y="690" type="curve" smooth="yes"/>
      <point x="160" y="80" type="line" smooth="yes"/>
      <point x="160" y="30" smooth="yes"/>
      <point x="180" y="-10" smooth="yes"/>
      <point x="250" y="-10" type="curve" smooth="yes" name="hr01"/>
      <point x="358" y="-10"/>
      <point x="501" y="156"/>
    </contour>
  </outline>
</glyph>
<glyph name="backslash" format="1">
  <advance width="440"/>
  <unicode hex="005C"/>
  <outline>
    <contour>
      <point x="100" y="760" type="line" name="hr00"/>
      <point x="129" y="760" type="line" smooth="yes"/>
      <point x="172" y="760" smooth="yes"/>
      <point x="191" y="755" smooth="yes"/>
      <point x="206" y="700" type="curve" smooth="yes"/>
      <point x="393" y="0" type="line"/>
      <point x="364" y="0" type="line" smooth="yes"/>
      <point x="315" y="0" smooth="yes"/>
      <point x="300" y="12" smooth="yes"/>
      <point x="287" y="60" type="curve" smooth="yes"/>
    </contour>
  </outline>
</glyph>
<glyph name="asciicircum" format="1">
  <advance width="460"/>
  <unicode hex="005E"/>
  <outline>
    <contour>
      <point x="311" y="617" type="line" name="hr00"/>
      <point x="389" y="481" type="line" smooth="yes"/>
      <point x="395" y="471" smooth="yes"/>
      <point x="405" y="463" smooth="yes"/>
      <point x="420" y="463" type="curve" smooth="yes"/>
      <point x="433" y="463"/>
      <point x="450" y="468"/>
      <point x="475" y="479" type="curve"/>
      <point x="357" y="691" type="line" smooth="yes"/>
      <point x="347" y="708" smooth="yes"/>
      <point x="333" y="720" smooth="yes"/>
      <point x="311" y="720" type="curve" smooth="yes"/>
      <point x="289" y="720" smooth="yes"/>
      <point x="275" y="708" smooth="yes"/>
      <point x="265" y="691" type="curve" smooth="yes"/>
      <point x="147" y="479" type="line"/>
      <point x="172" y="468" smooth="yes"/>
      <point x="189" y="463" smooth="yes"/>
      <point x="202" y="463" type="curve" smooth="yes"/>
      <point x="217" y="463" smooth="yes"/>
      <point x="227" y="471" smooth="yes"/>
      <point x="233" y="481" type="curve" smooth="yes"/>
    </contour>
  </outline>
</glyph>
<glyph name="underscore" format="1">
  <advance width="617"/>
  <unicode hex="005F"/>
  <outline>
    <contour>
      <point x="280" y="0" type="line" name="hr00"/>
      <point x="280" y="-58" smooth="yes"/>
      <point x="315" y="-70" smooth="yes"/>
      <point x="350" y="-70" type="curve" smooth="yes"/>
      <point x="637" y="-70" type="line" smooth="yes"/>
      <point x="672" y="-70"/>
      <point x="707" y="-58"/>
      <point x="707" y="0" type="curve"/>
    </contour>
  </outline>
</glyph>
<glyph name="a" format="1">
  <advance width="777"/>
  <unicode hex="0061"/>
  <outline>
    <contour>
      <point x="280" y="331" type="line" smooth="yes"/>
      <point x="280" y="446" smooth="yes"/>
      <point x="322" y="470" smooth="yes"/>
      <point x="417" y="470" type="curve" smooth="yes"/>
      <point x="506" y="470" type="line"/>
      <point x="506" y="480" type="line" smooth="yes"/>
      <point x="506" y="530" smooth="yes"/>
      <point x="474" y="550" smooth="yes"/>
      <point x="417" y="550" type="curve" smooth="yes"/>
      <point x="251" y="550" smooth="yes"/>
      <point x="190" y="481" smooth="yes"/>
      <point x="190" y="331" type="curve" smooth="yes"/>
      <point x="190" y="85" type="line" smooth="yes"/>
      <point x="190" y="35" smooth="yes"/>
      <point x="210" y="-5" smooth="yes"/>
      <point x="280" y="-5" type="curve" smooth="yes"/>
      <point x="375" y="-5"/>
      <point x="485" y="74"/>
      <point x="556" y="198" type="curve"/>
      <point x="556" y="60" type="line" smooth="yes"/>
      <point x="556" y="10" smooth="yes"/>
      <point x="587" y="0" smooth="yes"/>
      <point x="617" y="0" type="curve" smooth="yes" name="hr01"/>
      <point x="897" y="0" type="line" smooth="yes"/>
      <point x="932" y="0"/>
      <point x="967" y="12"/>
      <point x="967" y="70" type="curve" name="hr02"/>
      <point x="646" y="70" type="line"/>
      <point x="646" y="349" type="line"/>
      <point x="658" y="379" smooth="yes"/>
      <point x="667" y="413" smooth="yes"/>
      <point x="667" y="449" type="curve" smooth="yes"/>
      <point x="667" y="509" smooth="yes"/>
      <point x="643" y="540" smooth="yes"/>
      <point x="592" y="540" type="curve" smooth="yes"/>
      <point x="556" y="540" type="line"/>
      <point x="556" y="477" type="line" smooth="yes"/>
      <point x="556" y="198"/>
      <point x="375" y="75"/>
      <point x="280" y="75" type="curve"/>
    </contour>
  </outline>
</glyph>
<glyph name="b" format="1">
  <advance width="786"/>
  <unicode hex="0062"/>
  <outline>
    <contour>
      <point x="280" y="0" type="line" name="hr00"/>
      <point x="280" y="63" type="line" smooth="yes"/>
      <point x="280" y="342"/>
      <point x="482" y="480"/>
      <point x="577" y="480" type="curve"/>
      <point x="577" y="219" type="line" smooth="yes"/>
      <point x="577" y="165" smooth="yes"/>
      <point x="539" y="70" smooth="yes"/>
      <point x="440" y="70" type="curve" smooth="yes"/>
      <point x="342" y="70" type="line"/>
      <point x="342" y="60" type="line" smooth="yes"/>
      <point x="342" y="10" smooth="yes"/>
      <point x="372" y="0" smooth="yes"/>
      <point x="402" y="0" type="curve" smooth="yes"/>
      <point x="906" y="0" type="line" smooth="yes"/>
      <point x="941" y="0"/>
      <point x="976" y="12"/>
      <point x="976" y="70" type="curve"/>
      <point x="590" y="70" type="line"/>
      <point x="650" y="106" smooth="yes"/>
      <point x="667" y="163" smooth="yes"/>
      <point x="667" y="219" type="curve" smooth="yes"/>
      <point x="667" y="470" type="line" smooth="yes"/>
      <point x="667" y="520" smooth="yes"/>
      <point x="647" y="560" smooth="yes"/>
      <point x="577" y="560" type="curve" smooth="yes"/>
      <point x="474" y="560"/>
      <point x="355" y="475"/>
      <point x="280" y="346" type="curve"/>
      <point x="280" y="740" type="line" smooth="yes"/>
      <point x="280" y="751" smooth="yes"/>
      <point x="271" y="760" smooth="yes"/>
      <point x="260" y="760" type="curve" smooth="yes"/>
      <point x="210" y="760" type="line" smooth="yes"/>
      <point x="199" y="760" smooth="yes"/>
      <point x="190" y="751" smooth="yes"/>
      <point x="190" y="740" type="curve" smooth="yes"/>
      <point x="190" y="191" type="line"/>
      <point x="177" y="160" smooth="yes"/>
      <point x="169" y="127" smooth="yes"/>
      <point x="169" y="91" type="curve" smooth="yes"/>
      <point x="169" y="28" smooth="yes"/>
      <point x="195" y="0" smooth="yes"/>
      <point x="250" y="0" type="curve" smooth="yes"/>
    </contour>
  </outline>
</glyph>
<glyph name="h" format="1">
  <advance width="787"/>
  <unicode hex="0068"/>
  <outline>
    <contour>
      <point x="280" y="0" type="line" name="hr00"/>
      <point x="280" y="63" type="line" smooth="yes"/>
      <point x="280" y="342"/>
      <point x="472" y="480"/>
      <point x="567" y="480" type="curve"/>
      <point x="567" y="60" type="line" smooth="yes"/>
      <point x="567" y="10" smooth="yes"/>
      <point x="597" y="0" smooth="yes"/>
      <point x="627" y="0" type="curve" smooth="yes"/>
      <point x="907" y="0" type="line" smooth="yes"/>
      <point x="942" y="0"/>
      <point x="977" y="12"/>
      <point x="977" y="70" type="curve"/>
      <point x="657" y="70" type="line"/>
      <point x="657" y="470" type="line" smooth="yes"/>
      <point x="657" y="520" smooth="yes"/>
      <point x="637" y="560" smooth="yes"/>
      <point x="567" y="560" type="curve" smooth="yes"/>
      <point x="470" y="560"/>
      <point x="354" y="472"/>
      <point x="280" y="340" type="curve"/>
      <point x="280" y="740" type="line" smooth="yes"/>
      <point x="280" y="751" smooth="yes"/>
      <point x="271" y="760" smooth="yes"/>
      <point x="260" y="760" type="curve" smooth="yes"/>
      <point x="210" y="760" type="line" smooth="yes"/>
      <point x="199" y="760" smooth="yes"/>
      <point x="190" y="751" smooth="yes"/>
      <point x="190" y="740" type="curve" smooth="yes"/>
      <point x="190" y="191" type="line"/>
      <point x="177" y="160" smooth="yes"/>
      <point x="169" y="127" smooth="yes"/>
      <point x="169" y="91" type="curve" smooth="yes"/>
      <point x="169" y="30" smooth="yes"/>
      <point x="193" y="0" smooth="yes"/>
      <point x="244" y="0" type="curve" smooth="yes"/>
    </contour>
  </outline>
</glyph>
<glyph name="q" format="1">
  <advance width="776"/>
  <unicode hex="0071"/>
  <outline>
    <contour>
      <point x="280" y="331" type="line" smooth="yes"/>
      <point x="280" y="446" smooth="yes"/>
      <point x="322" y="470" smooth="yes"/>
      <point x="417" y="470" type="curve" smooth="yes"/>
      <point x="506" y="470" type="line"/>
      <point x="506" y="480" type="line" smooth="yes"/>
      <point x="506" y="530" smooth="yes"/>
      <point x="474" y="550" smooth="yes"/>
      <point x="417" y="550" type="curve" smooth="yes"/>
      <point x="251" y="550" smooth="yes"/>
      <point x="190" y="481" smooth="yes"/>
      <point x="190" y="331" type="curve" smooth="yes"/>
      <point x="190" y="85" type="line" smooth="yes"/>
      <point x="190" y="35" smooth="yes"/>
      <point x="210" y="-5" smooth="yes"/>
      <point x="280" y="-5" type="curve" smooth="yes"/>
      <point x="375" y="-5"/>
      <point x="485" y="74"/>
      <point x="556" y="198" type="curve"/>
      <point x="556" y="38" type="line"/>
      <point x="538" y="-52" smooth="yes"/>
      <point x="524" y="-145" smooth="yes"/>
      <point x="524" y="-215" type="curve" smooth="yes"/>
      <point x="524" y="-278" smooth="yes"/>
      <point x="555" y="-300" smooth="yes"/>
      <point x="629" y="-300" type="curve" smooth="yes"/>
      <point x="646" y="-300" type="line"/>
      <point x="646" y="0" type="line" name="hr01"/>
      <point x="896" y="0" type="line" smooth="yes"/>
      <point x="931" y="0"/>
      <point x="966" y="12"/>
      <point x="966" y="70" type="curve" name="hr02"/>
      <point x="646" y="70" type="line"/>
      <point x="646" y="349" type="line"/>
      <point x="658" y="379" smooth="yes"/>
      <point x="667" y="413" smooth="yes"/>
      <point x="667" y="449" type="curve" smooth="yes"/>
      <point x="667" y="509" smooth="yes"/>
      <point x="643" y="540" smooth="yes"/>
      <point x="592" y="540" type="curve" smooth="yes"/>
      <point x="556" y="540" type="line"/>
      <point x="556" y="477" type="line" smooth="yes"/>
      <point x="556" y="198"/>
      <point x="375" y="75"/>
      <point x="280" y="75" type="curve"/>
    </contour>
  </outline>
</glyph>
<glyph name="t" format="1">
  <advance width="441"/>
  <unicode hex="0074"/>
  <outline>
    <contour>
      <point x="381" y="460" type="line" smooth="yes" name="hr00"/>
      <point x="416" y="460"/>
      <point x="451" y="482"/>
      <point x="451" y="540" type="curve"/>
      <point x="281" y="540" type="line"/>
      <point x="281" y="680" type="line"/>
      <point x="280" y="691" smooth="yes"/>
      <point x="271" y="700" smooth="yes"/>
      <point x="260" y="700" type="curve" smooth="yes"/>
      <point x="210" y="700" type="line" smooth="yes"/>
      <point x="199" y="700" smooth="yes"/>
      <point x="190" y="691" smooth="yes"/>
      <point x="190" y="680" type="curve" smooth="yes"/>
      <point x="190" y="540" type="line"/>
      <point x="130" y="540" type="line" smooth="yes"/>
      <point x="95" y="540"/>
      <point x="60" y="518"/>
      <point x="60" y="460" type="curve"/>
      <point x="190" y="460" type="line"/>
      <point x="190" y="60" type="line" smooth="yes"/>
      <point x="190" y="10" smooth="yes"/>
      <point x="221" y="0" smooth="yes"/>
      <point x="251" y="0" type="curve" smooth="yes"/>
      <point x="561" y="0" type="line" smooth="yes"/>
      <point x="596" y="0"/>
      <point x="631" y="12"/>
      <point x="631" y="70" type="curve"/>
      <point x="281" y="70" type="line"/>
      <point x="281" y="460" type="line"/>
    </contour>
  </outline>
</glyph>
<glyph name="w" format="1">
  <advance width="1009"/>
  <unicode hex="0077"/>
  <outline>
    <contour>
      <point x="829" y="532" type="curve" smooth="yes" name="hr00"/>
      <point x="829" y="497"/>
      <point x="854" y="468"/>
      <point x="887" y="461" type="curve"/>
      <point x="868" y="190"/>
      <point x="747" y="96"/>
      <point x="625" y="82" type="curve"/>
      <point x="625" y="324" type="line"/>
      <point x="643" y="361" smooth="yes"/>
      <point x="657" y="403" smooth="yes"/>
      <point x="657" y="449" type="curve" smooth="yes"/>
      <point x="657" y="512" smooth="yes"/>
      <point x="631" y="540" smooth="yes"/>
      <point x="576" y="540" type="curve" smooth="yes"/>
      <point x="535" y="540" type="line"/>
      <point x="535" y="227"/>
      <point x="446" y="101"/>
      <point x="280" y="82" type="curve"/>
      <point x="280" y="520" type="line" smooth="yes"/>
      <point x="280" y="531" smooth="yes"/>
      <point x="270" y="540" smooth="yes"/>
      <point x="259" y="540" type="curve" smooth="yes"/>
      <point x="210" y="540" type="line" smooth="yes"/>
      <point x="199" y="540" smooth="yes"/>
      <point x="190" y="531" smooth="yes"/>
      <point x="190" y="520" type="curve" smooth="yes"/>
      <point x="190" y="54" type="line" smooth="yes"/>
      <point x="190" y="27" smooth="yes"/>
      <point x="199" y="0" smooth="yes"/>
      <point x="244" y="0" type="curve" smooth="yes"/>
      <point x="385" y="0"/>
      <point x="478" y="64"/>
      <point x="535" y="161" type="curve"/>
      <point x="535" y="54" type="line" smooth="yes"/>
      <point x="535" y="27" smooth="yes"/>
      <point x="544" y="0" smooth="yes"/>
      <point x="589" y="0" type="curve" smooth="yes"/>
      <point x="841" y="0"/>
      <point x="959" y="222"/>
      <point x="972" y="460" type="curve"/>
      <point x="1206" y="460" type="line" smooth="yes"/>
      <point x="1241" y="460"/>
      <point x="1276" y="482"/>
      <point x="1276" y="540" type="curve"/>
      <point x="973" y="540" type="line"/>
      <point x="969" y="576" smooth="yes"/>
      <point x="938" y="605" smooth="yes"/>
      <point x="901" y="605" type="curve" smooth="yes"/>
      <point x="861" y="605" smooth="yes"/>
      <point x="829" y="572" smooth="yes"/>
    </contour>
  </outline>
</glyph>
<glyph name="z" format="1">
  <advance width="500"/>
  <unicode hex="007A"/>
  <outline>
    <contour>
      <point x="62" y="60" type="line" smooth="yes" name="hr00"/>
      <point x="50" y="45" smooth="yes"/>
      <point x="40" y="30" smooth="yes"/>
      <point x="40" y="21" type="curve" smooth="yes"/>
      <point x="40" y="2" smooth="yes"/>
      <point x="48" y="0" smooth="yes"/>
      <point x="73" y="0" type="curve" smooth="yes"/>
      <point x="620" y="0" type="line" smooth="yes"/>
      <point x="655" y="0"/>
      <point x="690" y="12"/>
      <point x="690" y="70" type="curve"/>
      <point x="174" y="70" type="line"/>
      <point x="516" y="480" type="line" smooth="yes"/>
      <point x="528" y="495" smooth="yes"/>
      <point x="538" y="510" smooth="yes"/>
      <point x="538" y="519" type="curve" smooth="yes"/>
      <point x="538" y="538" smooth="yes"/>
      <point x="521" y="540" smooth="yes"/>
      <point x="496" y="540" type="curve" smooth="yes"/>
      <point x="78" y="540" type="line"/>
      <point x="78" y="482" smooth="yes"/>
      <point x="113" y="460" smooth="yes"/>
      <point x="148" y="460" type="curve" smooth="yes"/>
      <point x="394" y="460" type="line"/>
    </contour>
  </outline>
</glyph>
<glyph name="braceleft" format="1">
  <advance width="271"/>
  <unicode hex="007B"/>
  <outline>
    <contour>
      <point x="71" y="359" type="line" name="hr00"/>
      <point x="116" y="364" smooth="yes"/>
      <point x="140" y="401" smooth="yes"/>
      <point x="140" y="431" type="curve" smooth="yes"/>
      <point x="140" y="690" type="line"/>
      <point x="200" y="690" type="line" smooth="yes"/>
      <point x="235" y="690"/>
      <point x="270" y="702"/>
      <point x="270" y="760" type="curve"/>
      <point x="50" y="760" type="line"/>
      <point x="50" y="523" type="line" smooth="yes"/>
      <point x="50" y="417" smooth="yes"/>
      <point x="41" y="390" smooth="yes"/>
      <point x="6" y="390" type="curve" smooth="yes"/>
      <point x="-5" y="390" smooth="yes"/>
      <point x="-14" y="381" smooth="yes"/>
      <point x="-14" y="370" type="curve" smooth="yes"/>
      <point x="-14" y="340" type="line" smooth="yes"/>
      <point x="-14" y="329" smooth="yes"/>
      <point x="-5" y="320" smooth="yes"/>
      <point x="6" y="320" type="curve" smooth="yes"/>
      <point x="41" y="320" smooth="yes"/>
      <point x="50" y="293" smooth="yes"/>
      <point x="50" y="187" type="curve" smooth="yes"/>
      <point x="50" y="-50" type="line"/>
      <point x="270" y="-50" type="line"/>
      <point x="270" y="8" smooth="yes"/>
      <point x="235" y="20" smooth="yes"/>
      <point x="200" y="20" type="curve" smooth="yes"/>
      <point x="140" y="20" type="line"/>
      <point x="140" y="279" type="line" smooth="yes"/>
      <point x="140" y="309"/>
      <point x="116" y="346"/>
      <point x="71" y="351" type="curve"/>
    </contour>
  </outline>
</glyph>
<glyph name="braceright" format="1">
  <advance width="470"/>
  <unicode hex="007D"/>
  <outline>
    <contour>
      <point x="399" y="359" type="line" name="hr00"/>
      <point x="354" y="364" smooth="yes"/>
      <point x="330" y="401" smooth="yes"/>
      <point x="330" y="431" type="curve" smooth="yes"/>
      <point x="330" y="690" type="line"/>
      <point x="270" y="690" type="line" smooth="yes"/>
      <point x="235" y="690"/>
      <point x="200" y="702"/>
      <point x="200" y="760" type="curve"/>
      <point x="420" y="760" type="line"/>
      <point x="420" y="523" type="line" smooth="yes"/>
      <point x="420" y="417" smooth="yes"/>
      <point x="429" y="390" smooth="yes"/>
      <point x="464" y="390" type="curve" smooth="yes"/>
      <point x="475" y="390" smooth="yes"/>
      <point x="484" y="381" smooth="yes"/>
      <point x="484" y="370" type="curve" smooth="yes"/>
      <point x="484" y="340" type="line" smooth="yes"/>
      <point x="484" y="329" smooth="yes"/>
      <point x="475" y="320" smooth="yes"/>
      <point x="464" y="320" type="curve" smooth="yes"/>
      <point x="429" y="320" smooth="yes"/>
      <point x="420" y="293" smooth="yes"/>
      <point x="420" y="187" type="curve" smooth="yes"/>
      <point x="420" y="-50" type="line"/>
      <point x="200" y="-50" type="line"/>
      <point x="200" y="8" smooth="yes"/>
      <point x="235" y="20" smooth="yes"/>
      <point x="270" y="20" type="curve" smooth="yes"/>
      <point x="330" y="20" type="line"/>
      <point x="330" y="279" type="line" smooth="yes"/>
      <point x="330" y="309"/>
      <point x="354" y="346"/>
      <point x="399" y="351" type="curve"/>
    </contour>
  </outline>
</glyph>
<glyph name="asciitilde" format="1">
  <advance width="460"/>
  <unicode hex="007E"/>
  <outline>
    <contour>
      <point x="490" y="330" type="line" smooth="yes"/>
      <point x="490" y="370" smooth="yes"/>
      <point x="481" y="394" smooth="yes"/>
      <point x="418" y="394" type="curve" smooth="yes"/>
      <point x="346" y="394" smooth="yes"/>
      <point x="277" y="355" smooth="yes"/>
      <point x="207" y="355" type="curve" smooth="yes" name="hr01"/>
      <point x="181" y="355"/>
      <point x="156" y="360"/>
      <point x="130" y="374" type="curve"/>
      <point x="130" y="342" type="line" smooth="yes"/>
      <point x="130" y="302" smooth="yes"/>
      <point x="139" y="278" smooth="yes"/>
      <point x="202" y="278" type="curve" smooth="yes"/>
      <point x="274" y="278" smooth="yes"/>
      <point x="343" y="317" smooth="yes"/>
      <point x="413" y="317" type="curve" smooth="yes" name="hr02"/>
      <point x="439" y="317"/>
      <point x="464" y="312"/>
      <point x="490" y="298" type="curve"/>
    </contour>
  </outline>
</glyph>
<glyph name="cent" format="1">
  <advance width="600"/>
  <unicode hex="00A2"/>
  <outline>
    <contour>
      <point x="374" y="760" type="line" name="hr00"/>
      <point x="365" y="760" type="line" smooth="yes"/>
      <point x="322" y="760" smooth="yes"/>
      <point x="304" y="755" smooth="yes"/>
      <point x="304" y="700" type="curve" smooth="yes"/>
      <point x="304" y="620" type="line"/>
      <point x="166" y="582" smooth="yes"/>
      <point x="94" y="467" smooth="yes"/>
      <point x="94" y="275" type="curve" smooth="yes"/>
      <point x="94" y="119"/>
      <point x="108" y="78"/>
      <point x="304" y="75" type="curve"/>
      <point x="304" y="-50" type="line"/>
      <point x="313" y="-50" type="line" smooth="yes"/>
      <point x="362" y="-50" smooth="yes"/>
      <point x="374" y="-38" smooth="yes"/>
      <point x="374" y="10" type="curve" smooth="yes"/>
      <point x="374" y="75" type="line"/>
      <point x="436" y="75" type="line" smooth="yes"/>
      <point x="471" y="75"/>
      <point x="506" y="87"/>
      <point x="506" y="145" type="curve"/>
      <point x="374" y="145" type="line"/>
      <point x="374" y="550" type="line"/>
      <point x="395" y="553" smooth="yes"/>
      <point x="417" y="555" smooth="yes"/>
      <point x="442" y="555" type="curve" smooth="yes"/>
      <point x="493" y="555" type="line"/>
      <point x="490" y="603" smooth="yes"/>
      <point x="498" y="635" smooth="yes"/>
      <point x="420" y="635" type="curve" smooth="yes"/>
      <point x="404" y="635"/>
      <point x="389" y="634"/>
      <point x="374" y="633" type="curve"/>
    </contour>
    <contour>
      <point x="185" y="275" type="curve" smooth="yes"/>
      <point x="185" y="421"/>
      <point x="222" y="499"/>
      <point x="304" y="533" type="curve"/>
      <point x="304" y="145" type="line"/>
      <point x="192" y="146" smooth="yes"/>
      <point x="185" y="164" smooth="yes"/>
    </contour>
  </outline>
</glyph>
<glyph name="brokenbar" format="1">
  <advance width="500"/>
  <unicode hex="00A6"/>
  <outline>
    <contour>
      <point x="320" y="760" type="line" name="hr00"/>
      <point x="311" y="760" type="line" smooth="yes"/>
      <point x="268" y="760" smooth="yes"/>
      <point x="250" y="755" smooth="yes"/>
      <point x="250" y="700" type="curve" smooth="yes"/>
      <point x="250" y="455" type="line"/>
      <point x="259" y="455" type="line" smooth="yes"/>
      <point x="308" y="455" smooth="yes"/>
      <point x="320" y="467" smooth="yes"/>
      <point x="320" y="515" type="curve" smooth="yes"/>
    </contour>
    <contour>
      <point x="320" y="255" type="line"/>
      <point x="311" y="255" type="line" smooth="yes"/>
      <point x="268" y="255" smooth="yes"/>
      <point x="250" y="250" smooth="yes"/>
      <point x="250" y="195" type="curve" smooth="yes"/>
      <point x="250" y="-50" type="line"/>
      <point x="259" y="-50" type="line" smooth="yes"/>
      <point x="308" y="-50" smooth="yes"/>
      <point x="320" y="-38" smooth="yes"/>
      <point x="320" y="10" type="curve" smooth="yes"/>
    </contour>
  </outline>
</glyph>
<glyph name="copyright" format="1">
  <advance width="775"/>
  <unicode hex="00A9"/>
  <outline>
    <contour>
      <point x="619" y="643" type="curve" smooth="yes" name="hr00"/>
      <point x="619" y="688" smooth="yes"/>
      <point x="605" y="720" smooth="yes"/>
      <point x="543" y="720" type="curve" smooth="yes"/>
      <point x="412" y="720" smooth="yes"/>
      <point x="343" y="648" smooth="yes"/>
      <point x="343" y="501" type="curve" smooth="yes"/>
      <point x="343" y="399" smooth="yes"/>
      <point x="352" y="355" smooth="yes"/>
      <point x="488" y="355" type="curve" smooth="yes"/>
      <point x="570" y="355" type="line" smooth="yes"/>
      <point x="594" y="355"/>
      <point x="619" y="365"/>
      <point x="619" y="414" type="curve"/>
      <point x="488" y="414" type="line" smooth="yes"/>
      <point x="418" y="414" smooth="yes"/>
      <point x="414" y="439" smooth="yes"/>
      <point x="414" y="501" type="curve" smooth="yes"/>
      <point x="414" y="616"/>
      <point x="454" y="654"/>
      <point x="546" y="656" type="curve"/>
      <point x="546" y="564" type="line"/>
      <point x="608" y="564" smooth="yes"/>
      <point x="619" y="598" smooth="yes"/>
    </contour>
    <contour>
      <point x="260" y="492" type="line" smooth="yes"/>
      <point x="260" y="748"/>
      <point x="348" y="760"/>
      <point x="715" y="760" type="curve"/>
      <point x="715" y="567" type="line" smooth="yes"/>
      <point x="715" y="311"/>
      <point x="627" y="290"/>
      <point x="260" y="290" type="curve"/>
    </contour>
    <contour>
      <point x="775" y="769" type="line" smooth="yes"/>
      <point x="775" y="813" smooth="yes"/>
      <point x="754" y="829" smooth="yes"/>
      <point x="715" y="829" type="curve" smooth="yes"/>
      <point x="302" y="829" smooth="yes"/>
      <point x="200" y="789" smooth="yes"/>
      <point x="200" y="492" type="curve" smooth="yes"/>
      <point x="200" y="290" type="line" smooth="yes"/>
      <point x="200" y="246" smooth="yes"/>
      <point x="221" y="230" smooth="yes"/>
      <point x="260" y="230" type="curve" smooth="yes"/>
      <point x="673" y="230" smooth="yes"/>
      <point x="775" y="270" smooth="yes"/>
      <point x="775" y="567" type="curve" smooth="yes"/>
    </contour>
  </outline>
</glyph>
<glyph name="ordfeminine" format="1">
  <advance width="494"/>
  <unicode hex="00AA"/>
  <outline>
    <contour>
      <point x="169" y="584" type="line" smooth="yes"/>
      <point x="169" y="644" smooth="yes"/>
      <point x="191" y="656" smooth="yes"/>
      <point x="240" y="656" type="curve" smooth="yes"/>
      <point x="278" y="656" type="line"/>
      <point x="278" y="670" type="line" smooth="yes"/>
      <point x="278" y="705" smooth="yes"/>
      <point x="269" y="720" smooth="yes"/>
      <point x="240" y="720" type="curve" smooth="yes"/>
      <point x="137" y="720" smooth="yes"/>
      <point x="100" y="677" smooth="yes"/>
      <point x="100" y="584" type="curve" smooth="yes"/>
      <point x="100" y="414" type="line" smooth="yes"/>
      <point x="100" y="380" smooth="yes"/>
      <point x="113" y="353" smooth="yes"/>
      <point x="161" y="353" type="curve" smooth="yes"/>
      <point x="211" y="353"/>
      <point x="270" y="391"/>
      <point x="313" y="455" type="curve"/>
      <point x="313" y="400" type="line" smooth="yes"/>
      <point x="313" y="363" smooth="yes"/>
      <point x="334" y="356" smooth="yes"/>
      <point x="356" y="356" type="curve" smooth="yes"/>
      <point x="382" y="356" type="line"/>
      <point x="382" y="593" type="line"/>
      <point x="389" y="610" smooth="yes"/>
      <point x="394" y="632" smooth="yes"/>
      <point x="394" y="652" type="curve" smooth="yes" name="hr01"/>
      <point x="394" y="693" smooth="yes"/>
      <point x="377" y="714" smooth="yes"/>
      <point x="342" y="714" type="curve" smooth="yes"/>
      <point x="313" y="714" type="line"/>
      <point x="313" y="641" type="line" smooth="yes"/>
      <point x="313" y="495"/>
      <point x="224" y="426"/>
      <point x="169" y="418" type="curve"/>
    </contour>
  </outline>
</glyph>
<glyph name="guillemotleft" format="1">
  <advance width="502"/>
  <unicode hex="00AB"/>
  <outline>
    <contour>
      <point x="94" y="334" type="line" name="hr00"/>
      <point x="183" y="445" type="line" smooth="yes"/>
      <point x="190" y="452" smooth="yes"/>
      <point x="202" y="466" smooth="yes"/>
      <point x="202" y="482" type="curve" smooth="yes"/>
      <point x="202" y="496"/>
      <point x="184" y="520"/>
      <point x="164" y="540" type="curve"/>
      <point x="24" y="382" type="line" smooth="yes"/>
      <point x="9" y="367" smooth="yes"/>
      <point x="0" y="349" smooth="yes"/>
      <point x="0" y="334" type="curve" smooth="yes"/>
      <point x="0" y="319" smooth="yes"/>
      <point x="9" y="300" smooth="yes"/>
      <point x="24" y="286" type="curve" smooth="yes"/>
      <point x="164" y="129" type="line"/>
      <point x="184" y="149" smooth="yes"/>
      <point x="202" y="173" smooth="yes"/>
      <point x="202" y="187" type="curve" smooth="yes"/>
      <point x="202" y="203" smooth="yes"/>
      <point x="190" y="217" smooth="yes"/>
      <point x="183" y="224" type="curve" smooth="yes"/>
    </contour>
    <contour>
      <point x="294" y="334" type="line"/>
      <point x="383" y="445" type="line" smooth="yes"/>
      <point x="390" y="452" smooth="yes"/>
      <point x="402" y="466" smooth="yes"/>
      <point x="402" y="482" type="curve" smooth="yes"/>
      <point x="402" y="496"/>
      <point x="384" y="520"/>
      <point x="364" y="540" type="curve"/>
      <point x="224" y="382" type="line" smooth="yes"/>
      <point x="209" y="367" smooth="yes"/>
      <point x="200" y="349" smooth="yes"/>
      <point x="200" y="334" type="curve" smooth="yes"/>
      <point x="200" y="319" smooth="yes"/>
      <point x="209" y="300" smooth="yes"/>
      <point x="224" y="286" type="curve" smooth="yes"/>
      <point x="364" y="129" type="line"/>
      <point x="384" y="149" smooth="yes"/>
      <point x="402" y="173" smooth="yes"/>
      <point x="402" y="187" type="curve" smooth="yes"/>
      <point x="402" y="203" smooth="yes"/>
      <point x="390" y="217" smooth="yes"/>
      <point x="383" y="224" type="curve" smooth="yes"/>
    </contour>
  </outline>
</glyph>
<glyph name="degree" format="1">
  <advance width="565"/>
  <unicode hex="00B0"/>
  <outline>
    <contour>
      <point x="465" y="700" type="line" name="hr00"/>
      <point x="465" y="744" smooth="yes"/>
      <point x="453" y="780" smooth="yes"/>
      <point x="390" y="780" type="curve" smooth="yes"/>
      <point x="178" y="780" smooth="yes"/>
      <point x="100" y="655" smooth="yes"/>
      <point x="100" y="459" type="curve" smooth="yes"/>
      <point x="100" y="427" type="line" smooth="yes"/>
      <point x="100" y="383" smooth="yes"/>
      <point x="112" y="347" smooth="yes"/>
      <point x="175" y="347" type="curve" smooth="yes"/>
      <point x="387" y="347" smooth="yes"/>
      <point x="465" y="472" smooth="yes"/>
      <point x="465" y="668" type="curve" smooth="yes"/>
    </contour>
    <contour>
      <point x="380" y="668" type="line" smooth="yes"/>
      <point x="380" y="520"/>
      <point x="344" y="423"/>
      <point x="185" y="423" type="curve"/>
      <point x="185" y="459" type="line" smooth="yes"/>
      <point x="185" y="607"/>
      <point x="221" y="704"/>
      <point x="380" y="704" type="curve"/>
    </contour>
  </outline>
</glyph>
<glyph name="plusminus" format="1">
  <advance width="460"/>
  <unicode hex="00B1"/>
  <outline>
    <contour>
      <point x="272" y="156" type="line" name="hr00"/>
      <point x="334" y="156" smooth="yes"/>
      <point x="347" y="163" smooth="yes"/>
      <point x="347" y="201" type="curve" smooth="yes"/>
      <point x="347" y="299" type="line"/>
      <point x="490" y="299" type="line"/>
      <point x="490" y="361" smooth="yes"/>
      <point x="483" y="374" smooth="yes"/>
      <point x="445" y="374" type="curve" smooth="yes"/>
      <point x="347" y="374" type="line"/>
      <point x="347" y="516" type="line"/>
      <point x="285" y="516" smooth="yes"/>
      <point x="272" y="509" smooth="yes"/>
      <point x="272" y="471" type="curve" smooth="yes"/>
      <point x="272" y="374" type="line"/>
      <point x="130" y="374" type="line"/>
      <point x="130" y="312" smooth="yes"/>
      <point x="137" y="299" smooth="yes"/>
      <point x="175" y="299" type="curve" smooth="yes"/>
      <point x="272" y="299" type="line"/>
    </contour>
    <contour>
      <point x="130" y="75" type="line"/>
      <point x="130" y="13" smooth="yes"/>
      <point x="137" y="0" smooth="yes"/>
      <point x="175" y="0" type="curve" smooth="yes"/>
      <point x="490" y="0" type="line"/>
      <point x="490" y="62" smooth="yes"/>
      <point x="483" y="75" smooth="yes"/>
      <point x="445" y="75" type="curve" smooth="yes"/>
    </contour>
  </outline>
</glyph>
<glyph name="twosuperior" format="1">
  <advance width="420"/>
  <unicode hex="00B2"/>
  <outline>
    <contour>
      <point x="74" y="744" type="line" name="hr00"/>
      <point x="74" y="724" type="line" smooth="yes"/>
      <point x="74" y="686" smooth="yes"/>
      <point x="94" y="680" smooth="yes"/>
      <point x="111" y="680" type="curve" smooth="yes"/>
      <point x="217" y="680" type="line" smooth="yes"/>
      <point x="256" y="680" smooth="yes"/>
      <point x="268" y="676" smooth="yes"/>
      <point x="268" y="648" type="curve" smooth="yes"/>
      <point x="267" y="580" smooth="yes"/>
      <point x="190" y="494" smooth="yes"/>
      <point x="113" y="412" type="curve" smooth="yes"/>
      <point x="65" y="361" type="line" smooth="yes"/>
      <point x="57" y="353"/>
      <point x="52" y="335"/>
      <point x="52" y="311" type="curve"/>
      <point x="306" y="311" type="line" smooth="yes"/>
      <point x="331" y="311"/>
      <point x="356" y="329"/>
      <point x="356" y="375" type="curve"/>
      <point x="166" y="375" type="line"/>
      <point x="239" y="451" smooth="yes"/>
      <point x="338" y="564" smooth="yes"/>
      <point x="338" y="648" type="curve" smooth="yes"/>
      <point x="338" y="730" smooth="yes"/>
      <point x="309" y="744" smooth="yes"/>
      <point x="217" y="744" type="curve" smooth="yes"/>
    </contour>
  </outline>
</glyph>
<glyph name="threesuperior" format="1">
  <advance width="420"/>
  <unicode hex="00B3"/>
  <outline>
    <contour>
      <point x="80" y="744" type="line"/>
      <point x="80" y="724" type="line" smooth="yes"/>
      <point x="80" y="686" smooth="yes"/>
      <point x="100" y="680" smooth="yes"/>
      <point x="117" y="680" type="curve" smooth="yes"/>
      <point x="215" y="680" type="line" smooth="yes"/>
      <point x="253" y="680" smooth="yes"/>
      <point x="265" y="677" smooth="yes"/>
      <point x="265" y="660" type="curve" smooth="yes"/>
      <point x="265" y="637" smooth="yes"/>
      <point x="244" y="568" smooth="yes"/>
      <point x="193" y="568" type="curve" smooth="yes"/>
      <point x="121" y="568" type="line"/>
      <point x="121" y="546" type="line" smooth="yes"/>
      <point x="121" y="517" smooth="yes"/>
      <point x="142" y="510" smooth="yes"/>
      <point x="165" y="510" type="curve" smooth="yes"/>
      <point x="277" y="510" type="line" name="hr01"/>
      <point x="274" y="402" smooth="yes"/>
      <point x="235" y="375" smooth="yes"/>
      <point x="130" y="375" type="curve" smooth="yes"/>
      <point x="68" y="375" type="line"/>
      <point x="68" y="346" smooth="yes"/>
      <point x="78" y="311" smooth="yes"/>
      <point x="130" y="311" type="curve" smooth="yes"/>
      <point x="285" y="311" smooth="yes"/>
      <point x="347" y="371" smooth="yes"/>
      <point x="347" y="507" type="curve" smooth="yes"/>
      <point x="347" y="513" type="line" smooth="yes"/>
      <point x="347" y="546"/>
      <point x="327" y="567"/>
      <point x="283" y="568" type="curve"/>
      <point x="322" y="588" smooth="yes"/>
      <point x="336" y="636" smooth="yes"/>
      <point x="336" y="660" type="curve" smooth="yes"/>
      <point x="336" y="729" smooth="yes"/>
      <point x="306" y="744" smooth="yes"/>
      <point x="215" y="744" type="curve" smooth="yes"/>
    </contour>
  </outline>
</glyph>
<glyph name="acute" format="1">
  <advance width="474"/>
  <unicode hex="00B4"/>
  <outline>
    <contour>
      <point x="186" y="620" type="line" name="hr00"/>
      <point x="277" y="637" smooth="yes"/>
      <point x="410" y="669" smooth="yes"/>
      <point x="410" y="715" type="curve" smooth="yes"/>
      <point x="410" y="728" smooth="yes"/>
      <point x="403" y="746" smooth="yes"/>
      <point x="386" y="772" type="curve" smooth="yes"/>
      <point x="373" y="792" type="line"/>
      <point x="163" y="661" type="line"/>
    </contour>
  </outline>
</glyph>
<glyph name="paragraph" format="1">
  <advance width="776"/>
  <unicode hex="00B6"/>
  <outline>
    <contour>
      <point x="476" y="303" type="line" name="hr00"/>
      <point x="488" y="333" smooth="yes"/>
      <point x="496" y="367" smooth="yes"/>
      <point x="496" y="403" type="curve" smooth="yes"/>
      <point x="496" y="463" smooth="yes"/>
      <point x="472" y="494" smooth="yes"/>
      <point x="421" y="494" type="curve" smooth="yes"/>
      <point x="386" y="494" type="line"/>
      <point x="386" y="334" type="line"/>
      <point x="371" y="331" smooth="yes"/>
      <point x="357" y="330" smooth="yes"/>
      <point x="343" y="330" type="curve" smooth="yes"/>
      <point x="267" y="330" smooth="yes"/>
      <point x="209" y="385" smooth="yes"/>
      <point x="209" y="500" type="curve" smooth="yes"/>
      <point x="209" y="578" smooth="yes"/>
      <point x="235" y="630" smooth="yes"/>
      <point x="312" y="630" type="curve" smooth="yes"/>
      <point x="646" y="630" type="line"/>
      <point x="646" y="650" type="line" smooth="yes"/>
      <point x="646" y="700" smooth="yes"/>
      <point x="620" y="710" smooth="yes"/>
      <point x="597" y="710" type="curve" smooth="yes"/>
      <point x="312" y="710" type="line" smooth="yes"/>
      <point x="167" y="710" smooth="yes"/>
      <point x="118" y="628" smooth="yes"/>
      <point x="118" y="500" type="curve" smooth="yes"/>
      <point x="118" y="327" smooth="yes"/>
      <point x="224" y="254" smooth="yes"/>
      <point x="343" y="254" type="curve" smooth="yes"/>
      <point x="359" y="254"/>
      <point x="373" y="255"/>
      <point x="386" y="257" type="curve"/>
      <point x="386" y="60" type="line" smooth="yes"/>
      <point x="386" y="10" smooth="yes"/>
      <point x="417" y="0" smooth="yes"/>
      <point x="447" y="0" type="curve" smooth="yes"/>
      <point x="476" y="0" type="line"/>
    </contour>
    <contour>
      <point x="646" y="474" type="line"/>
      <point x="645" y="485" smooth="yes"/>
      <point x="636" y="494" smooth="yes"/>
      <point x="625" y="494" type="curve" smooth="yes"/>
      <point x="576" y="494" type="line" smooth="yes"/>
      <point x="565" y="494" smooth="yes"/>
      <point x="556" y="485" smooth="yes"/>
      <point x="556" y="474" type="curve" smooth="yes"/>
      <point x="556" y="-140" type="line" smooth="yes"/>
      <point x="556" y="-190" smooth="yes"/>
      <point x="587" y="-200" smooth="yes"/>
      <point x="617" y="-200" type="curve" smooth="yes"/>
      <point x="646" y="-200" type="line"/>
    </contour>
  </outline>
</glyph>
<glyph name="periodcentered" format="1">
  <advance width="343"/>
  <unicode hex="00B7"/>
  <outline>
    <contour>
      <point x="214" y="355" type="curve" smooth="yes" name="hr00"/>
      <point x="214" y="317" smooth="yes"/>
      <point x="227" y="288" smooth="yes"/>
      <point x="281" y="288" type="curve" smooth="yes"/>
      <point x="333" y="288" smooth="yes"/>
      <point x="349" y="317" smooth="yes"/>
      <point x="349" y="355" type="curve" smooth="yes"/>
      <point x="349" y="392" smooth="yes"/>
      <point x="333" y="423" smooth="yes"/>
      <point x="281" y="423" type="curve" smooth="yes"/>
      <point x="227" y="423" smooth="yes"/>
      <point x="214" y="392" smooth="yes"/>
    </contour>
  </outline>
</glyph>
<glyph name="cedilla" format="1">
  <advance width="424"/>
  <unicode hex="00B8"/>
  <outline>
    <contour>
      <point x="190" y="37" type="line" name="hr00"/>
      <point x="159" y="-123" smooth="yes"/>
      <point x="158" y="-129" smooth="yes"/>
      <point x="158" y="-134" type="curve" smooth="yes"/>
      <point x="158" y="-151" smooth="yes"/>
      <point x="166" y="-160" smooth="yes"/>
      <point x="188" y="-160" type="curve" smooth="yes"/>
      <point x="283" y="-160" type="line"/>
      <point x="283" y="-224" smooth="yes"/>
      <point x="252" y="-243" smooth="yes"/>
      <point x="161" y="-243" type="curve" smooth="yes"/>
      <point x="140" y="-243" type="line"/>
      <point x="140" y="-300" smooth="yes"/>
      <point x="147" y="-310" smooth="yes"/>
      <point x="181" y="-310" type="curve" smooth="yes"/>
      <point x="298" y="-310" smooth="yes"/>
      <point x="364" y="-250" smooth="yes"/>
      <point x="364" y="-149" type="curve" smooth="yes"/>
      <point x="364" y="-122" smooth="yes"/>
      <point x="347" y="-93" smooth="yes"/>
      <point x="313" y="-93" type="curve" smooth="yes"/>
      <point x="224" y="-93" type="line"/>
      <point x="249" y="37" type="line"/>
    </contour>
  </outline>
</glyph>
<glyph name="onesuperior" format="1">
  <advance width="420"/>
  <unicode hex="00B9"/>
  <outline>
    <contour>
      <point x="297" y="311" type="line" smooth="yes"/>
      <point x="322" y="311"/>
      <point x="347" y="329"/>
      <point x="347" y="375" type="curve"/>
      <point x="248" y="375" type="line"/>
      <point x="248" y="659" type="line"/>
      <point x="256" y="674" smooth="yes"/>
      <point x="260" y="692" smooth="yes"/>
      <point x="260" y="704" type="curve" smooth="yes" name="hr01"/>
      <point x="260" y="731" smooth="yes"/>
      <point x="245" y="744" smooth="yes"/>
      <point x="219" y="744" type="curve" smooth="yes"/>
      <point x="181" y="744" type="line"/>
      <point x="181" y="699" type="line" smooth="yes"/>
      <point x="181" y="680" smooth="yes"/>
      <point x="156" y="619" smooth="yes"/>
      <point x="89" y="619" type="curve" smooth="yes"/>
      <point x="77" y="619" smooth="yes"/>
      <point x="68" y="608" smooth="yes"/>
      <point x="68" y="599" type="curve" smooth="yes"/>
      <point x="68" y="575" type="line" smooth="yes"/>
      <point x="68" y="564" smooth="yes"/>
      <point x="77" y="555" smooth="yes"/>
      <point x="89" y="555" type="curve" smooth="yes"/>
      <point x="122" y="555"/>
      <point x="155" y="566"/>
      <point x="178" y="584" type="curve"/>
      <point x="178" y="375" type="line"/>
      <point x="128" y="375" type="line" smooth="yes"/>
      <point x="102" y="375"/>
      <point x="78" y="358"/>
      <point x="78" y="311" type="curve"/>
    </contour>
  </outline>
</glyph>
<glyph name="guillemotright" format="1">
  <advance width="677"/>
  <unicode hex="00BB"/>
  <outline>
    <contour>
      <point x="444" y="224" type="line" name="hr00"/>
      <point x="437" y="217" smooth="yes"/>
      <point x="425" y="203" smooth="yes"/>
      <point x="425" y="187" type="curve" smooth="yes"/>
      <point x="425" y="173"/>
      <point x="443" y="149"/>
      <point x="463" y="129" type="curve"/>
      <point x="603" y="286" type="line" smooth="yes"/>
      <point x="618" y="300" smooth="yes"/>
      <point x="627" y="319" smooth="yes"/>
      <point x="627" y="334" type="curve" smooth="yes"/>
      <point x="627" y="349" smooth="yes"/>
      <point x="618" y="367" smooth="yes"/>
      <point x="603" y="382" type="curve" smooth="yes"/>
      <point x="463" y="540" type="line"/>
      <point x="443" y="520" smooth="yes"/>
      <point x="425" y="496" smooth="yes"/>
      <point x="425" y="482" type="curve" smooth="yes"/>
      <point x="425" y="466" smooth="yes"/>
      <point x="437" y="452" smooth="yes"/>
      <point x="444" y="445" type="curve" smooth="yes"/>
      <point x="533" y="334" type="line"/>
    </contour>
    <contour>
      <point x="244" y="224" type="line"/>
      <point x="237" y="217" smooth="yes"/>
      <point x="225" y="203" smooth="yes"/>
      <point x="225" y="187" type="curve" smooth="yes"/>
      <point x="225" y="173"/>
      <point x="243" y="149"/>
      <point x="263" y="129" type="curve"/>
      <point x="403" y="286" type="line" smooth="yes"/>
      <point x="418" y="300" smooth="yes"/>
      <point x="427" y="319" smooth="yes"/>
      <point x="427" y="334" type="curve" smooth="yes"/>
      <point x="427" y="349" smooth="yes"/>
      <point x="418" y="367" smooth="yes"/>
      <point x="403" y="382" type="curve" smooth="yes"/>
      <point x="263" y="540" type="line"/>
      <point x="243" y="520" smooth="yes"/>
      <point x="225" y="496" smooth="yes"/>
      <point x="225" y="482" type="curve" smooth="yes"/>
      <point x="225" y="466" smooth="yes"/>
      <point x="237" y="452" smooth="yes"/>
      <point x="244" y="445" type="curve" smooth="yes"/>
      <point x="333" y="334" type="line"/>
    </contour>
  </outline>
</glyph>
<glyph name="threequarters" format="1">
  <advance width="977"/>
  <unicode hex="00BE"/>
  <outline>
    <contour>
      <point x="695" y="710" type="line"/>
      <point x="686" y="710" type="line" smooth="yes"/>
      <point x="643" y="710" smooth="yes"/>
      <point x="628" y="704" smooth="yes"/>
      <point x="609" y="650" type="curve" smooth="yes"/>
      <point x="382" y="0" type="line"/>
      <point x="391" y="0" type="line" smooth="yes"/>
      <point x="440" y="0" smooth="yes"/>
      <point x="451" y="12" smooth="yes"/>
      <point x="468" y="60" type="curve" smooth="yes"/>
    </contour>
    <contour>
      <point x="160" y="720" type="line" name="hr01"/>
      <point x="160" y="700" type="line" smooth="yes"/>
      <point x="160" y="662" smooth="yes"/>
      <point x="180" y="656" smooth="yes"/>
      <point x="197" y="656" type="curve" smooth="yes"/>
      <point x="295" y="656" type="line" smooth="yes"/>
      <point x="333" y="656" smooth="yes"/>
      <point x="345" y="653" smooth="yes"/>
      <point x="345" y="636" type="curve" smooth="yes"/>
      <point x="345" y="613" smooth="yes"/>
      <point x="324" y="544" smooth="yes"/>
      <point x="273" y="544" type="curve" smooth="yes"/>
      <point x="201" y="544" type="line"/>
      <point x="201" y="522" type="line" smooth="yes"/>
      <point x="201" y="493" smooth="yes"/>
      <point x="222" y="486" smooth="yes"/>
      <point x="245" y="486" type="curve" smooth="yes"/>
      <point x="357" y="486" type="line" name="hr02"/>
      <point x="354" y="378" smooth="yes"/>
      <point x="315" y="351" smooth="yes"/>
      <point x="210" y="351" type="curve" smooth="yes"/>
      <point x="148" y="351" type="line"/>
      <point x="148" y="322" smooth="yes"/>
      <point x="158" y="287" smooth="yes"/>
      <point x="210" y="287" type="curve" smooth="yes"/>
      <point x="365" y="287" smooth="yes"/>
      <point x="427" y="347" smooth="yes"/>
      <point x="427" y="483" type="curve" smooth="yes"/>
      <point x="427" y="489" type="line" smooth="yes"/>
      <point x="427" y="522"/>
      <point x="407" y="543"/>
      <point x="363" y="544" type="curve"/>
      <point x="402" y="564" smooth="yes"/>
      <point x="416" y="612" smooth="yes"/>
      <point x="416" y="636" type="curve" smooth="yes"/>
      <point x="416" y="705" smooth="yes"/>
      <point x="386" y="720" smooth="yes"/>
      <point x="295" y="720" type="curve" smooth="yes"/>
    </contour>
    <contour>
      <point x="624" y="160" type="line"/>
      <point x="624" y="120" smooth="yes"/>
      <point x="646" y="102" smooth="yes"/>
      <point x="673" y="102" type="curve" smooth="yes"/>
      <point x="818" y="102" type="line"/>
      <point x="818" y="44" type="line" smooth="yes"/>
      <point x="818" y="7" smooth="yes"/>
      <point x="841" y="0" smooth="yes"/>
      <point x="863" y="0" type="curve" smooth="yes"/>
      <point x="888" y="0" type="line"/>
      <point x="888" y="102" type="line"/>
      <point x="922" y="102" type="line" smooth="yes"/>
      <point x="930" y="102" smooth="yes"/>
      <point x="940" y="111" smooth="yes"/>
      <point x="940" y="121" type="curve" smooth="yes"/>
      <point x="940" y="149" type="line" smooth="yes"/>
      <point x="940" y="159" smooth="yes"/>
      <point x="930" y="167" smooth="yes"/>
      <point x="922" y="167" type="curve" smooth="yes"/>
      <point x="888" y="167" type="line"/>
      <point x="888" y="313" type="line" smooth="yes"/>
      <point x="888" y="325" smooth="yes"/>
      <point x="877" y="334" smooth="yes"/>
      <point x="868" y="334" type="curve" smooth="yes"/>
      <point x="838" y="334" type="line" smooth="yes"/>
      <point x="828" y="334" smooth="yes"/>
      <point x="818" y="325" smooth="yes"/>
      <point x="818" y="313" type="curve" smooth="yes"/>
      <point x="818" y="167" type="line"/>
      <point x="692" y="167" type="line"/>
      <point x="719" y="266" smooth="yes"/>
      <point x="732" y="318" smooth="yes"/>
      <point x="750" y="393" type="curve" smooth="yes"/>
      <point x="751" y="398" smooth="yes"/>
      <point x="751" y="404" smooth="yes"/>
      <point x="751" y="409" type="curve" smooth="yes"/>
      <point x="751" y="435"/>
      <point x="733" y="439"/>
      <point x="690" y="439" type="curve"/>
    </contour>
  </outline>
</glyph>
<glyph name="Acircumflex" format="1">
  <advance width="779"/>
  <unicode hex="00C2"/>
  <outline>
    <contour>
      <point x="616" y="70" type="line" name="hr00"/>
      <point x="616" y="640" type="line"/>
      <point x="670" y="640" type="line"/>
      <point x="670" y="666" type="line" smooth="yes"/>
      <point x="670" y="693" smooth="yes"/>
      <point x="661" y="720" smooth="yes"/>
      <point x="616" y="720" type="curve" smooth="yes"/>
      <point x="395" y="720" smooth="yes"/>
      <point x="104" y="580" smooth="yes"/>
      <point x="104" y="60" type="curve" smooth="yes"/>
      <point x="104" y="0" type="line"/>
      <point x="139" y="0" type="line" smooth="yes"/>
      <point x="169" y="0" smooth="yes"/>
      <point x="194" y="10" smooth="yes"/>
      <point x="194" y="60" type="curve" smooth="yes"/>
      <point x="194" y="151"/>
      <point x="204" y="230"/>
      <point x="222" y="299" type="curve"/>
      <point x="526" y="299" type="line"/>
      <point x="526" y="60" type="line" smooth="yes"/>
      <point x="526" y="10" smooth="yes"/>
      <point x="556" y="0" smooth="yes"/>
      <point x="586" y="0" type="curve" smooth="yes"/>
      <point x="899" y="0" type="line" smooth="yes"/>
      <point x="934" y="0"/>
      <point x="969" y="12"/>
      <point x="969" y="70" type="curve"/>
    </contour>
    <contour>
      <point x="526" y="630" type="curve"/>
      <point x="526" y="374" type="line"/>
      <point x="247" y="374" type="line"/>
      <point x="306" y="521"/>
      <point x="409" y="603"/>
    </contour>
    <contour>
      <point x="621" y="811" type="line"/>
      <point x="476" y="942" type="line"/>
      <point x="436" y="942" type="line"/>
      <point x="291" y="811" type="line"/>
      <point x="315" y="771" type="line"/>
      <point x="376" y="784"/>
      <point x="432" y="817"/>
      <point x="456" y="845" type="curve"/>
      <point x="477" y="820"/>
      <point x="539" y="783"/>
      <point x="597" y="771" type="curve"/>
    </contour>
  </outline>
</glyph>
<glyph name="Adieresis" format="1">
  <advance width="779"/>
  <unicode hex="00C4"/>
  <outline>
    <contour>
      <point x="616" y="70" type="line" name="hr00"/>
      <point x="616" y="640" type="line"/>
      <point x="670" y="640" type="line"/>
      <point x="670" y="666" type="line" smooth="yes"/>
      <point x="670" y="693" smooth="yes"/>
      <point x="661" y="720" smooth="yes"/>
      <point x="616" y="720" type="curve" smooth="yes"/>
      <point x="395" y="720" smooth="yes"/>
      <point x="104" y="580" smooth="yes"/>
      <point x="104" y="60" type="curve" smooth="yes"/>
      <point x="104" y="0" type="line"/>
      <point x="139" y="0" type="line" smooth="yes"/>
      <point x="169" y="0" smooth="yes"/>
      <point x="194" y="10" smooth="yes"/>
      <point x="194" y="60" type="curve" smooth="yes"/>
      <point x="194" y="151"/>
      <point x="204" y="230"/>
      <point x="222" y="299" type="curve"/>
      <point x="526" y="299" type="line"/>
      <point x="526" y="60" type="line" smooth="yes"/>
      <point x="526" y="10" smooth="yes"/>
      <point x="556" y="0" smooth="yes"/>
      <point x="586" y="0" type="curve" smooth="yes"/>
      <point x="899" y="0" type="line" smooth="yes"/>
      <point x="934" y="0"/>
      <point x="969" y="12"/>
      <point x="969" y="70" type="curve"/>
    </contour>
    <contour>
      <point x="526" y="630" type="curve"/>
      <point x="526" y="374" type="line"/>
      <point x="247" y="374" type="line"/>
      <point x="306" y="521"/>
      <point x="409" y="603"/>
    </contour>
    <contour>
      <point x="289" y="854" type="curve" smooth="yes"/>
      <point x="289" y="820" smooth="yes"/>
      <point x="309" y="793" smooth="yes"/>
      <point x="350" y="793" type="curve" smooth="yes"/>
      <point x="390" y="793" smooth="yes"/>
      <point x="412" y="820" smooth="yes"/>
      <point x="412" y="854" type="curve" smooth="yes"/>
      <point x="412" y="887" smooth="yes"/>
      <point x="390" y="916" smooth="yes"/>
      <point x="350" y="916" type="curve" smooth="yes"/>
      <point x="309" y="916" smooth="yes"/>
      <point x="289" y="887" smooth="yes"/>
    </contour>
    <contour>
      <point x="511" y="854" type="curve" smooth="yes"/>
      <point x="511" y="820" smooth="yes"/>
      <point x="531" y="793" smooth="yes"/>
      <point x="572" y="793" type="curve" smooth="yes"/>
      <point x="612" y="793" smooth="yes"/>
      <point x="634" y="820" smooth="yes"/>
      <point x="634" y="854" type="curve" smooth="yes"/>
      <point x="634" y="887" smooth="yes"/>
      <point x="612" y="916" smooth="yes"/>
      <point x="572" y="916" type="curve" smooth="yes"/>
      <point x="531" y="916" smooth="yes"/>
      <point x="511" y="887" smooth="yes"/>
    </contour>
  </outline>
</glyph>
<glyph name="Ccedilla" format="1">
  <advance width="555"/>
  <unicode hex="00C7"/>
  <outline>
    <contour>
      <point x="175" y="70" type="line" name="hr00"/>
      <point x="175" y="430" smooth="yes"/>
      <point x="303" y="640" smooth="yes"/>
      <point x="532" y="640" type="curve" smooth="yes"/>
      <point x="586" y="640" type="line"/>
      <point x="586" y="666" type="line" smooth="yes"/>
      <point x="586" y="693" smooth="yes"/>
      <point x="577" y="720" smooth="yes"/>
      <point x="532" y="720" type="curve" smooth="yes"/>
      <point x="311" y="720" smooth="yes"/>
      <point x="85" y="553" smooth="yes"/>
      <point x="85" y="80" type="curve" smooth="yes"/>
      <point x="85" y="10" smooth="yes"/>
      <point x="125" y="0" smooth="yes"/>
      <point x="175" y="0" type="curve" smooth="yes"/>
      <point x="302" y="0" type="line"/>
      <point x="278" y="-123" smooth="yes"/>
      <point x="278" y="-129" smooth="yes"/>
      <point x="278" y="-134" type="curve" smooth="yes"/>
      <point x="278" y="-151" smooth="yes"/>
      <point x="286" y="-160" smooth="yes"/>
      <point x="308" y="-160" type="curve" smooth="yes"/>
      <point x="403" y="-160" type="line"/>
      <point x="403" y="-224" smooth="yes"/>
      <point x="372" y="-243" smooth="yes"/>
      <point x="281" y="-243" type="curve" smooth="yes"/>
      <point x="260" y="-243" type="line"/>
      <point x="260" y="-300" smooth="yes"/>
      <point x="267" y="-310" smooth="yes"/>
      <point x="301" y="-310" type="curve" smooth="yes"/>
      <point x="418" y="-310" smooth="yes"/>
      <point x="484" y="-250" smooth="yes"/>
      <point x="484" y="-149" type="curve" smooth="yes"/>
      <point x="484" y="-122" smooth="yes"/>
      <point x="467" y="-93" smooth="yes"/>
      <point x="433" y="-93" type="curve" smooth="yes"/>
      <point x="344" y="-93" type="line"/>
      <point x="362" y="0" type="line"/>
      <point x="675" y="0" type="line" smooth="yes"/>
      <point x="710" y="0"/>
      <point x="745" y="12"/>
      <point x="745" y="70" type="curve"/>
    </contour>
  </outline>
</glyph>
<glyph name="Edieresis" format="1">
  <advance width="693"/>
  <unicode hex="00CB"/>
  <outline>
    <contour>
      <point x="233" y="70" type="line"/>
      <point x="233" y="131"/>
      <point x="270" y="238"/>
      <point x="388" y="299" type="curve"/>
      <point x="590" y="299" type="line"/>
      <point x="590" y="379" smooth="yes"/>
      <point x="539" y="403" smooth="yes"/>
      <point x="494" y="403" type="curve" smooth="yes"/>
      <point x="444" y="403"/>
      <point x="399" y="392"/>
      <point x="360" y="374" type="curve"/>
      <point x="253" y="374" type="line" name="hr01"/>
      <point x="253" y="462" smooth="yes"/>
      <point x="371" y="640" smooth="yes"/>
      <point x="650" y="640" type="curve" smooth="yes"/>
      <point x="704" y="640" type="line"/>
      <point x="704" y="666" type="line" smooth="yes"/>
      <point x="704" y="693" smooth="yes"/>
      <point x="695" y="720" smooth="yes"/>
      <point x="650" y="720" type="curve" smooth="yes"/>
      <point x="379" y="720" smooth="yes"/>
      <point x="173" y="525" smooth="yes"/>
      <point x="173" y="379" type="curve" smooth="yes"/>
      <point x="173" y="312"/>
      <point x="209" y="300"/>
      <point x="256" y="299" type="curve"/>
      <point x="188" y="229" smooth="yes"/>
      <point x="153" y="140" smooth="yes"/>
      <point x="153" y="80" type="curve" smooth="yes" name="hr02"/>
      <point x="153" y="10" smooth="yes"/>
      <point x="193" y="0" smooth="yes"/>
      <point x="243" y="0" type="curve" smooth="yes"/>
      <point x="813" y="0" type="line" smooth="yes"/>
      <point x="848" y="0"/>
      <point x="883" y="12"/>
      <point x="883" y="70" type="curve"/>
    </contour>
    <contour>
      <point x="276" y="854" type="curve" smooth="yes"/>
      <point x="276" y="820" smooth="yes"/>
      <point x="296" y="793" smooth="yes"/>
      <point x="337" y="793" type="curve" smooth="yes"/>
      <point x="377" y="793" smooth="yes"/>
      <point x="399" y="820" smooth="yes"/>
      <point x="399" y="854" type="curve" smooth="yes"/>
      <point x="399" y="887" smooth="yes"/>
      <point x="377" y="916" smooth="yes"/>
      <point x="337" y="916" type="curve" smooth="yes"/>
      <point x="296" y="916" smooth="yes"/>
      <point x="276" y="887" smooth="yes"/>
    </contour>
    <contour>
      <point x="498" y="854" type="curve" smooth="yes"/>
      <point x="498" y="820" smooth="yes"/>
      <point x="518" y="793" smooth="yes"/>
      <point x="559" y="793" type="curve" smooth="yes"/>
      <point x="599" y="793" smooth="yes"/>
      <point x="621" y="820" smooth="yes"/>
      <point x="621" y="854" type="curve" smooth="yes"/>
      <point x="621" y="887" smooth="yes"/>
      <point x="599" y="916" smooth="yes"/>
      <point x="559" y="916" type="curve" smooth="yes"/>
      <point x="518" y="916" smooth="yes"/>
      <point x="498" y="887" smooth="yes"/>
    </contour>
  </outline>
</glyph>
<glyph name="Idieresis" format="1">
  <advance width="440"/>
  <unicode hex="00CF"/>
  <outline>
    <contour>
      <point x="90" y="70" type="line" name="hr00"/>
      <point x="90" y="12" smooth="yes"/>
      <point x="125" y="0" smooth="yes"/>
      <point x="160" y="0" type="curve" smooth="yes"/>
      <point x="560" y="0" type="line" smooth="yes"/>
      <point x="595" y="0"/>
      <point x="630" y="12"/>
      <point x="630" y="70" type="curve"/>
      <point x="280" y="70" type="line"/>
      <point x="280" y="630" type="line"/>
      <point x="380" y="630" type="line"/>
      <point x="380" y="649" type="line" smooth="yes"/>
      <point x="380" y="679" smooth="yes"/>
      <point x="370" y="710" smooth="yes"/>
      <point x="320" y="710" type="curve" smooth="yes"/>
      <point x="90" y="710" type="line"/>
      <point x="90" y="684" type="line" smooth="yes"/>
      <point x="90" y="657" smooth="yes"/>
      <point x="99" y="630" smooth="yes"/>
      <point x="144" y="630" type="curve" smooth="yes"/>
      <point x="190" y="630" type="line"/>
      <point x="190" y="70" type="line"/>
    </contour>
    <contour>
      <point x="63" y="854" type="curve" smooth="yes"/>
      <point x="63" y="820" smooth="yes"/>
      <point x="83" y="793" smooth="yes"/>
      <point x="124" y="793" type="curve" smooth="yes"/>
      <point x="164" y="793" smooth="yes"/>
      <point x="186" y="820" smooth="yes"/>
      <point x="186" y="854" type="curve" smooth="yes"/>
      <point x="186" y="887" smooth="yes"/>
      <point x="164" y="916" smooth="yes"/>
      <point x="124" y="916" type="curve" smooth="yes"/>
      <point x="83" y="916" smooth="yes"/>
      <point x="63" y="887" smooth="yes"/>
    </contour>
    <contour>
      <point x="285" y="854" type="curve" smooth="yes"/>
      <point x="285" y="820" smooth="yes"/>
      <point x="305" y="793" smooth="yes"/>
      <point x="346" y="793" type="curve" smooth="yes"/>
      <point x="386" y="793" smooth="yes"/>
      <point x="408" y="820" smooth="yes"/>
      <point x="408" y="854" type="curve" smooth="yes"/>
      <point x="408" y="887" smooth="yes"/>
      <point x="386" y="916" smooth="yes"/>
      <point x="346" y="916" type="curve" smooth="yes"/>
      <point x="305" y="916" smooth="yes"/>
      <point x="285" y="887" smooth="yes"/>
    </contour>
  </outline>
</glyph>
<glyph name="Ograve" format="1">
  <advance width="761"/>
  <unicode hex="00D2"/>
  <outline>
    <contour>
      <point x="670" y="636" type="line" smooth="yes" name="hr00"/>
      <point x="670" y="682" smooth="yes"/>
      <point x="657" y="720" smooth="yes"/>
      <point x="591" y="720" type="curve" smooth="yes"/>
      <point x="267" y="720" smooth="yes"/>
      <point x="115" y="589" smooth="yes"/>
      <point x="115" y="282" type="curve" smooth="yes"/>
      <point x="115" y="84" type="line" smooth="yes"/>
      <point x="115" y="38" smooth="yes"/>
      <point x="128" y="0" smooth="yes"/>
      <point x="194" y="0" type="curve" smooth="yes"/>
      <point x="881" y="0" type="line" smooth="yes"/>
      <point x="916" y="0"/>
      <point x="951" y="12"/>
      <point x="951" y="70" type="curve"/>
      <point x="495" y="70" type="line"/>
      <point x="613" y="133" smooth="yes"/>
      <point x="670" y="249" smooth="yes"/>
      <point x="670" y="437" type="curve" smooth="yes"/>
    </contour>
    <contour>
      <point x="205" y="282" type="line" smooth="yes"/>
      <point x="205" y="538"/>
      <point x="313" y="640"/>
      <point x="580" y="640" type="curve"/>
      <point x="580" y="437" type="line" smooth="yes"/>
      <point x="580" y="181"/>
      <point x="472" y="70"/>
      <point x="205" y="70" type="curve"/>
    </contour>
    <contour>
      <point x="533" y="811" type="line"/>
      <point x="324" y="942" type="line"/>
      <point x="311" y="922" type="line" smooth="yes"/>
      <point x="294" y="896" smooth="yes"/>
      <point x="286" y="878" smooth="yes"/>
      <point x="286" y="865" type="curve" smooth="yes"/>
      <point x="286" y="819"/>
      <point x="419" y="787"/>
      <point x="511" y="770" type="curve"/>
    </contour>
  </outline>
</glyph>
<glyph name="Oacute" format="1">
  <advance width="801"/>
  <unicode hex="00D3"/>
  <outline>
    <contour>
      <point x="690" y="636" type="line" smooth="yes" name="hr00"/>
      <point x="690" y="682" smooth="yes"/>
      <point x="677" y="720" smooth="yes"/>
      <point x="611" y="720" type="curve" smooth="yes"/>
      <point x="287" y="720" smooth="yes"/>
      <point x="135" y="589" smooth="yes"/>
      <point x="135" y="282" type="curve" smooth="yes"/>
      <point x="135" y="84" type="line" smooth="yes"/>
      <point x="135" y="38" smooth="yes"/>
      <point x="148" y="0" smooth="yes"/>
      <point x="214" y="0" type="curve" smooth="yes"/>
      <point x="901" y="0" type="line" smooth="yes"/>
      <point x="936" y="0"/>
      <point x="971" y="12"/>
      <point x="971" y="70" type="curve"/>
      <point x="515" y="70" type="line"/>
      <point x="633" y="133" smooth="yes"/>
      <point x="690" y="249" smooth="yes"/>
      <point x="690" y="437" type="curve" smooth="yes"/>
    </contour>
    <contour>
      <point x="225" y="282" type="line" smooth="yes"/>
      <point x="225" y="538"/>
      <point x="333" y="640"/>
      <point x="600" y="640" type="curve"/>
      <point x="600" y="437" type="line" smooth="yes"/>
      <point x="600" y="181"/>
      <point x="492" y="70"/>
      <point x="225" y="70" type="curve"/>
    </contour>
    <contour>
      <point x="345" y="770" type="line"/>
      <point x="436" y="787" smooth="yes"/>
      <point x="569" y="819" smooth="yes"/>
      <point x="569" y="865" type="curve" smooth="yes"/>
      <point x="569" y="878" smooth="yes"/>
      <point x="562" y="896" smooth="yes"/>
      <point x="545" y="922" type="curve" smooth="yes"/>
      <point x="532" y="942" type="line"/>
      <point x="322" y="811" type="line"/>
    </contour>
  </outline>
</glyph>
<glyph name="Ocircumflex" format="1">
  <advance width="761"/>
  <unicode hex="00D4"/>
  <outline>
    <contour>
      <point x="670" y="636" type="line" smooth="yes" name="hr00"/>
      <point x="670" y="682" smooth="yes"/>
      <point x="657" y="720" smooth="yes"/>
      <point x="591" y="720" type="curve" smooth="yes"/>
      <point x="267" y="720" smooth="yes"/>
      <point x="115" y="589" smooth="yes"/>
      <point x="115" y="282" type="curve" smooth="yes"/>
      <point x="115" y="84" type="line" smooth="yes"/>
      <point x="115" y="38" smooth="yes"/>
      <point x="128" y="0" smooth="yes"/>
      <point x="194" y="0" type="curve" smooth="yes"/>
      <point x="881" y="0" type="line" smooth="yes"/>
      <point x="916" y="0"/>
      <point x="951" y="12"/>
      <point x="951" y="70" type="curve"/>
      <point x="495" y="70" type="line"/>
      <point x="613" y="133" smooth="yes"/>
      <point x="670" y="249" smooth="yes"/>
      <point x="670" y="437" type="curve" smooth="yes"/>
    </contour>
    <contour>
      <point x="205" y="282" type="line" smooth="yes"/>
      <point x="205" y="538"/>
      <point x="313" y="640"/>
      <point x="580" y="640" type="curve"/>
      <point x="580" y="437" type="line" smooth="yes"/>
      <point x="580" y="181"/>
      <point x="472" y="70"/>
      <point x="205" y="70" type="curve"/>
    </contour>
    <contour>
      <point x="560" y="811" type="line"/>
      <point x="415" y="942" type="line"/>
      <point x="375" y="942" type="line"/>
      <point x="230" y="811" type="line"/>
      <point x="254" y="771" type="line"/>
      <point x="315" y="784"/>
      <point x="371" y="817"/>
      <point x="395" y="845" type="curve"/>
      <point x="416" y="820"/>
      <point x="478" y="783"/>
      <point x="536" y="771" type="curve"/>
    </contour>
  </outline>
</glyph>
<glyph name="Odieresis" format="1">
  <advance width="801"/>
  <unicode hex="00D6"/>
  <outline>
    <contour>
      <point x="690" y="636" type="line" smooth="yes" name="hr00"/>
      <point x="690" y="682" smooth="yes"/>
      <point x="677" y="720" smooth="yes"/>
      <point x="611" y="720" type="curve" smooth="yes"/>
      <point x="287" y="720" smooth="yes"/>
      <point x="135" y="589" smooth="yes"/>
      <point x="135" y="282" type="curve" smooth="yes"/>
      <point x="135" y="84" type="line" smooth="yes"/>
      <point x="135" y="38" smooth="yes"/>
      <point x="148" y="0" smooth="yes"/>
      <point x="214" y="0" type="curve" smooth="yes"/>
      <point x="901" y="0" type="line" smooth="yes"/>
      <point x="936" y="0"/>
      <point x="971" y="12"/>
      <point x="971" y="70" type="curve"/>
      <point x="515" y="70" type="line"/>
      <point x="633" y="133" smooth="yes"/>
      <point x="690" y="249" smooth="yes"/>
      <point x="690" y="437" type="curve" smooth="yes"/>
    </contour>
    <contour>
      <point x="225" y="282" type="line" smooth="yes"/>
      <point x="225" y="538"/>
      <point x="333" y="640"/>
      <point x="600" y="640" type="curve"/>
      <point x="600" y="437" type="line" smooth="yes"/>
      <point x="600" y="181"/>
      <point x="492" y="70"/>
      <point x="225" y="70" type="curve"/>
    </contour>
    <contour>
      <point x="273" y="854" type="curve" smooth="yes"/>
      <point x="273" y="820" smooth="yes"/>
      <point x="293" y="793" smooth="yes"/>
      <point x="334" y="793" type="curve" smooth="yes"/>
      <point x="374" y="793" smooth="yes"/>
      <point x="396" y="820" smooth="yes"/>
      <point x="396" y="854" type="curve" smooth="yes"/>
      <point x="396" y="887" smooth="yes"/>
      <point x="374" y="916" smooth="yes"/>
      <point x="334" y="916" type="curve" smooth="yes"/>
      <point x="293" y="916" smooth="yes"/>
      <point x="273" y="887" smooth="yes"/>
    </contour>
    <contour>
      <point x="495" y="854" type="curve" smooth="yes"/>
      <point x="495" y="820" smooth="yes"/>
      <point x="515" y="793" smooth="yes"/>
      <point x="556" y="793" type="curve" smooth="yes"/>
      <point x="596" y="793" smooth="yes"/>
      <point x="618" y="820" smooth="yes"/>
      <point x="618" y="854" type="curve" smooth="yes"/>
      <point x="618" y="887" smooth="yes"/>
      <point x="596" y="916" smooth="yes"/>
      <point x="556" y="916" type="curve" smooth="yes"/>
      <point x="515" y="916" smooth="yes"/>
      <point x="495" y="887" smooth="yes"/>
    </contour>
  </outline>
</glyph>
<glyph name="multiply" format="1">
  <advance width="460"/>
  <unicode hex="00D7"/>
  <outline>
    <contour>
      <point x="430" y="161" type="line" name="hr00"/>
      <point x="456" y="187" smooth="yes"/>
      <point x="468" y="202" smooth="yes"/>
      <point x="468" y="216" type="curve" smooth="yes"/>
      <point x="468" y="226" smooth="yes"/>
      <point x="462" y="235" smooth="yes"/>
      <point x="451" y="246" type="curve" smooth="yes"/>
      <point x="362" y="335" type="line"/>
      <point x="484" y="457" type="line"/>
      <point x="458" y="483" smooth="yes"/>
      <point x="442" y="495" smooth="yes"/>
      <point x="428" y="495" type="curve" smooth="yes"/>
      <point x="419" y="495" smooth="yes"/>
      <point x="410" y="490" smooth="yes"/>
      <point x="399" y="479" type="curve" smooth="yes"/>
      <point x="309" y="389" type="line"/>
      <point x="188" y="510" type="line"/>
      <point x="162" y="484" smooth="yes"/>
      <point x="150" y="468" smooth="yes"/>
      <point x="150" y="454" type="curve" smooth="yes"/>
      <point x="150" y="445" smooth="yes"/>
      <point x="155" y="436" smooth="yes"/>
      <point x="166" y="425" type="curve" smooth="yes"/>
      <point x="255" y="335" type="line"/>
      <point x="135" y="215" type="line"/>
      <point x="161" y="189" smooth="yes"/>
      <point x="176" y="177" smooth="yes"/>
      <point x="190" y="177" type="curve" smooth="yes"/>
      <point x="200" y="177" smooth="yes"/>
      <point x="209" y="183" smooth="yes"/>
      <point x="220" y="194" type="curve" smooth="yes"/>
      <point x="308" y="282" type="line"/>
    </contour>
  </outline>
</glyph>
<glyph name="ccedilla" format="1">
  <advance width="619"/>
  <unicode hex="00E7"/>
  <outline>
    <contour>
      <point x="582" y="443" type="curve" smooth="yes"/>
      <point x="582" y="511" smooth="yes"/>
      <point x="562" y="560" smooth="yes"/>
      <point x="466" y="560" type="curve" smooth="yes"/>
      <point x="254" y="560" smooth="yes"/>
      <point x="140" y="441" smooth="yes"/>
      <point x="140" y="200" type="curve" smooth="yes"/>
      <point x="140" y="48"/>
      <point x="153" y="5"/>
      <point x="333" y="0" type="curve"/>
      <point x="309" y="-123" smooth="yes"/>
      <point x="309" y="-129" smooth="yes"/>
      <point x="309" y="-134" type="curve" smooth="yes"/>
      <point x="309" y="-151" smooth="yes"/>
      <point x="317" y="-160" smooth="yes"/>
      <point x="339" y="-160" type="curve" smooth="yes"/>
      <point x="434" y="-160" type="line" name="hr01"/>
      <point x="434" y="-224" smooth="yes"/>
      <point x="403" y="-243" smooth="yes"/>
      <point x="312" y="-243" type="curve" smooth="yes"/>
      <point x="291" y="-243" type="line"/>
      <point x="291" y="-300" smooth="yes"/>
      <point x="298" y="-310" smooth="yes"/>
      <point x="332" y="-310" type="curve" smooth="yes"/>
      <point x="449" y="-310" smooth="yes"/>
      <point x="515" y="-250" smooth="yes"/>
      <point x="515" y="-149" type="curve" smooth="yes"/>
      <point x="515" y="-122" smooth="yes"/>
      <point x="498" y="-93" smooth="yes"/>
      <point x="464" y="-93" type="curve" smooth="yes"/>
      <point x="375" y="-93" type="line"/>
      <point x="393" y="0" type="line"/>
      <point x="739" y="0" type="line" smooth="yes"/>
      <point x="774" y="0"/>
      <point x="809" y="12"/>
      <point x="809" y="70" type="curve"/>
      <point x="373" y="70" type="line" smooth="yes"/>
      <point x="239" y="70" smooth="yes"/>
      <point x="231" y="82" smooth="yes"/>
      <point x="231" y="200" type="curve" smooth="yes"/>
      <point x="231" y="413"/>
      <point x="310" y="480"/>
      <point x="488" y="480" type="curve" name="hr02"/>
      <point x="488" y="324" type="line"/>
      <point x="568" y="324" smooth="yes"/>
      <point x="582" y="375" smooth="yes"/>
    </contour>
  </outline>
</glyph>
<glyph name="eacute" format="1">
  <advance width="639"/>
  <unicode hex="00E9"/>
  <outline>
    <contour>
      <point x="241" y="240" type="line" smooth="yes" name="hr00"/>
      <point x="241" y="445"/>
      <point x="275" y="470"/>
      <point x="518" y="470" type="curve"/>
      <point x="518" y="295" smooth="yes"/>
      <point x="479" y="279" smooth="yes"/>
      <point x="381" y="275" type="curve" smooth="yes"/>
      <point x="302" y="272" type="line"/>
      <point x="302" y="251" type="line" smooth="yes"/>
      <point x="302" y="210" smooth="yes"/>
      <point x="316" y="199" smooth="yes"/>
      <point x="352" y="199" type="curve" smooth="yes"/>
      <point x="533" y="199" smooth="yes"/>
      <point x="608" y="255" smooth="yes"/>
      <point x="608" y="461" type="curve" smooth="yes"/>
      <point x="608" y="510" smooth="yes"/>
      <point x="588" y="550" smooth="yes"/>
      <point x="518" y="550" type="curve" smooth="yes"/>
      <point x="191" y="550" smooth="yes"/>
      <point x="150" y="471" smooth="yes"/>
      <point x="150" y="241" type="curve" smooth="yes"/>
      <point x="150" y="200" type="line" smooth="yes"/>
      <point x="150" y="38" smooth="yes"/>
      <point x="165" y="0" smooth="yes"/>
      <point x="383" y="0" type="curve" smooth="yes"/>
      <point x="759" y="0" type="line" smooth="yes"/>
      <point x="794" y="0"/>
      <point x="829" y="12"/>
      <point x="829" y="70" type="curve"/>
      <point x="383" y="70" type="line" smooth="yes"/>
      <point x="249" y="70" smooth="yes"/>
      <point x="241" y="82" smooth="yes"/>
      <point x="241" y="200" type="curve" smooth="yes"/>
    </contour>
    <contour>
      <point x="335" y="620" type="line"/>
      <point x="426" y="637" smooth="yes"/>
      <point x="559" y="669" smooth="yes"/>
      <point x="559" y="715" type="curve" smooth="yes"/>
      <point x="559" y="728" smooth="yes"/>
      <point x="552" y="746" smooth="yes"/>
      <point x="535" y="772" type="curve" smooth="yes"/>
      <point x="522" y="792" type="line"/>
      <point x="312" y="661" type="line"/>
    </contour>
  </outline>
</glyph>
<glyph name="ecircumflex" format="1">
  <advance width="639"/>
  <unicode hex="00EA"/>
  <outline>
    <contour>
      <point x="241" y="240" type="line" smooth="yes" name="hr00"/>
      <point x="241" y="445"/>
      <point x="275" y="470"/>
      <point x="518" y="470" type="curve"/>
      <point x="518" y="295" smooth="yes"/>
      <point x="479" y="279" smooth="yes"/>
      <point x="381" y="275" type="curve" smooth="yes"/>
      <point x="302" y="272" type="line"/>
      <point x="302" y="251" type="line" smooth="yes"/>
      <point x="302" y="210" smooth="yes"/>
      <point x="316" y="199" smooth="yes"/>
      <point x="352" y="199" type="curve" smooth="yes"/>
      <point x="533" y="199" smooth="yes"/>
      <point x="608" y="255" smooth="yes"/>
      <point x="608" y="461" type="curve" smooth="yes"/>
      <point x="608" y="510" smooth="yes"/>
      <point x="588" y="550" smooth="yes"/>
      <point x="518" y="550" type="curve" smooth="yes"/>
      <point x="191" y="550" smooth="yes"/>
      <point x="150" y="471" smooth="yes"/>
      <point x="150" y="241" type="curve" smooth="yes"/>
      <point x="150" y="200" type="line" smooth="yes"/>
      <point x="150" y="38" smooth="yes"/>
      <point x="165" y="0" smooth="yes"/>
      <point x="383" y="0" type="curve" smooth="yes"/>
      <point x="759" y="0" type="line" smooth="yes"/>
      <point x="794" y="0"/>
      <point x="829" y="12"/>
      <point x="829" y="70" type="curve"/>
      <point x="383" y="70" type="line" smooth="yes"/>
      <point x="249" y="70" smooth="yes"/>
      <point x="241" y="82" smooth="yes"/>
      <point x="241" y="200" type="curve" smooth="yes"/>
    </contour>
    <contour>
      <point x="577" y="661" type="line"/>
      <point x="432" y="792" type="line"/>
      <point x="392" y="792" type="line"/>
      <point x="247" y="661" type="line"/>
      <point x="271" y="621" type="line"/>
      <point x="332" y="634"/>
      <point x="388" y="667"/>
      <point x="412" y="695" type="curve"/>
      <point x="433" y="670"/>
      <point x="495" y="633"/>
      <point x="553" y="621" type="curve"/>
    </contour>
  </outline>
</glyph>
<glyph name="edieresis" format="1">
  <advance width="639"/>
  <unicode hex="00EB"/>
  <outline>
    <contour>
      <point x="241" y="240" type="line" smooth="yes" name="hr00"/>
      <point x="241" y="445"/>
      <point x="275" y="470"/>
      <point x="518" y="470" type="curve"/>
      <point x="518" y="295" smooth="yes"/>
      <point x="479" y="279" smooth="yes"/>
      <point x="381" y="275" type="curve" smooth="yes"/>
      <point x="302" y="272" type="line"/>
      <point x="302" y="251" type="line" smooth="yes"/>
      <point x="302" y="210" smooth="yes"/>
      <point x="316" y="199" smooth="yes"/>
      <point x="352" y="199" type="curve" smooth="yes"/>
      <point x="533" y="199" smooth="yes"/>
      <point x="608" y="255" smooth="yes"/>
      <point x="608" y="461" type="curve" smooth="yes"/>
      <point x="608" y="510" smooth="yes"/>
      <point x="588" y="550" smooth="yes"/>
      <point x="518" y="550" type="curve" smooth="yes"/>
      <point x="191" y="550" smooth="yes"/>
      <point x="150" y="471" smooth="yes"/>
      <point x="150" y="241" type="curve" smooth="yes"/>
      <point x="150" y="200" type="line" smooth="yes"/>
      <point x="150" y="38" smooth="yes"/>
      <point x="165" y="0" smooth="yes"/>
      <point x="383" y="0" type="curve" smooth="yes"/>
      <point x="759" y="0" type="line" smooth="yes"/>
      <point x="794" y="0"/>
      <point x="829" y="12"/>
      <point x="829" y="70" type="curve"/>
      <point x="383" y="70" type="line" smooth="yes"/>
      <point x="249" y="70" smooth="yes"/>
      <point x="241" y="82" smooth="yes"/>
      <point x="241" y="200" type="curve" smooth="yes"/>
    </contour>
    <contour>
      <point x="228" y="704" type="curve" smooth="yes"/>
      <point x="228" y="670" smooth="yes"/>
      <point x="248" y="643" smooth="yes"/>
      <point x="289" y="643" type="curve" smooth="yes"/>
      <point x="329" y="643" smooth="yes"/>
      <point x="351" y="670" smooth="yes"/>
      <point x="351" y="704" type="curve" smooth="yes"/>
      <point x="351" y="737" smooth="yes"/>
      <point x="329" y="766" smooth="yes"/>
      <point x="289" y="766" type="curve" smooth="yes"/>
      <point x="248" y="766" smooth="yes"/>
      <point x="228" y="737" smooth="yes"/>
    </contour>
    <contour>
      <point x="450" y="704" type="curve" smooth="yes"/>
      <point x="450" y="670" smooth="yes"/>
      <point x="470" y="643" smooth="yes"/>
      <point x="511" y="643" type="curve" smooth="yes"/>
      <point x="551" y="643" smooth="yes"/>
      <point x="573" y="670" smooth="yes"/>
      <point x="573" y="704" type="curve" smooth="yes"/>
      <point x="573" y="737" smooth="yes"/>
      <point x="551" y="766" smooth="yes"/>
      <point x="511" y="766" type="curve" smooth="yes"/>
      <point x="470" y="766" smooth="yes"/>
      <point x="450" y="737" smooth="yes"/>
    </contour>
  </outline>
</glyph>
<glyph name="idieresis" format="1">
  <advance width="411"/>
  <unicode hex="00EF"/>
  <outline>
    <contour>
      <point x="280" y="70" type="line" name="hr00"/>
      <point x="280" y="520" type="line" smooth="yes"/>
      <point x="279" y="531" smooth="yes"/>
      <point x="270" y="540" smooth="yes"/>
      <point x="259" y="540" type="curve" smooth="yes"/>
      <point x="210" y="540" type="line" smooth="yes"/>
      <point x="199" y="540" smooth="yes"/>
      <point x="190" y="531" smooth="yes"/>
      <point x="190" y="520" type="curve" smooth="yes"/>
      <point x="190" y="60" type="line" smooth="yes"/>
      <point x="190" y="10" smooth="yes"/>
      <point x="221" y="0" smooth="yes"/>
      <point x="251" y="0" type="curve" smooth="yes"/>
      <point x="531" y="0" type="line" smooth="yes"/>
      <point x="566" y="0"/>
      <point x="601" y="12"/>
      <point x="601" y="70" type="curve"/>
    </contour>
    <contour>
      <point x="63" y="704" type="curve" smooth="yes"/>
      <point x="63" y="670" smooth="yes"/>
      <point x="83" y="643" smooth="yes"/>
      <point x="124" y="643" type="curve" smooth="yes"/>
      <point x="164" y="643" smooth="yes"/>
      <point x="186" y="670" smooth="yes"/>
      <point x="186" y="704" type="curve" smooth="yes"/>
      <point x="186" y="737" smooth="yes"/>
      <point x="164" y="766" smooth="yes"/>
      <point x="124" y="766" type="curve" smooth="yes"/>
      <point x="83" y="766" smooth="yes"/>
      <point x="63" y="737" smooth="yes"/>
    </contour>
    <contour>
      <point x="285" y="704" type="curve" smooth="yes"/>
      <point x="285" y="670" smooth="yes"/>
      <point x="305" y="643" smooth="yes"/>
      <point x="346" y="643" type="curve" smooth="yes"/>
      <point x="386" y="643" smooth="yes"/>
      <point x="408" y="670" smooth="yes"/>
      <point x="408" y="704" type="curve" smooth="yes"/>
      <point x="408" y="737" smooth="yes"/>
      <point x="386" y="766" smooth="yes"/>
      <point x="346" y="766" type="curve" smooth="yes"/>
      <point x="305" y="766" smooth="yes"/>
      <point x="285" y="737" smooth="yes"/>
    </contour>
  </outline>
</glyph>
<glyph name="ntilde" format="1">
  <advance width="788"/>
  <unicode hex="00F1"/>
  <outline>
    <contour>
      <point x="281" y="0" type="line"/>
      <point x="281" y="63" type="line" smooth="yes"/>
      <point x="281" y="342"/>
      <point x="473" y="480"/>
      <point x="568" y="480" type="curve"/>
      <point x="568" y="60" type="line" smooth="yes"/>
      <point x="568" y="10" smooth="yes"/>
      <point x="598" y="0" smooth="yes"/>
      <point x="628" y="0" type="curve" smooth="yes"/>
      <point x="908" y="0" type="line" smooth="yes"/>
      <point x="943" y="0"/>
      <point x="978" y="12"/>
      <point x="978" y="70" type="curve"/>
      <point x="658" y="70" type="line"/>
      <point x="658" y="470" type="line" smooth="yes"/>
      <point x="658" y="520" smooth="yes"/>
      <point x="638" y="560" smooth="yes"/>
      <point x="568" y="560" type="curve" smooth="yes"/>
      <point x="471" y="560"/>
      <point x="355" y="472"/>
      <point x="281" y="340" type="curve"/>
      <point x="281" y="520" type="line" smooth="yes" name="hr01"/>
      <point x="281" y="531" smooth="yes"/>
      <point x="272" y="540" smooth="yes"/>
      <point x="261" y="540" type="curve" smooth="yes"/>
      <point x="211" y="540" type="line" smooth="yes"/>
      <point x="200" y="540" smooth="yes"/>
      <point x="191" y="531" smooth="yes"/>
      <point x="191" y="520" type="curve" smooth="yes"/>
      <point x="191" y="191" type="line"/>
      <point x="178" y="160" smooth="yes"/>
      <point x="170" y="127" smooth="yes"/>
      <point x="170" y="91" type="curve" smooth="yes"/>
      <point x="170" y="28" smooth="yes"/>
      <point x="196" y="0" smooth="yes"/>
      <point x="251" y="0" type="curve" smooth="yes"/>
    </contour>
    <contour>
      <point x="309" y="760" type="line"/>
      <point x="290" y="739" smooth="yes"/>
      <point x="288" y="722" smooth="yes"/>
      <point x="288" y="709" type="curve" smooth="yes"/>
      <point x="288" y="665" smooth="yes"/>
      <point x="326" y="633" smooth="yes"/>
      <point x="376" y="633" type="curve" smooth="yes"/>
      <point x="395" y="633" smooth="yes"/>
      <point x="416" y="637" smooth="yes"/>
      <point x="438" y="647" type="curve" smooth="yes"/>
      <point x="472" y="662" type="line" smooth="yes"/>
      <point x="500" y="674" smooth="yes"/>
      <point x="519" y="680" smooth="yes"/>
      <point x="532" y="680" type="curve" smooth="yes" name="hr02"/>
      <point x="551" y="680" smooth="yes"/>
      <point x="562" y="672" smooth="yes"/>
      <point x="574" y="661" type="curve" smooth="yes"/>
      <point x="600" y="636" type="line"/>
      <point x="619" y="657" smooth="yes"/>
      <point x="621" y="674" smooth="yes"/>
      <point x="621" y="687" type="curve" smooth="yes"/>
      <point x="621" y="731" smooth="yes"/>
      <point x="583" y="763" smooth="yes"/>
      <point x="533" y="763" type="curve" smooth="yes"/>
      <point x="514" y="763" smooth="yes"/>
      <point x="493" y="759" smooth="yes"/>
      <point x="471" y="749" type="curve" smooth="yes"/>
      <point x="437" y="734" type="line" smooth="yes"/>
      <point x="409" y="722" smooth="yes"/>
      <point x="390" y="716" smooth="yes"/>
      <point x="377" y="716" type="curve" smooth="yes" name="hr03"/>
      <point x="358" y="716" smooth="yes"/>
      <point x="347" y="724" smooth="yes"/>
      <point x="335" y="735" type="curve" smooth="yes"/>
    </contour>
  </outline>
</glyph>
<glyph name="oacute" format="1">
  <advance width="739"/>
  <unicode hex="00F3"/>
  <outline>
    <contour>
      <point x="496" y="532" type="curve" smooth="yes"/>
      <point x="496" y="492"/>
      <point x="520" y="460"/>
      <point x="568" y="460" type="curve" name="hr01"/>
      <point x="568" y="360" type="line" smooth="yes"/>
      <point x="568" y="147"/>
      <point x="479" y="80"/>
      <point x="280" y="80" type="curve"/>
      <point x="280" y="331" type="line" smooth="yes"/>
      <point x="280" y="446" smooth="yes"/>
      <point x="322" y="470" smooth="yes"/>
      <point x="417" y="470" type="curve" smooth="yes"/>
      <point x="476" y="470" type="line"/>
      <point x="476" y="480" type="line" smooth="yes"/>
      <point x="476" y="530" smooth="yes"/>
      <point x="454" y="550" smooth="yes"/>
      <point x="417" y="550" type="curve" smooth="yes"/>
      <point x="251" y="550" smooth="yes"/>
      <point x="190" y="481" smooth="yes"/>
      <point x="190" y="331" type="curve" smooth="yes"/>
      <point x="190" y="90" type="line" smooth="yes"/>
      <point x="190" y="40" smooth="yes"/>
      <point x="205" y="0" smooth="yes"/>
      <point x="280" y="0" type="curve" smooth="yes"/>
      <point x="536" y="0" smooth="yes"/>
      <point x="658" y="119" smooth="yes"/>
      <point x="658" y="360" type="curve" smooth="yes"/>
      <point x="658" y="460" type="line"/>
      <point x="929" y="460" type="line" smooth="yes"/>
      <point x="964" y="460"/>
      <point x="999" y="482"/>
      <point x="999" y="540" type="curve" name="hr02"/>
      <point x="641" y="540" type="line"/>
      <point x="638" y="576" smooth="yes"/>
      <point x="613" y="605" smooth="yes"/>
      <point x="568" y="605" type="curve" smooth="yes"/>
      <point x="520" y="605" smooth="yes"/>
      <point x="496" y="572" smooth="yes"/>
    </contour>
    <contour>
      <point x="368" y="620" type="line"/>
      <point x="459" y="637" smooth="yes"/>
      <point x="592" y="669" smooth="yes"/>
      <point x="592" y="715" type="curve" smooth="yes"/>
      <point x="592" y="728" smooth="yes"/>
      <point x="585" y="746" smooth="yes"/>
      <point x="568" y="772" type="curve" smooth="yes" name="hr04"/>
      <point x="555" y="792" type="line"/>
      <point x="345" y="661" type="line"/>
    </contour>
  </outline>
</glyph>
<glyph name="otilde" format="1">
  <advance width="739"/>
  <unicode hex="00F5"/>
  <outline>
    <contour>
      <point x="496" y="532" type="curve" smooth="yes"/>
      <point x="496" y="492"/>
      <point x="520" y="460"/>
      <point x="568" y="460" type="curve"/>
      <point x="568" y="360" type="line" smooth="yes"/>
      <point x="568" y="147"/>
      <point x="479" y="80"/>
      <point x="280" y="80" type="curve"/>
      <point x="280" y="331" type="line" smooth="yes"/>
      <point x="280" y="446" smooth="yes"/>
      <point x="322" y="470" smooth="yes"/>
      <point x="417" y="470" type="curve" smooth="yes"/>
      <point x="476" y="470" type="line"/>
      <point x="476" y="480" type="line" smooth="yes"/>
      <point x="476" y="530" smooth="yes"/>
      <point x="454" y="550" smooth="yes"/>
      <point x="417" y="550" type="curve" smooth="yes"/>
      <point x="251" y="550" smooth="yes"/>
      <point x="190" y="481" smooth="yes"/>
      <point x="190" y="331" type="curve" smooth="yes"/>
      <point x="190" y="90" type="line" smooth="yes"/>
      <point x="190" y="40" smooth="yes"/>
      <point x="205" y="0" smooth="yes"/>
      <point x="280" y="0" type="curve" smooth="yes"/>
      <point x="536" y="0" smooth="yes"/>
      <point x="658" y="119" smooth="yes"/>
      <point x="658" y="360" type="curve" smooth="yes"/>
      <point x="658" y="460" type="line"/>
      <point x="929" y="460" type="line" smooth="yes"/>
      <point x="964" y="460"/>
      <point x="999" y="482"/>
      <point x="999" y="540" type="curve" name="hr01"/>
      <point x="641" y="540" type="line"/>
      <point x="638" y="576" smooth="yes"/>
      <point x="613" y="605" smooth="yes"/>
      <point x="568" y="605" type="curve" smooth="yes"/>
      <point x="520" y="605" smooth="yes"/>
      <point x="496" y="572" smooth="yes"/>
    </contour>
    <contour>
      <point x="285" y="760" type="line"/>
      <point x="266" y="739" smooth="yes"/>
      <point x="264" y="722" smooth="yes"/>
      <point x="264" y="709" type="curve" smooth="yes"/>
      <point x="264" y="665" smooth="yes"/>
      <point x="302" y="633" smooth="yes"/>
      <point x="352" y="633" type="curve" smooth="yes"/>
      <point x="371" y="633" smooth="yes"/>
      <point x="392" y="637" smooth="yes"/>
      <point x="414" y="647" type="curve" smooth="yes"/>
      <point x="448" y="662" type="line" smooth="yes"/>
      <point x="476" y="674" smooth="yes"/>
      <point x="495" y="680" smooth="yes"/>
      <point x="508" y="680" type="curve" smooth="yes" name="hr02"/>
      <point x="527" y="680" smooth="yes"/>
      <point x="538" y="672" smooth="yes"/>
      <point x="550" y="661" type="curve" smooth="yes"/>
      <point x="576" y="636" type="line"/>
      <point x="595" y="657" smooth="yes"/>
      <point x="597" y="674" smooth="yes"/>
      <point x="597" y="687" type="curve" smooth="yes"/>
      <point x="597" y="731" smooth="yes"/>
      <point x="559" y="763" smooth="yes"/>
      <point x="509" y="763" type="curve" smooth="yes"/>
      <point x="490" y="763" smooth="yes"/>
      <point x="469" y="759" smooth="yes"/>
      <point x="447" y="749" type="curve" smooth="yes"/>
      <point x="413" y="734" type="line" smooth="yes"/>
      <point x="385" y="722" smooth="yes"/>
      <point x="366" y="716" smooth="yes"/>
      <point x="353" y="716" type="curve" smooth="yes" name="hr03"/>
      <point x="334" y="716" smooth="yes"/>
      <point x="323" y="724" smooth="yes"/>
      <point x="311" y="735" type="curve" smooth="yes"/>
    </contour>
  </outline>
</glyph>
<glyph name="yacute" format="1">
  <advance width="736"/>
  <unicode hex="00FD"/>
  <outline>
    <contour>
      <point x="249" y="520" type="line" smooth="yes" name="hr00"/>
      <point x="249" y="531" smooth="yes"/>
      <point x="239" y="540" smooth="yes"/>
      <point x="228" y="540" type="curve" smooth="yes"/>
      <point x="179" y="540" type="line" smooth="yes"/>
      <point x="168" y="540" smooth="yes"/>
      <point x="159" y="531" smooth="yes"/>
      <point x="159" y="520" type="curve" smooth="yes"/>
      <point x="159" y="51" type="line" smooth="yes"/>
      <point x="159" y="11" smooth="yes"/>
      <point x="178" y="0" smooth="yes"/>
      <point x="228" y="0" type="curve" smooth="yes"/>
      <point x="334" y="0"/>
      <point x="438" y="73"/>
      <point x="505" y="189" type="curve"/>
      <point x="505" y="30" type="line" smooth="yes"/>
      <point x="505" y="-206" smooth="yes"/>
      <point x="453" y="-230" smooth="yes"/>
      <point x="328" y="-230" type="curve" smooth="yes"/>
      <point x="272" y="-230" type="line"/>
      <point x="272" y="-241" type="line" smooth="yes"/>
      <point x="272" y="-290" smooth="yes"/>
      <point x="286" y="-310" smooth="yes"/>
      <point x="328" y="-310" type="curve" smooth="yes"/>
      <point x="510" y="-310"/>
      <point x="588" y="-246"/>
      <point x="594" y="0" type="curve"/>
      <point x="856" y="0" type="line" smooth="yes"/>
      <point x="891" y="0"/>
      <point x="926" y="12"/>
      <point x="926" y="70" type="curve"/>
      <point x="595" y="70" type="line"/>
      <point x="595" y="349" type="line"/>
      <point x="607" y="379" smooth="yes"/>
      <point x="616" y="413" smooth="yes"/>
      <point x="616" y="449" type="curve" smooth="yes"/>
      <point x="616" y="512" smooth="yes"/>
      <point x="590" y="540" smooth="yes"/>
      <point x="535" y="540" type="curve" smooth="yes"/>
      <point x="510" y="540" type="line"/>
      <point x="510" y="477" type="line" smooth="yes"/>
      <point x="510" y="198"/>
      <point x="344" y="80"/>
      <point x="249" y="80" type="curve"/>
    </contour>
    <contour>
      <point x="297" y="620" type="line"/>
      <point x="388" y="637" smooth="yes"/>
      <point x="521" y="669" smooth="yes"/>
      <point x="521" y="715" type="curve" smooth="yes"/>
      <point x="521" y="728" smooth="yes"/>
      <point x="514" y="746" smooth="yes"/>
      <point x="497" y="772" type="curve" smooth="yes"/>
      <point x="484" y="792" type="line"/>
      <point x="274" y="661" type="line"/>
    </contour>
  </outline>
</glyph>
<glyph name="thorn" format="1">
  <advance width="787"/>
  <unicode hex="00FE"/>
  <outline>
    <contour>
      <point x="190" y="38" type="line" name="hr00"/>
      <point x="172" y="-52" smooth="yes"/>
      <point x="158" y="-145" smooth="yes"/>
      <point x="158" y="-215" type="curve" smooth="yes"/>
      <point x="158" y="-278" smooth="yes"/>
      <point x="189" y="-300" smooth="yes"/>
      <point x="263" y="-300" type="curve" smooth="yes"/>
      <point x="280" y="-300" type="line"/>
      <point x="280" y="63" type="line" smooth="yes"/>
      <point x="280" y="342"/>
      <point x="482" y="480"/>
      <point x="577" y="480" type="curve"/>
      <point x="577" y="219" type="line" smooth="yes"/>
      <point x="577" y="165" smooth="yes"/>
      <point x="539" y="70" smooth="yes"/>
      <point x="440" y="70" type="curve" smooth="yes"/>
      <point x="342" y="70" type="line"/>
      <point x="342" y="60" type="line" smooth="yes"/>
      <point x="342" y="10" smooth="yes"/>
      <point x="372" y="0" smooth="yes"/>
      <point x="402" y="0" type="curve" smooth="yes"/>
      <point x="907" y="0" type="line" smooth="yes"/>
      <point x="942" y="0"/>
      <point x="977" y="12"/>
      <point x="977" y="70" type="curve"/>
      <point x="590" y="70" type="line"/>
      <point x="650" y="106" smooth="yes"/>
      <point x="667" y="163" smooth="yes"/>
      <point x="667" y="219" type="curve" smooth="yes"/>
      <point x="667" y="470" type="line" smooth="yes"/>
      <point x="667" y="520" smooth="yes"/>
      <point x="647" y="560" smooth="yes"/>
      <point x="577" y="560" type="curve" smooth="yes"/>
      <point x="479" y="560"/>
      <point x="357" y="465"/>
      <point x="280" y="328" type="curve"/>
      <point x="280" y="740" type="line" smooth="yes"/>
      <point x="280" y="751" smooth="yes"/>
      <point x="270" y="760" smooth="yes"/>
      <point x="259" y="760" type="curve" smooth="yes"/>
      <point x="210" y="760" type="line" smooth="yes"/>
      <point x="199" y="760" smooth="yes"/>
      <point x="190" y="751" smooth="yes"/>
      <point x="190" y="740" type="curve" smooth="yes"/>
    </contour>
  </outline>
</glyph>
<glyph name="ydieresis" format="1">
  <advance width="767"/>
  <unicode hex="00FF"/>
  <outline>
    <contour>
      <point x="280" y="520" type="line" smooth="yes" name="hr00"/>
      <point x="280" y="531" smooth="yes"/>
      <point x="270" y="540" smooth="yes"/>
      <point x="259" y="540" type="curve" smooth="yes"/>
      <point x="210" y="540" type="line" smooth="yes"/>
      <point x="199" y="540" smooth="yes"/>
      <point x="190" y="531" smooth="yes"/>
      <point x="190" y="520" type="curve" smooth="yes"/>
      <point x="190" y="51" type="line" smooth="yes"/>
      <point x="190" y="11" smooth="yes"/>
      <point x="209" y="0" smooth="yes"/>
      <point x="259" y="0" type="curve" smooth="yes"/>
      <point x="365" y="0"/>
      <point x="469" y="73"/>
      <point x="536" y="189" type="curve"/>
      <point x="536" y="30" type="line" smooth="yes"/>
      <point x="536" y="-206" smooth="yes"/>
      <point x="484" y="-230" smooth="yes"/>
      <point x="359" y="-230" type="curve" smooth="yes"/>
      <point x="303" y="-230" type="line"/>
      <point x="303" y="-241" type="line" smooth="yes"/>
      <point x="303" y="-290" smooth="yes"/>
      <point x="317" y="-310" smooth="yes"/>
      <point x="359" y="-310" type="curve" smooth="yes"/>
      <point x="541" y="-310"/>
      <point x="619" y="-246"/>
      <point x="625" y="0" type="curve"/>
      <point x="887" y="0" type="line" smooth="yes"/>
      <point x="922" y="0"/>
      <point x="957" y="12"/>
      <point x="957" y="70" type="curve"/>
      <point x="626" y="70" type="line"/>
      <point x="626" y="349" type="line"/>
      <point x="638" y="379" smooth="yes"/>
      <point x="647" y="413" smooth="yes"/>
      <point x="647" y="449" type="curve" smooth="yes"/>
      <point x="647" y="512" smooth="yes"/>
      <point x="621" y="540" smooth="yes"/>
      <point x="566" y="540" type="curve" smooth="yes"/>
      <point x="541" y="540" type="line"/>
      <point x="541" y="477" type="line" smooth="yes"/>
      <point x="541" y="198"/>
      <point x="375" y="80"/>
      <point x="280" y="80" type="curve"/>
    </contour>
    <contour>
      <point x="242" y="704" type="curve" smooth="yes"/>
      <point x="242" y="670" smooth="yes"/>
      <point x="262" y="643" smooth="yes"/>
      <point x="303" y="643" type="curve" smooth="yes"/>
      <point x="343" y="643" smooth="yes"/>
      <point x="365" y="670" smooth="yes"/>
      <point x="365" y="704" type="curve" smooth="yes"/>
      <point x="365" y="737" smooth="yes"/>
      <point x="343" y="766" smooth="yes"/>
      <point x="303" y="766" type="curve" smooth="yes"/>
      <point x="262" y="766" smooth="yes"/>
      <point x="242" y="737" smooth="yes"/>
    </contour>
    <contour>
      <point x="464" y="704" type="curve" smooth="yes"/>
      <point x="464" y="670" smooth="yes"/>
      <point x="484" y="643" smooth="yes"/>
      <point x="525" y="643" type="curve" smooth="yes"/>
      <point x="565" y="643" smooth="yes"/>
      <point x="587" y="670" smooth="yes"/>
      <point x="587" y="704" type="curve" smooth="yes"/>
      <point x="587" y="737" smooth="yes"/>
      <point x="565" y="766" smooth="yes"/>
      <point x="525" y="766" type="curve" smooth="yes"/>
      <point x="484" y="766" smooth="yes"/>
      <point x="464" y="737" smooth="yes"/>
    </contour>
  </outline>
</glyph>
<glyph name="Lslash" format="1">
  <advance width="510"/>
  <unicode hex="0141"/>
  <outline>
    <contour>
      <point x="47" y="293" type="line" name="hr00"/>
      <point x="65" y="257" smooth="yes"/>
      <point x="78" y="245" smooth="yes"/>
      <point x="95" y="245" type="curve" smooth="yes"/>
      <point x="104" y="245" smooth="yes"/>
      <point x="115" y="249" smooth="yes"/>
      <point x="127" y="255" type="curve" smooth="yes"/>
      <point x="160" y="272" type="line"/>
      <point x="160" y="70" type="line"/>
      <point x="60" y="70" type="line"/>
      <point x="60" y="12" smooth="yes"/>
      <point x="95" y="0" smooth="yes"/>
      <point x="130" y="0" type="curve" smooth="yes"/>
      <point x="630" y="0" type="line" smooth="yes"/>
      <point x="665" y="0"/>
      <point x="700" y="12"/>
      <point x="700" y="70" type="curve"/>
      <point x="250" y="70" type="line"/>
      <point x="250" y="317" type="line"/>
      <point x="363" y="375" type="line"/>
      <point x="345" y="411" smooth="yes"/>
      <point x="331" y="423" smooth="yes"/>
      <point x="314" y="423" type="curve" smooth="yes"/>
      <point x="305" y="423" smooth="yes"/>
      <point x="295" y="419" smooth="yes"/>
      <point x="283" y="413" type="curve" smooth="yes"/>
      <point x="250" y="396" type="line"/>
      <point x="252" y="617" smooth="yes"/>
      <point x="305" y="640" smooth="yes"/>
      <point x="427" y="640" type="curve" smooth="yes"/>
      <point x="497" y="640" type="line"/>
      <point x="497" y="666" type="line" smooth="yes"/>
      <point x="497" y="693" smooth="yes"/>
      <point x="488" y="720" smooth="yes"/>
      <point x="443" y="720" type="curve" smooth="yes"/>
      <point x="427" y="720" type="line" smooth="yes"/>
      <point x="238" y="720" smooth="yes"/>
      <point x="160" y="651" smooth="yes"/>
      <point x="160" y="380" type="curve" smooth="yes"/>
      <point x="160" y="350" type="line"/>
    </contour>
  </outline>
</glyph>
<glyph name="lslash" format="1">
  <advance width="411"/>
  <unicode hex="0142"/>
  <outline>
    <contour>
      <point x="83" y="323" type="line" name="hr00"/>
      <point x="101" y="287" smooth="yes"/>
      <point x="114" y="275" smooth="yes"/>
      <point x="131" y="275" type="curve" smooth="yes"/>
      <point x="140" y="275" smooth="yes"/>
      <point x="151" y="279" smooth="yes"/>
      <point x="163" y="285" type="curve" smooth="yes"/>
      <point x="190" y="298" type="line"/>
      <point x="190" y="60" type="line" smooth="yes"/>
      <point x="190" y="10" smooth="yes"/>
      <point x="221" y="0" smooth="yes"/>
      <point x="251" y="0" type="curve" smooth="yes"/>
      <point x="531" y="0" type="line" smooth="yes"/>
      <point x="566" y="0"/>
      <point x="601" y="12"/>
      <point x="601" y="70" type="curve"/>
      <point x="280" y="70" type="line"/>
      <point x="280" y="344" type="line"/>
      <point x="399" y="405" type="line"/>
      <point x="381" y="441" smooth="yes"/>
      <point x="367" y="453" smooth="yes"/>
      <point x="350" y="453" type="curve" smooth="yes"/>
      <point x="341" y="453" smooth="yes"/>
      <point x="331" y="449" smooth="yes"/>
      <point x="319" y="443" type="curve" smooth="yes"/>
      <point x="280" y="423" type="line"/>
      <point x="298" y="513" smooth="yes"/>
      <point x="312" y="605" smooth="yes"/>
      <point x="312" y="675" type="curve" smooth="yes"/>
      <point x="312" y="738" smooth="yes"/>
      <point x="281" y="760" smooth="yes"/>
      <point x="207" y="760" type="curve" smooth="yes"/>
      <point x="190" y="760" type="line"/>
      <point x="190" y="377" type="line"/>
    </contour>
  </outline>
</glyph>
<glyph name="Eng" format="1">
  <advance width="807"/>
  <unicode hex="014A"/>
  <outline>
    <contour>
      <point x="250" y="0" type="line" name="hr00"/>
      <point x="250" y="63" type="line" smooth="yes"/>
      <point x="250" y="342"/>
      <point x="492" y="640"/>
      <point x="587" y="640" type="curve"/>
      <point x="587" y="30" type="line" smooth="yes"/>
      <point x="587" y="-206" smooth="yes"/>
      <point x="535" y="-230" smooth="yes"/>
      <point x="410" y="-230" type="curve" smooth="yes"/>
      <point x="354" y="-230" type="line"/>
      <point x="354" y="-241" type="line" smooth="yes"/>
      <point x="354" y="-290" smooth="yes"/>
      <point x="368" y="-310" smooth="yes"/>
      <point x="410" y="-310" type="curve" smooth="yes"/>
      <point x="592" y="-310"/>
      <point x="676" y="-246"/>
      <point x="676" y="0" type="curve"/>
      <point x="927" y="0" type="line" smooth="yes"/>
      <point x="962" y="0"/>
      <point x="997" y="12"/>
      <point x="997" y="70" type="curve"/>
      <point x="677" y="70" type="line"/>
      <point x="677" y="630" type="line" smooth="yes"/>
      <point x="677" y="680" smooth="yes"/>
      <point x="657" y="720" smooth="yes"/>
      <point x="587" y="720" type="curve" smooth="yes"/>
      <point x="478" y="720"/>
      <point x="335" y="554"/>
      <point x="250" y="363" type="curve"/>
      <point x="250" y="690" type="line" smooth="yes"/>
      <point x="250" y="701" smooth="yes"/>
      <point x="241" y="710" smooth="yes"/>
      <point x="230" y="710" type="curve" smooth="yes"/>
      <point x="180" y="710" type="line" smooth="yes"/>
      <point x="169" y="710" smooth="yes"/>
      <point x="160" y="701" smooth="yes"/>
      <point x="160" y="690" type="curve" smooth="yes"/>
      <point x="160" y="191" type="line"/>
      <point x="147" y="160" smooth="yes"/>
      <point x="139" y="127" smooth="yes"/>
      <point x="139" y="91" type="curve" smooth="yes"/>
      <point x="139" y="28" smooth="yes"/>
      <point x="165" y="0" smooth="yes"/>
      <point x="220" y="0" type="curve" smooth="yes"/>
    </contour>
  </outline>
</glyph>
<glyph name="eng" format="1">
  <advance width="788"/>
  <unicode hex="014B"/>
  <outline>
    <contour>
      <point x="658" y="70" type="line" name="hr00"/>
      <point x="658" y="470" type="line" smooth="yes"/>
      <point x="658" y="520" smooth="yes"/>
      <point x="638" y="560" smooth="yes"/>
      <point x="568" y="560" type="curve" smooth="yes"/>
      <point x="471" y="560"/>
      <point x="355" y="472"/>
      <point x="281" y="340" type="curve"/>
      <point x="281" y="520" type="line" smooth="yes"/>
      <point x="281" y="531" smooth="yes"/>
      <point x="272" y="540" smooth="yes"/>
      <point x="261" y="540" type="curve" smooth="yes"/>
      <point x="211" y="540" type="line" smooth="yes"/>
      <point x="200" y="540" smooth="yes"/>
      <point x="191" y="531" smooth="yes"/>
      <point x="191" y="520" type="curve" smooth="yes"/>
      <point x="191" y="191" type="line"/>
      <point x="178" y="160" smooth="yes"/>
      <point x="170" y="127" smooth="yes"/>
      <point x="170" y="91" type="curve" smooth="yes"/>
      <point x="170" y="28" smooth="yes"/>
      <point x="196" y="0" smooth="yes"/>
      <point x="251" y="0" type="curve" smooth="yes"/>
      <point x="281" y="0" type="line"/>
      <point x="281" y="63" type="line" smooth="yes"/>
      <point x="281" y="342"/>
      <point x="473" y="480"/>
      <point x="568" y="480" type="curve"/>
      <point x="568" y="30" type="line" smooth="yes"/>
      <point x="568" y="-206" smooth="yes"/>
      <point x="517" y="-230" smooth="yes"/>
      <point x="392" y="-230" type="curve" smooth="yes"/>
      <point x="336" y="-230" type="line"/>
      <point x="336" y="-241" type="line" smooth="yes"/>
      <point x="336" y="-290" smooth="yes"/>
      <point x="350" y="-310" smooth="yes"/>
      <point x="392" y="-310" type="curve" smooth="yes"/>
      <point x="574" y="-310"/>
      <point x="658" y="-246"/>
      <point x="658" y="0" type="curve"/>
      <point x="908" y="0" type="line" smooth="yes"/>
      <point x="943" y="0"/>
      <point x="978" y="12"/>
      <point x="978" y="70" type="curve"/>
    </contour>
  </outline>
</glyph>
<glyph name="OE" format="1">
  <advance width="1021"/>
  <unicode hex="0152"/>
  <outline>
    <contour>
      <point x="670" y="636" type="line" smooth="yes"/>
      <point x="670" y="682" smooth="yes"/>
      <point x="657" y="720" smooth="yes"/>
      <point x="591" y="720" type="curve" smooth="yes"/>
      <point x="267" y="720" smooth="yes"/>
      <point x="115" y="589" smooth="yes"/>
      <point x="115" y="282" type="curve" smooth="yes"/>
      <point x="115" y="84" type="line" smooth="yes"/>
      <point x="115" y="38" smooth="yes"/>
      <point x="128" y="0" smooth="yes"/>
      <point x="194" y="0" type="curve" smooth="yes"/>
      <point x="399" y="0"/>
      <point x="536" y="53"/>
      <point x="608" y="169" type="curve"/>
      <point x="646" y="74" smooth="yes"/>
      <point x="732" y="0" smooth="yes"/>
      <point x="910" y="0" type="curve" smooth="yes"/>
      <point x="1141" y="0" type="line" smooth="yes"/>
      <point x="1176" y="0"/>
      <point x="1211" y="12"/>
      <point x="1211" y="70" type="curve"/>
      <point x="914" y="70" type="line" smooth="yes"/>
      <point x="712" y="70"/>
      <point x="676" y="206"/>
      <point x="670" y="299" type="curve"/>
      <point x="844" y="299" type="line" smooth="yes"/>
      <point x="879" y="299"/>
      <point x="914" y="316"/>
      <point x="914" y="374" type="curve"/>
      <point x="669" y="374" type="line"/>
      <point x="673" y="493" smooth="yes"/>
      <point x="705" y="630" smooth="yes"/>
      <point x="914" y="630" type="curve" smooth="yes"/>
      <point x="996" y="630" type="line"/>
      <point x="996" y="656" type="line" smooth="yes"/>
      <point x="996" y="683" smooth="yes"/>
      <point x="987" y="710" smooth="yes"/>
      <point x="942" y="710" type="curve" smooth="yes" name="hr01"/>
      <point x="920" y="710" type="line" smooth="yes"/>
      <point x="801" y="710"/>
      <point x="722" y="676"/>
      <point x="670" y="623" type="curve"/>
    </contour>
    <contour>
      <point x="580" y="438" type="line" smooth="yes"/>
      <point x="580" y="182"/>
      <point x="472" y="80"/>
      <point x="205" y="80" type="curve"/>
      <point x="205" y="282" type="line" smooth="yes"/>
      <point x="205" y="538"/>
      <point x="313" y="640"/>
      <point x="580" y="640" type="curve"/>
    </contour>
  </outline>
</glyph>
<glyph name="oe" format="1">
  <advance width="1054"/>
  <unicode hex="0153"/>
  <outline>
    <contour>
      <point x="280" y="80" type="curve" name="hr00"/>
      <point x="280" y="331" type="line" smooth="yes"/>
      <point x="280" y="446" smooth="yes"/>
      <point x="322" y="470" smooth="yes"/>
      <point x="417" y="470" type="curve" smooth="yes"/>
      <point x="568" y="470" type="line"/>
      <point x="568" y="360" type="line" smooth="yes"/>
      <point x="568" y="147"/>
      <point x="479" y="80"/>
    </contour>
    <contour>
      <point x="717" y="272" type="line"/>
      <point x="717" y="251" type="line" smooth="yes"/>
      <point x="717" y="210" smooth="yes"/>
      <point x="731" y="199" smooth="yes"/>
      <point x="767" y="199" type="curve" smooth="yes"/>
      <point x="948" y="199" smooth="yes"/>
      <point x="1023" y="255" smooth="yes"/>
      <point x="1023" y="461" type="curve" smooth="yes"/>
      <point x="1023" y="510" smooth="yes"/>
      <point x="1003" y="550" smooth="yes"/>
      <point x="933" y="550" type="curve" smooth="yes"/>
      <point x="794" y="550"/>
      <point x="707" y="536"/>
      <point x="652" y="502" type="curve"/>
      <point x="646" y="534" smooth="yes"/>
      <point x="628" y="550" smooth="yes"/>
      <point x="600" y="550" type="curve" smooth="yes"/>
      <point x="417" y="550" type="line" smooth="yes"/>
      <point x="251" y="550" smooth="yes"/>
      <point x="190" y="481" smooth="yes"/>
      <point x="190" y="331" type="curve" smooth="yes"/>
      <point x="190" y="90" type="line" smooth="yes"/>
      <point x="190" y="40" smooth="yes"/>
      <point x="205" y="0" smooth="yes"/>
      <point x="280" y="0" type="curve" smooth="yes"/>
      <point x="412" y="0"/>
      <point x="530" y="32"/>
      <point x="572" y="116" type="curve"/>
      <point x="587" y="19" smooth="yes"/>
      <point x="637" y="0" smooth="yes"/>
      <point x="798" y="0" type="curve" smooth="yes"/>
      <point x="1174" y="0" type="line" smooth="yes"/>
      <point x="1209" y="0"/>
      <point x="1244" y="12"/>
      <point x="1244" y="70" type="curve"/>
      <point x="798" y="70" type="line" smooth="yes"/>
      <point x="664" y="70" smooth="yes"/>
      <point x="656" y="82" smooth="yes"/>
      <point x="656" y="200" type="curve" smooth="yes"/>
      <point x="656" y="240" type="line" smooth="yes"/>
      <point x="656" y="445"/>
      <point x="690" y="470"/>
      <point x="933" y="470" type="curve"/>
      <point x="933" y="295" smooth="yes"/>
      <point x="894" y="279" smooth="yes"/>
      <point x="796" y="275" type="curve" smooth="yes"/>
    </contour>
  </outline>
</glyph>
<glyph name="scaron" format="1">
  <advance width="576"/>
  <unicode hex="0161"/>
  <outline>
    <contour>
      <point x="190" y="532" type="curve" smooth="yes" name="hr00"/>
      <point x="190" y="509" smooth="yes"/>
      <point x="198" y="489" smooth="yes"/>
      <point x="213" y="476" type="curve" smooth="yes"/>
      <point x="229" y="463" type="line"/>
      <point x="53" y="29" type="line" smooth="yes"/>
      <point x="50" y="22" smooth="yes"/>
      <point x="49" y="17" smooth="yes"/>
      <point x="49" y="13" type="curve" smooth="yes"/>
      <point x="49" y="4" smooth="yes"/>
      <point x="55" y="0" smooth="yes"/>
      <point x="63" y="0" type="curve" smooth="yes"/>
      <point x="119" y="0" type="line" smooth="yes"/>
      <point x="127" y="0" smooth="yes"/>
      <point x="133" y="5" smooth="yes"/>
      <point x="136" y="12" type="curve" smooth="yes"/>
      <point x="298" y="408" type="line"/>
      <point x="370" y="352" type="line" smooth="yes"/>
      <point x="416" y="316" smooth="yes"/>
      <point x="457" y="283" smooth="yes"/>
      <point x="457" y="219" type="curve" smooth="yes"/>
      <point x="457" y="156" smooth="yes"/>
      <point x="417" y="70" smooth="yes"/>
      <point x="295" y="70" type="curve" smooth="yes"/>
      <point x="262" y="70" type="line"/>
      <point x="262" y="60" type="line" smooth="yes"/>
      <point x="262" y="10" smooth="yes"/>
      <point x="292" y="0" smooth="yes"/>
      <point x="322" y="0" type="curve" smooth="yes"/>
      <point x="696" y="0" type="line" smooth="yes"/>
      <point x="731" y="0"/>
      <point x="766" y="12"/>
      <point x="766" y="70" type="curve"/>
      <point x="470" y="70" type="line"/>
      <point x="530" y="106" smooth="yes"/>
      <point x="547" y="163" smooth="yes"/>
      <point x="547" y="219" type="curve" smooth="yes"/>
      <point x="547" y="324" smooth="yes"/>
      <point x="459" y="391" smooth="yes"/>
      <point x="391" y="444" type="curve" smooth="yes"/>
      <point x="328" y="493" type="line"/>
      <point x="331" y="502" smooth="yes"/>
      <point x="335" y="515" smooth="yes"/>
      <point x="335" y="532" type="curve" smooth="yes"/>
      <point x="335" y="572" smooth="yes"/>
      <point x="310" y="605" smooth="yes"/>
      <point x="262" y="605" type="curve" smooth="yes"/>
      <point x="214" y="605" smooth="yes"/>
      <point x="190" y="572" smooth="yes"/>
    </contour>
    <contour>
      <point x="123" y="752" type="line"/>
      <point x="268" y="621" type="line"/>
      <point x="308" y="621" type="line"/>
      <point x="453" y="752" type="line"/>
      <point x="429" y="792" type="line"/>
      <point x="368" y="779"/>
      <point x="312" y="746"/>
      <point x="288" y="718" type="curve"/>
      <point x="267" y="743"/>
      <point x="205" y="780"/>
      <point x="147" y="792" type="curve"/>
    </contour>
  </outline>
</glyph>
<glyph name="florin" format="1">
  <advance width="600"/>
  <unicode hex="0192"/>
  <outline>
    <contour>
      <point x="420" y="320" type="line" smooth="yes" name="hr00"/>
      <point x="464" y="320"/>
      <point x="474" y="345"/>
      <point x="474" y="390" type="curve"/>
      <point x="325" y="390" type="line"/>
      <point x="326" y="616" smooth="yes"/>
      <point x="379" y="640" smooth="yes"/>
      <point x="502" y="640" type="curve" smooth="yes"/>
      <point x="558" y="640" type="line"/>
      <point x="558" y="651" type="line" smooth="yes"/>
      <point x="558" y="700" smooth="yes"/>
      <point x="544" y="720" smooth="yes"/>
      <point x="502" y="720" type="curve" smooth="yes"/>
      <point x="315" y="720"/>
      <point x="237" y="652"/>
      <point x="235" y="390" type="curve"/>
      <point x="160" y="390" type="line" smooth="yes"/>
      <point x="115" y="390"/>
      <point x="106" y="365"/>
      <point x="106" y="320" type="curve"/>
      <point x="235" y="320" type="line"/>
      <point x="235" y="130" type="line" smooth="yes"/>
      <point x="235" y="-106" smooth="yes"/>
      <point x="193" y="-130" smooth="yes"/>
      <point x="98" y="-130" type="curve" smooth="yes"/>
      <point x="42" y="-130" type="line"/>
      <point x="42" y="-141" type="line" smooth="yes"/>
      <point x="42" y="-190" smooth="yes"/>
      <point x="56" y="-210" smooth="yes"/>
      <point x="98" y="-210" type="curve" smooth="yes"/>
      <point x="257" y="-210" smooth="yes"/>
      <point x="325" y="-141" smooth="yes"/>
      <point x="325" y="130" type="curve" smooth="yes"/>
      <point x="325" y="320" type="line"/>
    </contour>
  </outline>
</glyph>
<glyph name="dotlessj" format="1">
  <advance width="411"/>
  <unicode hex="0237"/>
  <outline>
    <contour>
      <point x="190" y="520" type="curve" name="hr00"/>
      <point x="190" y="30" type="line" smooth="yes"/>
      <point x="190" y="-206" smooth="yes"/>
      <point x="138" y="-230" smooth="yes"/>
      <point x="13" y="-230" type="curve" smooth="yes"/>
      <point x="-43" y="-230" type="line"/>
      <point x="-43" y="-241" type="line" smooth="yes"/>
      <point x="-43" y="-290" smooth="yes"/>
      <point x="-29" y="-310" smooth="yes"/>
      <point x="13" y="-310" type="curve" smooth="yes"/>
      <point x="195" y="-310"/>
      <point x="273" y="-246"/>
      <point x="279" y="0" type="curve"/>
      <point x="531" y="0" type="line" smooth="yes"/>
      <point x="566" y="0"/>
      <point x="601" y="12"/>
      <point x="601" y="70" type="curve"/>
      <point x="280" y="70" type="line"/>
      <point x="280" y="520" type="line"/>
      <point x="279" y="531" smooth="yes"/>
      <point x="270" y="540" smooth="yes"/>
      <point x="259" y="540" type="curve" smooth="yes"/>
      <point x="210" y="540" type="line" smooth="yes"/>
      <point x="199" y="540"/>
      <point x="190" y="531"/>
    </contour>
  </outline>
</glyph>
<glyph name="circumflex" format="1">
  <advance width="474"/>
  <unicode hex="02C6"/>
  <outline>
    <contour>
      <point x="546" y="661" type="line" name="hr00"/>
      <point x="401" y="792" type="line"/>
      <point x="361" y="792" type="line"/>
      <point x="216" y="661" type="line"/>
      <point x="240" y="621" type="line"/>
      <point x="301" y="634"/>
      <point x="357" y="667"/>
      <point x="381" y="695" type="curve"/>
      <point x="402" y="670"/>
      <point x="464" y="633"/>
      <point x="522" y="621" type="curve"/>
    </contour>
  </outline>
</glyph>
<glyph name="ring" format="1">
  <advance width="296"/>
  <unicode hex="02DA"/>
  <outline>
    <contour>
      <point x="148" y="591" type="curve" name="hr00"/>
      <point x="229" y="591" smooth="yes"/>
      <point x="267" y="641" smooth="yes"/>
      <point x="267" y="707" type="curve" smooth="yes"/>
      <point x="267" y="774" smooth="yes"/>
      <point x="229" y="824" smooth="yes"/>
      <point x="148" y="824" type="curve" smooth="yes"/>
      <point x="67" y="824" smooth="yes"/>
      <point x="29" y="774" smooth="yes"/>
      <point x="29" y="707" type="curve" smooth="yes"/>
      <point x="29" y="641" smooth="yes"/>
      <point x="67" y="591" smooth="yes"/>
    </contour>
    <contour>
      <point x="148" y="655" type="curve" smooth="yes"/>
      <point x="111" y="655" smooth="yes"/>
      <point x="94" y="677" smooth="yes"/>
      <point x="94" y="707" type="curve" smooth="yes"/>
      <point x="94" y="738" smooth="yes"/>
      <point x="111" y="760" smooth="yes"/>
      <point x="148" y="760" type="curve" smooth="yes"/>
      <point x="185" y="760" smooth="yes"/>
      <point x="202" y="738" smooth="yes"/>
      <point x="202" y="707" type="curve" smooth="yes"/>
      <point x="202" y="677" smooth="yes"/>
      <point x="185" y="655" smooth="yes"/>
    </contour>
  </outline>
</glyph>
<glyph name="tilde" format="1">
  <advance width="504"/>
  <unicode hex="02DC"/>
  <outline>
    <contour>
      <point x="192" y="760" type="line"/>
      <point x="173" y="739" smooth="yes"/>
      <point x="171" y="722" smooth="yes"/>
      <point x="171" y="709" type="curve" smooth="yes"/>
      <point x="171" y="665" smooth="yes"/>
      <point x="209" y="633" smooth="yes"/>
      <point x="259" y="633" type="curve" smooth="yes"/>
      <point x="278" y="633" smooth="yes"/>
      <point x="299" y="637" smooth="yes"/>
      <point x="321" y="647" type="curve" smooth="yes"/>
      <point x="355" y="662" type="line" smooth="yes"/>
      <point x="383" y="674" smooth="yes"/>
      <point x="402" y="680" smooth="yes"/>
      <point x="415" y="680" type="curve" smooth="yes" name="hr01"/>
      <point x="434" y="680" smooth="yes"/>
      <point x="445" y="672" smooth="yes"/>
      <point x="457" y="661" type="curve" smooth="yes"/>
      <point x="483" y="636" type="line"/>
      <point x="502" y="657" smooth="yes"/>
      <point x="504" y="674" smooth="yes"/>
      <point x="504" y="687" type="curve" smooth="yes"/>
      <point x="504" y="731" smooth="yes"/>
      <point x="466" y="763" smooth="yes"/>
      <point x="416" y="763" type="curve" smooth="yes"/>
      <point x="397" y="763" smooth="yes"/>
      <point x="376" y="759" smooth="yes"/>
      <point x="354" y="749" type="curve" smooth="yes"/>
      <point x="320" y="734" type="line" smooth="yes"/>
      <point x="292" y="722" smooth="yes"/>
      <point x="273" y="716" smooth="yes"/>
      <point x="260" y="716" type="curve" smooth="yes" name="hr02"/>
      <point x="241" y="716" smooth="yes"/>
      <point x="230" y="724" smooth="yes"/>
      <point x="218" y="735" type="curve" smooth="yes"/>
    </contour>
  </outline>
</glyph>
<glyph name="emdash" format="1">
  <advance width="860"/>
  <unicode hex="2014"/>
  <outline>
    <contour>
      <point x="100" y="374" type="line" name="hr00"/>
      <point x="100" y="312" smooth="yes"/>
      <point x="137" y="299" smooth="yes"/>
      <point x="175" y="299" type="curve" smooth="yes"/>
      <point x="800" y="299" type="line"/>
      <point x="800" y="361" smooth="yes"/>
      <point x="762" y="374" smooth="yes"/>
      <point x="725" y="374" type="curve" smooth="yes"/>
    </contour>
  </outline>
</glyph>
<glyph name="quoteleft" format="1">
  <advance width="183"/>
  <unicode hex="2018"/>
  <outline>
    <contour>
      <point x="156" y="807" type="line" name="hr00"/>
      <point x="102" y="755" smooth="yes"/>
      <point x="39" y="659" smooth="yes"/>
      <point x="39" y="578" type="curve" smooth="yes"/>
      <point x="39" y="521" smooth="yes"/>
      <point x="62" y="496" smooth="yes"/>
      <point x="112" y="496" type="curve" smooth="yes"/>
      <point x="143" y="496" type="line"/>
      <point x="143" y="551" type="line" smooth="yes"/>
      <point x="143" y="681"/>
      <point x="168" y="728"/>
      <point x="193" y="776" type="curve"/>
    </contour>
  </outline>
</glyph>
<glyph name="quoteright" format="1">
  <advance width="193"/>
  <unicode hex="2019"/>
  <outline>
    <contour>
      <point x="76" y="486" type="line" name="hr00"/>
      <point x="130" y="538" smooth="yes"/>
      <point x="193" y="634" smooth="yes"/>
      <point x="193" y="715" type="curve" smooth="yes"/>
      <point x="193" y="772" smooth="yes"/>
      <point x="170" y="797" smooth="yes"/>
      <point x="120" y="797" type="curve" smooth="yes"/>
      <point x="89" y="797" type="line"/>
      <point x="89" y="742" type="line" smooth="yes"/>
      <point x="89" y="612"/>
      <point x="64" y="565"/>
      <point x="39" y="517" type="curve"/>
    </contour>
  </outline>
</glyph>
<glyph name="dagger" format="1">
  <advance width="650"/>
  <unicode hex="2020"/>
  <outline>
    <contour>
      <point x="470" y="660" type="line" smooth="yes" name="hr00"/>
      <point x="470" y="710" smooth="yes"/>
      <point x="439" y="720" smooth="yes"/>
      <point x="409" y="720" type="curve" smooth="yes"/>
      <point x="380" y="720" type="line"/>
      <point x="380" y="541" type="line"/>
      <point x="200" y="541" type="line"/>
      <point x="200" y="515" type="line" smooth="yes"/>
      <point x="200" y="488" smooth="yes"/>
      <point x="209" y="461" smooth="yes"/>
      <point x="254" y="461" type="curve" smooth="yes"/>
      <point x="380" y="461" type="line"/>
      <point x="380" y="-40" type="line" smooth="yes"/>
      <point x="380" y="-90" smooth="yes"/>
      <point x="411" y="-100" smooth="yes"/>
      <point x="441" y="-100" type="curve" smooth="yes"/>
      <point x="470" y="-100" type="line"/>
      <point x="470" y="461" type="line"/>
      <point x="650" y="461" type="line"/>
      <point x="650" y="480" type="line" smooth="yes"/>
      <point x="650" y="510" smooth="yes"/>
      <point x="640" y="541" smooth="yes"/>
      <point x="590" y="541" type="curve" smooth="yes"/>
      <point x="470" y="541" type="line"/>
    </contour>
  </outline>
</glyph>
<glyph name="ellipsis" format="1">
  <advance width="829"/>
  <unicode hex="2026"/>
  <outline>
    <contour>
      <point x="214" y="61" type="curve" smooth="yes" name="hr00"/>
      <point x="214" y="23" smooth="yes"/>
      <point x="227" y="-6" smooth="yes"/>
      <point x="281" y="-6" type="curve" smooth="yes"/>
      <point x="333" y="-6" smooth="yes"/>
      <point x="349" y="23" smooth="yes"/>
      <point x="349" y="61" type="curve" smooth="yes"/>
      <point x="349" y="98" smooth="yes"/>
      <point x="333" y="129" smooth="yes"/>
      <point x="281" y="129" type="curve" smooth="yes"/>
      <point x="227" y="129" smooth="yes"/>
      <point x="214" y="98" smooth="yes"/>
    </contour>
    <contour>
      <point x="457" y="61" type="curve" smooth="yes"/>
      <point x="457" y="23" smooth="yes"/>
      <point x="470" y="-6" smooth="yes"/>
      <point x="524" y="-6" type="curve" smooth="yes"/>
      <point x="576" y="-6" smooth="yes"/>
      <point x="592" y="23" smooth="yes"/>
      <point x="592" y="61" type="curve" smooth="yes"/>
      <point x="592" y="98" smooth="yes"/>
      <point x="576" y="129" smooth="yes"/>
      <point x="524" y="129" type="curve" smooth="yes"/>
      <point x="470" y="129" smooth="yes"/>
      <point x="457" y="98" smooth="yes"/>
    </contour>
    <contour>
      <point x="700" y="61" type="curve" smooth="yes"/>
      <point x="700" y="23" smooth="yes"/>
      <point x="713" y="-6" smooth="yes"/>
      <point x="767" y="-6" type="curve" smooth="yes"/>
      <point x="819" y="-6" smooth="yes"/>
      <point x="835" y="23" smooth="yes"/>
      <point x="835" y="61" type="curve" smooth="yes"/>
      <point x="835" y="98" smooth="yes"/>
      <point x="819" y="129" smooth="yes"/>
      <point x="767" y="129" type="curve" smooth="yes"/>
      <point x="713" y="129" smooth="yes"/>
      <point x="700" y="98" smooth="yes"/>
    </contour>
  </outline>
</glyph>
<glyph name="fraction" format="1">
  <advance width="390"/>
  <unicode hex="2044"/>
  <outline>
    <contour>
      <point x="430" y="710" type="line" name="hr00"/>
      <point x="421" y="710" type="line" smooth="yes"/>
      <point x="378" y="710" smooth="yes"/>
      <point x="363" y="704" smooth="yes"/>
      <point x="344" y="650" type="curve" smooth="yes"/>
      <point x="117" y="0" type="line"/>
      <point x="126" y="0" type="line" smooth="yes"/>
      <point x="175" y="0" smooth="yes"/>
      <point x="186" y="12" smooth="yes"/>
      <point x="203" y="60" type="curve" smooth="yes"/>
    </contour>
  </outline>
</glyph>
<glyph name="oneinferior" format="1">
  <advance width="420"/>
  <unicode hex="2081"/>
  <outline>
    <contour>
      <point x="297" y="-200" type="line" smooth="yes"/>
      <point x="322" y="-200"/>
      <point x="347" y="-182"/>
      <point x="347" y="-136" type="curve"/>
      <point x="248" y="-136" type="line"/>
      <point x="248" y="148" type="line"/>
      <point x="256" y="163" smooth="yes"/>
      <point x="260" y="181" smooth="yes"/>
      <point x="260" y="193" type="curve" smooth="yes" name="hr01"/>
      <point x="260" y="220" smooth="yes"/>
      <point x="245" y="233" smooth="yes"/>
      <point x="219" y="233" type="curve" smooth="yes"/>
      <point x="181" y="233" type="line"/>
      <point x="181" y="188" type="line" smooth="yes"/>
      <point x="181" y="169" smooth="yes"/>
      <point x="156" y="108" smooth="yes"/>
      <point x="89" y="108" type="curve" smooth="yes"/>
      <point x="77" y="108" smooth="yes"/>
      <point x="68" y="97" smooth="yes"/>
      <point x="68" y="88" type="curve" smooth="yes"/>
      <point x="68" y="64" type="line" smooth="yes"/>
      <point x="68" y="53" smooth="yes"/>
      <point x="77" y="44" smooth="yes"/>
      <point x="89" y="44" type="curve" smooth="yes"/>
      <point x="122" y="44"/>
      <point x="155" y="55"/>
      <point x="178" y="73" type="curve"/>
      <point x="178" y="-136" type="line"/>
      <point x="128" y="-136" type="line" smooth="yes"/>
      <point x="102" y="-136"/>
      <point x="78" y="-153"/>
      <point x="78" y="-200" type="curve"/>
    </contour>
  </outline>
</glyph>
<glyph name="twoinferior" format="1">
  <advance width="420"/>
  <unicode hex="2082"/>
  <outline>
    <contour>
      <point x="74" y="233" type="line" name="hr00"/>
      <point x="74" y="213" type="line" smooth="yes"/>
      <point x="74" y="175" smooth="yes"/>
      <point x="94" y="169" smooth="yes"/>
      <point x="111" y="169" type="curve" smooth="yes"/>
      <point x="217" y="169" type="line" smooth="yes"/>
      <point x="256" y="169" smooth="yes"/>
      <point x="268" y="165" smooth="yes"/>
      <point x="268" y="137" type="curve" smooth="yes"/>
      <point x="267" y="69" smooth="yes"/>
      <point x="190" y="-17" smooth="yes"/>
      <point x="113" y="-99" type="curve" smooth="yes"/>
      <point x="65" y="-150" type="line" smooth="yes"/>
      <point x="57" y="-158"/>
      <point x="52" y="-176"/>
      <point x="52" y="-200" type="curve"/>
      <point x="306" y="-200" type="line" smooth="yes"/>
      <point x="331" y="-200"/>
      <point x="356" y="-182"/>
      <point x="356" y="-136" type="curve"/>
      <point x="166" y="-136" type="line"/>
      <point x="239" y="-60" smooth="yes"/>
      <point x="338" y="53" smooth="yes"/>
      <point x="338" y="137" type="curve" smooth="yes"/>
      <point x="338" y="219" smooth="yes"/>
      <point x="309" y="233" smooth="yes"/>
      <point x="217" y="233" type="curve" smooth="yes"/>
    </contour>
  </outline>
</glyph>
<glyph name="threeinferior" format="1">
  <advance width="420"/>
  <unicode hex="2083"/>
  <outline>
    <contour>
      <point x="80" y="233" type="line"/>
      <point x="80" y="213" type="line" smooth="yes"/>
      <point x="80" y="175" smooth="yes"/>
      <point x="100" y="169" smooth="yes"/>
      <point x="117" y="169" type="curve" smooth="yes"/>
      <point x="215" y="169" type="line" smooth="yes"/>
      <point x="253" y="169" smooth="yes"/>
      <point x="265" y="166" smooth="yes"/>
      <point x="265" y="149" type="curve" smooth="yes"/>
      <point x="265" y="126" smooth="yes"/>
      <point x="244" y="57" smooth="yes"/>
      <point x="193" y="57" type="curve" smooth="yes"/>
      <point x="121" y="57" type="line"/>
      <point x="121" y="35" type="line" smooth="yes"/>
      <point x="121" y="6" smooth="yes"/>
      <point x="142" y="-1" smooth="yes"/>
      <point x="165" y="-1" type="curve" smooth="yes"/>
      <point x="277" y="-1" type="line" name="hr01"/>
      <point x="274" y="-109" smooth="yes"/>
      <point x="235" y="-136" smooth="yes"/>
      <point x="130" y="-136" type="curve" smooth="yes"/>
      <point x="68" y="-136" type="line"/>
      <point x="68" y="-165" smooth="yes"/>
      <point x="78" y="-200" smooth="yes"/>
      <point x="130" y="-200" type="curve" smooth="yes"/>
      <point x="285" y="-200" smooth="yes"/>
      <point x="347" y="-140" smooth="yes"/>
      <point x="347" y="-4" type="curve" smooth="yes"/>
      <point x="347" y="2" type="line" smooth="yes"/>
      <point x="347" y="35"/>
      <point x="327" y="56"/>
      <point x="283" y="57" type="curve"/>
      <point x="322" y="77" smooth="yes"/>
      <point x="336" y="125" smooth="yes"/>
      <point x="336" y="149" type="curve" smooth="yes"/>
      <point x="336" y="218" smooth="yes"/>
      <point x="306" y="233" smooth="yes"/>
      <point x="215" y="233" type="curve" smooth="yes"/>
    </contour>
  </outline>
</glyph>
<glyph name="fiveinferior" format="1">
  <advance width="420"/>
  <unicode hex="2085"/>
  <outline>
    <contour>
      <point x="199" y="233" type="line" smooth="yes" name="hr00"/>
      <point x="98" y="233" smooth="yes"/>
      <point x="62" y="190" smooth="yes"/>
      <point x="62" y="96" type="curve" smooth="yes"/>
      <point x="62" y="35" type="line" smooth="yes"/>
      <point x="62" y="6" smooth="yes"/>
      <point x="84" y="-1" smooth="yes"/>
      <point x="106" y="-1" type="curve" smooth="yes"/>
      <point x="271" y="-1" type="line"/>
      <point x="268" y="-109" smooth="yes"/>
      <point x="229" y="-136" smooth="yes"/>
      <point x="124" y="-136" type="curve" smooth="yes"/>
      <point x="62" y="-136" type="line"/>
      <point x="62" y="-165" smooth="yes"/>
      <point x="72" y="-200" smooth="yes"/>
      <point x="124" y="-200" type="curve" smooth="yes"/>
      <point x="279" y="-200" smooth="yes"/>
      <point x="341" y="-140" smooth="yes"/>
      <point x="341" y="-4" type="curve" smooth="yes"/>
      <point x="341" y="2" type="line" smooth="yes"/>
      <point x="341" y="36" smooth="yes"/>
      <point x="331" y="63" smooth="yes"/>
      <point x="280" y="63" type="curve" smooth="yes"/>
      <point x="133" y="63" type="line"/>
      <point x="133" y="96" type="line" smooth="yes"/>
      <point x="133" y="157" smooth="yes"/>
      <point x="153" y="169" smooth="yes"/>
      <point x="201" y="169" type="curve" smooth="yes"/>
      <point x="328" y="169" type="line"/>
      <point x="328" y="183" type="line" smooth="yes"/>
      <point x="328" y="218" smooth="yes"/>
      <point x="312" y="233" smooth="yes"/>
      <point x="285" y="233" type="curve" smooth="yes"/>
    </contour>
  </outline>
</glyph>
<glyph name="sixinferior" format="1">
  <advance width="420"/>
  <unicode hex="2086"/>
  <outline>
    <contour>
      <point x="204" y="69" type="line" smooth="yes" name="hr00"/>
      <point x="174" y="69"/>
      <point x="151" y="63"/>
      <point x="134" y="53" type="curve"/>
      <point x="140" y="147" smooth="yes"/>
      <point x="172" y="175" smooth="yes"/>
      <point x="297" y="175" type="curve" smooth="yes"/>
      <point x="339" y="175" type="line"/>
      <point x="339" y="189" type="line" smooth="yes"/>
      <point x="339" y="224" smooth="yes"/>
      <point x="324" y="239" smooth="yes"/>
      <point x="297" y="239" type="curve" smooth="yes"/>
      <point x="105" y="239" smooth="yes"/>
      <point x="62" y="175" smooth="yes"/>
      <point x="62" y="-9" type="curve" smooth="yes"/>
      <point x="62" y="-139" type="line" smooth="yes"/>
      <point x="62" y="-173" smooth="yes"/>
      <point x="72" y="-200" smooth="yes"/>
      <point x="124" y="-200" type="curve" smooth="yes"/>
      <point x="279" y="-200" smooth="yes"/>
      <point x="353" y="-134" smooth="yes"/>
      <point x="353" y="2" type="curve" smooth="yes"/>
      <point x="353" y="8" type="line" smooth="yes"/>
      <point x="353" y="42" smooth="yes"/>
      <point x="342" y="69" smooth="yes"/>
      <point x="292" y="69" type="curve" smooth="yes"/>
    </contour>
    <contour>
      <point x="283" y="5" type="line"/>
      <point x="279" y="-101"/>
      <point x="231" y="-134"/>
      <point x="133" y="-136" type="curve"/>
      <point x="133" y="-63" type="line" smooth="yes"/>
      <point x="133" y="-7" smooth="yes"/>
      <point x="156" y="5" smooth="yes"/>
      <point x="204" y="5" type="curve" smooth="yes"/>
    </contour>
  </outline>
</glyph>
<glyph name="nineinferior" format="1">
  <advance width="420"/>
  <unicode hex="2089"/>
  <outline>
    <contour>
      <point x="203" y="233" type="line" smooth="yes" name="hr00"/>
      <point x="102" y="233" smooth="yes"/>
      <point x="66" y="190" smooth="yes"/>
      <point x="66" y="96" type="curve" smooth="yes"/>
      <point x="66" y="25" type="line" smooth="yes"/>
      <point x="66" y="-9" smooth="yes"/>
      <point x="75" y="-36" smooth="yes"/>
      <point x="126" y="-36" type="curve" smooth="yes"/>
      <point x="198" y="-36"/>
      <point x="245" y="-22"/>
      <point x="279" y="9" type="curve"/>
      <point x="275" y="-104" smooth="yes"/>
      <point x="251" y="-136" smooth="yes"/>
      <point x="115" y="-136" type="curve" smooth="yes"/>
      <point x="71" y="-136" type="line"/>
      <point x="71" y="-150" type="line" smooth="yes"/>
      <point x="71" y="-185" smooth="yes"/>
      <point x="87" y="-200" smooth="yes"/>
      <point x="115" y="-200" type="curve" smooth="yes"/>
      <point x="306" y="-200" smooth="yes"/>
      <point x="349" y="-137" smooth="yes"/>
      <point x="349" y="48" type="curve" smooth="yes"/>
      <point x="349" y="172" type="line" smooth="yes"/>
      <point x="349" y="206" smooth="yes"/>
      <point x="337" y="233" smooth="yes"/>
      <point x="288" y="233" type="curve" smooth="yes"/>
    </contour>
    <contour>
      <point x="282" y="169" type="line"/>
      <point x="278" y="63"/>
      <point x="231" y="30"/>
      <point x="137" y="28" type="curve"/>
      <point x="137" y="96" type="line" smooth="yes"/>
      <point x="137" y="157" smooth="yes"/>
      <point x="157" y="169" smooth="yes"/>
      <point x="205" y="169" type="curve" smooth="yes"/>
    </contour>
  </outline>
</glyph>
<glyph name="Omega" format="1">
  <advance width="828"/>
  <unicode hex="2126"/>
  <outline>
    <contour>
      <point x="414" y="630" type="curve" smooth="yes" name="hr00"/>
      <point x="584" y="630"/>
      <point x="652" y="536"/>
      <point x="652" y="270" type="curve"/>
      <point x="545" y="270" type="line" smooth="yes"/>
      <point x="515" y="270" smooth="yes"/>
      <point x="484" y="262" smooth="yes"/>
      <point x="484" y="223" type="curve" smooth="yes"/>
      <point x="484" y="219" type="line" smooth="yes"/>
      <point x="484" y="89" smooth="yes"/>
      <point x="513" y="0" smooth="yes"/>
      <point x="673" y="0" type="curve" smooth="yes"/>
      <point x="719" y="0" type="line" smooth="yes"/>
      <point x="756" y="0" smooth="yes"/>
      <point x="778" y="20" smooth="yes"/>
      <point x="778" y="70" type="curve" smooth="yes"/>
      <point x="778" y="80" type="line"/>
      <point x="676" y="80" type="line" smooth="yes"/>
      <point x="585" y="80"/>
      <point x="574" y="114"/>
      <point x="574" y="200" type="curve"/>
      <point x="652" y="200" type="line" smooth="yes"/>
      <point x="726" y="200" smooth="yes"/>
      <point x="742" y="230" smooth="yes"/>
      <point x="742" y="280" type="curve" smooth="yes"/>
      <point x="742" y="581" smooth="yes"/>
      <point x="620" y="710" smooth="yes"/>
      <point x="414" y="710" type="curve" smooth="yes"/>
      <point x="208" y="710" smooth="yes"/>
      <point x="86" y="581" smooth="yes"/>
      <point x="86" y="280" type="curve" smooth="yes"/>
      <point x="86" y="230" smooth="yes"/>
      <point x="102" y="200" smooth="yes"/>
      <point x="176" y="200" type="curve" smooth="yes"/>
      <point x="254" y="200" type="line"/>
      <point x="254" y="114" smooth="yes"/>
      <point x="243" y="80" smooth="yes"/>
      <point x="152" y="80" type="curve" smooth="yes"/>
      <point x="50" y="80" type="line"/>
      <point x="50" y="70" type="line" smooth="yes"/>
      <point x="50" y="20" smooth="yes"/>
      <point x="72" y="0" smooth="yes"/>
      <point x="109" y="0" type="curve" smooth="yes"/>
      <point x="155" y="0" type="line" smooth="yes"/>
      <point x="315" y="0" smooth="yes"/>
      <point x="344" y="89" smooth="yes"/>
      <point x="344" y="219" type="curve" smooth="yes"/>
      <point x="344" y="223" type="line" smooth="yes"/>
      <point x="344" y="262" smooth="yes"/>
      <point x="313" y="270" smooth="yes"/>
      <point x="283" y="270" type="curve" smooth="yes"/>
      <point x="176" y="270" type="line"/>
      <point x="176" y="536" smooth="yes"/>
      <point x="244" y="630" smooth="yes"/>
    </contour>
  </outline>
</glyph>
<glyph name="infinity" format="1">
  <advance width="918"/>
  <unicode hex="221E"/>
  <outline>
    <contour>
      <point x="868" y="366" type="curve" smooth="yes" name="hr00"/>
      <point x="868" y="377" smooth="yes"/>
      <point x="865" y="387" smooth="yes"/>
      <point x="855" y="399" type="curve" smooth="yes"/>
      <point x="770" y="497" type="line" smooth="yes"/>
      <point x="722" y="552" smooth="yes"/>
      <point x="680" y="584" smooth="yes"/>
      <point x="642" y="584" type="curve" smooth="yes"/>
      <point x="604" y="584" smooth="yes"/>
      <point x="561" y="552" smooth="yes"/>
      <point x="514" y="497" type="curve" smooth="yes"/>
      <point x="459" y="433" type="line"/>
      <point x="404" y="497" type="line" smooth="yes"/>
      <point x="357" y="552" smooth="yes"/>
      <point x="314" y="584" smooth="yes"/>
      <point x="276" y="584" type="curve" smooth="yes"/>
      <point x="238" y="584" smooth="yes"/>
      <point x="196" y="552" smooth="yes"/>
      <point x="148" y="497" type="curve" smooth="yes"/>
      <point x="63" y="399" type="line" smooth="yes"/>
      <point x="53" y="387" smooth="yes"/>
      <point x="50" y="377" smooth="yes"/>
      <point x="50" y="366" type="curve" smooth="yes"/>
      <point x="50" y="355" smooth="yes"/>
      <point x="53" y="345" smooth="yes"/>
      <point x="63" y="333" type="curve" smooth="yes"/>
      <point x="148" y="235" type="line" smooth="yes"/>
      <point x="196" y="180" smooth="yes"/>
      <point x="238" y="148" smooth="yes"/>
      <point x="276" y="148" type="curve" smooth="yes"/>
      <point x="314" y="148" smooth="yes"/>
      <point x="356" y="180" smooth="yes"/>
      <point x="404" y="235" type="curve" smooth="yes"/>
      <point x="459" y="298" type="line"/>
      <point x="514" y="235" type="line" smooth="yes"/>
      <point x="562" y="180" smooth="yes"/>
      <point x="604" y="148" smooth="yes"/>
      <point x="642" y="148" type="curve" smooth="yes"/>
      <point x="680" y="148" smooth="yes"/>
      <point x="722" y="180" smooth="yes"/>
      <point x="770" y="235" type="curve" smooth="yes"/>
      <point x="855" y="333" type="line" smooth="yes"/>
      <point x="865" y="345" smooth="yes"/>
      <point x="868" y="355" smooth="yes"/>
    </contour>
    <contour>
      <point x="510" y="365" type="line"/>
      <point x="566" y="435" type="line" smooth="yes"/>
      <point x="595" y="471" smooth="yes"/>
      <point x="622" y="493" smooth="yes"/>
      <point x="642" y="493" type="curve" smooth="yes"/>
      <point x="660" y="493" smooth="yes"/>
      <point x="689" y="471" smooth="yes"/>
      <point x="718" y="435" type="curve" smooth="yes"/>
      <point x="774" y="365" type="line"/>
      <point x="718" y="297" type="line" smooth="yes"/>
      <point x="688" y="261" smooth="yes"/>
      <point x="662" y="239" smooth="yes"/>
      <point x="642" y="239" type="curve" smooth="yes"/>
      <point x="622" y="239" smooth="yes"/>
      <point x="595" y="261" smooth="yes"/>
      <point x="566" y="297" type="curve" smooth="yes"/>
    </contour>
    <contour>
      <point x="144" y="365" type="line"/>
      <point x="200" y="435" type="line" smooth="yes"/>
      <point x="229" y="471" smooth="yes"/>
      <point x="256" y="493" smooth="yes"/>
      <point x="276" y="493" type="curve" smooth="yes"/>
      <point x="294" y="493" smooth="yes"/>
      <point x="323" y="471" smooth="yes"/>
      <point x="352" y="435" type="curve" smooth="yes"/>
      <point x="408" y="365" type="line"/>
      <point x="352" y="297" type="line" smooth="yes"/>
      <point x="322" y="261" smooth="yes"/>
      <point x="296" y="239" smooth="yes"/>
      <point x="276" y="239" type="curve" smooth="yes"/>
      <point x="256" y="239" smooth="yes"/>
      <point x="229" y="261" smooth="yes"/>
      <point x="200" y="297" type="curve" smooth="yes"/>
    </contour>
  </outline>
</glyph>
<glyph name="approxequal" format="1">
  <advance width="460"/>
  <unicode hex="2248"/>
  <outline>
    <contour>
      <point x="490" y="426" type="line" smooth="yes"/>
      <point x="490" y="466" smooth="yes"/>
      <point x="481" y="490" smooth="yes"/>
      <point x="418" y="490" type="curve" smooth="yes"/>
      <point x="346" y="490" smooth="yes"/>
      <point x="277" y="451" smooth="yes"/>
      <point x="207" y="451" type="curve" smooth="yes" name="hr01"/>
      <point x="181" y="451"/>
      <point x="156" y="456"/>
      <point x="130" y="470" type="curve"/>
      <point x="130" y="438" type="line" smooth="yes"/>
      <point x="130" y="398" smooth="yes"/>
      <point x="139" y="374" smooth="yes"/>
      <point x="202" y="374" type="curve" smooth="yes"/>
      <point x="274" y="374" smooth="yes"/>
      <point x="343" y="413" smooth="yes"/>
      <point x="413" y="413" type="curve" smooth="yes" name="hr02"/>
      <point x="439" y="413"/>
      <point x="464" y="408"/>
      <point x="490" y="394" type="curve"/>
    </contour>
    <contour>
      <point x="490" y="235" type="line" smooth="yes"/>
      <point x="490" y="275" smooth="yes"/>
      <point x="481" y="299" smooth="yes"/>
      <point x="418" y="299" type="curve" smooth="yes"/>
      <point x="346" y="299" smooth="yes"/>
      <point x="277" y="260" smooth="yes"/>
      <point x="207" y="260" type="curve" smooth="yes" name="hr03"/>
      <point x="181" y="260"/>
      <point x="156" y="265"/>
      <point x="130" y="279" type="curve"/>
      <point x="130" y="247" type="line" smooth="yes"/>
      <point x="130" y="207" smooth="yes"/>
      <point x="139" y="183" smooth="yes"/>
      <point x="202" y="183" type="curve" smooth="yes"/>
      <point x="274" y="183" smooth="yes"/>
      <point x="343" y="222" smooth="yes"/>
      <point x="413" y="222" type="curve" smooth="yes" name="hr04"/>
      <point x="439" y="222"/>
      <point x="464" y="217"/>
      <point x="490" y="203" type="curve"/>
    </contour>
  </outline>
</glyph>
<glyph name="greaterequal" format="1">
  <advance width="460"/>
  <unicode hex="2265"/>
  <outline>
    <contour>
      <point x="130" y="75" type="line" name="hr00"/>
      <point x="130" y="13" smooth="yes"/>
      <point x="137" y="0" smooth="yes"/>
      <point x="175" y="0" type="curve" smooth="yes"/>
      <point x="490" y="0" type="line"/>
      <point x="490" y="62" smooth="yes"/>
      <point x="483" y="75" smooth="yes"/>
      <point x="445" y="75" type="curve" smooth="yes"/>
    </contour>
    <contour>
      <point x="464" y="288" type="line"/>
      <point x="483" y="297" smooth="yes"/>
      <point x="493" y="312" smooth="yes"/>
      <point x="493" y="334" type="curve" smooth="yes"/>
      <point x="493" y="356" smooth="yes"/>
      <point x="482" y="372" smooth="yes"/>
      <point x="464" y="380" type="curve" smooth="yes"/>
      <point x="146" y="526" type="line"/>
      <point x="135" y="501" smooth="yes"/>
      <point x="130" y="484" smooth="yes"/>
      <point x="130" y="471" type="curve" smooth="yes"/>
      <point x="130" y="456" smooth="yes"/>
      <point x="139" y="448" smooth="yes"/>
      <point x="158" y="440" type="curve" smooth="yes"/>
      <point x="390" y="334" type="line"/>
      <point x="158" y="228" type="line" smooth="yes"/>
      <point x="139" y="220" smooth="yes"/>
      <point x="130" y="212" smooth="yes"/>
      <point x="130" y="197" type="curve" smooth="yes"/>
      <point x="130" y="184"/>
      <point x="135" y="167"/>
      <point x="146" y="142" type="curve"/>
    </contour>
  </outline>
</glyph>
<glyph name="lozenge" format="1">
  <advance width="440"/>
  <unicode hex="25CA"/>
  <outline>
    <contour>
      <point x="371" y="60" type="line" name="hr00"/>
      <point x="245" y="355" type="line"/>
      <point x="371" y="650" type="line"/>
      <point x="497" y="355" type="line"/>
    </contour>
    <contour>
      <point x="371" y="710" type="curve" smooth="yes"/>
      <point x="328" y="710" smooth="yes"/>
      <point x="316" y="702" smooth="yes"/>
      <point x="294" y="650" type="curve" smooth="yes"/>
      <point x="170" y="355" type="line"/>
      <point x="294" y="60" type="line" smooth="yes"/>
      <point x="316" y="8" smooth="yes"/>
      <point x="328" y="0" smooth="yes"/>
      <point x="371" y="0" type="curve" smooth="yes"/>
      <point x="414" y="0" smooth="yes"/>
      <point x="426" y="8" smooth="yes"/>
      <point x="448" y="60" type="curve" smooth="yes"/>
      <point x="572" y="355" type="line"/>
      <point x="448" y="650" type="line" smooth="yes"/>
      <point x="426" y="702" smooth="yes"/>
      <point x="414" y="710" smooth="yes"/>
    </contour>
  </outline>
</glyph>
<glyph name="fi" format="1">
  <advance width="822"/>
  <unicode hex="FB01"/>
  <outline>
    <contour>
      <point x="691" y="70" type="line" name="hr00"/>
      <point x="691" y="520" type="line"/>
      <point x="690" y="531" smooth="yes"/>
      <point x="681" y="540" smooth="yes"/>
      <point x="670" y="540" type="curve" smooth="yes"/>
      <point x="621" y="540" type="line"/>
      <point x="619" y="540" type="line"/>
      <point x="285" y="540" type="line"/>
      <point x="301" y="674" smooth="yes"/>
      <point x="355" y="690" smooth="yes"/>
      <point x="457" y="690" type="curve" smooth="yes"/>
      <point x="513" y="690" type="line"/>
      <point x="513" y="701" type="line" smooth="yes"/>
      <point x="513" y="750" smooth="yes"/>
      <point x="499" y="770" smooth="yes"/>
      <point x="457" y="770" type="curve" smooth="yes"/>
      <point x="296" y="770"/>
      <point x="216" y="720"/>
      <point x="195" y="540" type="curve"/>
      <point x="130" y="540" type="line" smooth="yes"/>
      <point x="95" y="540"/>
      <point x="60" y="518"/>
      <point x="60" y="460" type="curve"/>
      <point x="190" y="460" type="line"/>
      <point x="190" y="30" type="line" smooth="yes"/>
      <point x="190" y="-206" smooth="yes"/>
      <point x="138" y="-230" smooth="yes"/>
      <point x="13" y="-230" type="curve" smooth="yes"/>
      <point x="-43" y="-230" type="line"/>
      <point x="-43" y="-241" type="line" smooth="yes"/>
      <point x="-43" y="-290" smooth="yes"/>
      <point x="-29" y="-310" smooth="yes"/>
      <point x="13" y="-310" type="curve" smooth="yes"/>
      <point x="202" y="-310" smooth="yes"/>
      <point x="280" y="-241" smooth="yes"/>
      <point x="280" y="30" type="curve" smooth="yes"/>
      <point x="280" y="460" type="line"/>
      <point x="591" y="460" type="line"/>
      <point x="601" y="460" type="line"/>
      <point x="601" y="60" type="line" smooth="yes"/>
      <point x="601" y="10" smooth="yes"/>
      <point x="632" y="0" smooth="yes"/>
      <point x="662" y="0" type="curve" smooth="yes"/>
      <point x="942" y="0" type="line" smooth="yes"/>
      <point x="977" y="0"/>
      <point x="1012" y="12"/>
      <point x="1012" y="70" type="curve"/>
    </contour>
    <contour>
      <point x="585" y="704" type="curve" smooth="yes"/>
      <point x="585" y="670" smooth="yes"/>
      <point x="597" y="643" smooth="yes"/>
      <point x="646" y="643" type="curve" smooth="yes"/>
      <point x="694" y="643" smooth="yes"/>
      <point x="708" y="670" smooth="yes"/>
      <point x="708" y="704" type="curve" smooth="yes"/>
      <point x="708" y="737" smooth="yes"/>
      <point x="694" y="766" smooth="yes"/>
      <point x="646" y="766" type="curve" smooth="yes"/>
      <point x="597" y="766" smooth="yes"/>
      <point x="585" y="737" smooth="yes"/>
    </contour>
  </outline>
</glyph>
<glyph name="acute.case" format="1">
  <advance width="474"/>
  <outline>
    <contour>
      <point x="186" y="770" type="line" name="hr00"/>
      <point x="277" y="787" smooth="yes"/>
      <point x="410" y="819" smooth="yes"/>
      <point x="410" y="865" type="curve" smooth="yes"/>
      <point x="410" y="878" smooth="yes"/>
      <point x="403" y="896" smooth="yes"/>
      <point x="386" y="922" type="curve" smooth="yes"/>
      <point x="373" y="942" type="line"/>
      <point x="163" y="811" type="line"/>
    </contour>
  </outline>
</glyph>
<glyph name="barra" format="1">
  <advance width="418"/>
  <outline>
    <contour>
      <point x="339" y="320" type="line" name="hr00"/>
      <point x="383" y="320"/>
      <point x="393" y="345"/>
      <point x="393" y="390" type="curve"/>
      <point x="79" y="390" type="line" smooth="yes"/>
      <point x="34" y="390"/>
      <point x="25" y="365"/>
      <point x="25" y="320" type="curve"/>
    </contour>
  </outline>
</glyph>
